<svg width="246" height="17" viewBox="0 0 246 17" fill="none" xmlns="http://www.w3.org/2000/svg">
<path fill-rule="evenodd" clip-rule="evenodd" d="M120.567 0.0990798C120.604 0.109275 120.595 0.142254 120.532 0.222679C120.471 0.300674 120.435 0.320241 120.405 0.290361C120.348 0.233541 120.094 0.237031 120.036 0.295419C120 0.332005 119.989 0.327966 119.989 0.277185C119.989 0.192956 120.126 0.119392 120.224 0.150802C120.278 0.167977 120.301 0.156998 120.301 0.113746C120.301 0.0799443 120.283 0.0522991 120.262 0.0522991C120.24 0.0522991 120.223 0.03481 120.223 0.0133998C120.223 -0.00938293 120.283 -0.00259885 120.369 0.0298302C120.449 0.0602594 120.538 0.0914333 120.567 0.0990798ZM121.005 0.37659C121.017 0.393177 121.067 0.402 121.116 0.396196C121.204 0.385766 121.246 0.429213 121.293 0.579477C121.315 0.650923 121.323 0.649119 121.414 0.550068C121.468 0.491954 121.544 0.444428 121.583 0.444428C121.622 0.444428 121.676 0.417959 121.703 0.385609C121.768 0.307418 121.859 0.310634 121.859 0.391099C121.859 0.452271 121.962 0.558146 122.024 0.560812C122.04 0.561518 122.054 0.533716 122.054 0.499052C122.054 0.460153 122.075 0.444389 122.11 0.457839C122.143 0.470701 122.176 0.450702 122.189 0.409176C122.201 0.370394 122.255 0.318241 122.31 0.293223C122.379 0.261461 122.401 0.260794 122.383 0.291027C122.368 0.31479 122.379 0.377805 122.407 0.430978C122.448 0.507129 122.449 0.543755 122.412 0.603162C122.35 0.702959 122.353 0.751426 122.425 0.824009C122.483 0.882789 122.581 0.880633 122.784 0.816049C122.849 0.795462 122.872 0.803854 122.872 0.848321C122.872 0.881378 122.85 0.916473 122.823 0.926276C122.784 0.940549 122.784 0.958862 122.823 1.01776C122.85 1.05831 122.889 1.13112 122.91 1.17967C122.931 1.22822 122.973 1.2679 123.004 1.2679C123.035 1.2679 123.067 1.22822 123.074 1.17967C123.082 1.13112 123.11 1.09607 123.137 1.10175C123.164 1.1074 123.242 1.11814 123.311 1.12563C123.406 1.13591 123.446 1.16512 123.474 1.24496C123.503 1.32664 123.53 1.34589 123.594 1.3297C123.671 1.31041 123.675 1.32025 123.652 1.45498C123.632 1.57709 123.613 1.59964 123.54 1.59164C123.493 1.58639 123.444 1.6074 123.432 1.63842C123.415 1.68187 123.387 1.68595 123.309 1.65618C123.174 1.60438 123.097 1.64026 123.112 1.7481C123.123 1.8248 123.15 1.83758 123.317 1.84472C123.463 1.85099 123.521 1.83633 123.558 1.78312C123.584 1.74469 123.678 1.69175 123.765 1.66548C123.852 1.63917 123.923 1.59968 123.923 1.57772C123.923 1.55572 123.941 1.54866 123.962 1.562C123.984 1.57533 124.001 1.61858 124.001 1.65815C124.001 1.76822 124.118 1.79135 124.214 1.70034C124.309 1.61058 124.367 1.59662 124.341 1.66983C124.331 1.69681 124.349 1.74865 124.38 1.78508C124.431 1.84354 124.43 1.86186 124.371 1.94193L124.305 2.03255L124.323 1.92471C124.337 1.83915 124.326 1.81688 124.268 1.81688C124.225 1.81688 124.196 1.84476 124.196 1.88746C124.196 1.92628 124.176 1.97859 124.151 2.00373C124.091 2.0638 124.425 2.21316 124.547 2.18101C124.625 2.16042 124.628 2.16525 124.58 2.24265C124.551 2.28885 124.512 2.32665 124.494 2.32665C124.475 2.32665 124.469 2.3648 124.482 2.41143C124.494 2.45805 124.486 2.52871 124.465 2.56843C124.434 2.6271 124.445 2.64921 124.526 2.68603C124.622 2.73038 124.647 2.80853 124.63 3.01817C124.621 3.12945 124.734 3.16933 124.824 3.08683C124.881 3.03503 124.907 3.03138 124.952 3.06899C124.994 3.10424 125.029 3.10526 125.089 3.07303C125.202 3.01252 125.19 2.93441 125.053 2.83642C124.987 2.78948 124.936 2.71693 124.936 2.67141C124.936 2.62674 124.906 2.56832 124.87 2.54157C124.81 2.4975 124.816 2.48169 124.937 2.3706C125.085 2.23469 125.141 2.21528 125.104 2.31284C125.083 2.36696 125.097 2.37315 125.193 2.3508C125.409 2.29994 125.423 2.30312 125.423 2.40433C125.423 2.46577 125.448 2.50659 125.491 2.51506C125.529 2.52244 125.559 2.50954 125.559 2.48636C125.559 2.41272 125.669 2.44099 125.768 2.53993C125.869 2.64168 125.863 2.67956 125.747 2.67956C125.673 2.67956 125.661 2.71164 125.699 2.81112C125.711 2.84387 125.743 2.86241 125.769 2.8523C125.795 2.84218 125.893 2.90676 125.986 2.99582C126.127 3.13122 126.173 3.15396 126.268 3.13494C126.33 3.12247 126.417 3.134 126.462 3.16059C126.513 3.19102 126.549 3.19439 126.558 3.16972C126.606 3.0455 126.64 3.02456 126.723 3.06934C126.791 3.10577 126.811 3.10275 126.83 3.05326C126.843 3.01974 126.833 2.96715 126.807 2.93645C126.752 2.86939 126.816 2.71878 126.9 2.71878C126.974 2.71878 127.008 2.82767 126.961 2.91511C126.94 2.95527 126.923 3.02456 126.923 3.0691C126.923 3.18235 127.062 3.17647 127.094 3.06189C127.117 2.9795 127.122 2.97821 127.171 3.04228C127.25 3.1462 127.312 3.12471 127.312 2.99327C127.312 2.90178 127.329 2.87563 127.39 2.87563C127.484 2.87563 127.488 2.90833 127.406 3.02593C127.347 3.10985 127.35 3.12471 127.445 3.26995C127.501 3.35501 127.573 3.42461 127.605 3.42461C127.637 3.42461 127.663 3.45053 127.663 3.48225C127.663 3.52178 127.623 3.53884 127.536 3.53656C127.466 3.53476 127.361 3.55252 127.302 3.57601C127.1 3.65659 127.183 3.90583 127.46 4.04974C127.591 4.11746 127.771 4.06519 127.835 3.94092C127.918 3.77956 128.111 3.65345 128.228 3.68318C128.302 3.70192 128.321 3.72635 128.304 3.78058C128.292 3.82042 128.302 3.89073 128.326 3.93685C128.36 4.00061 128.398 4.01668 128.484 4.00394C128.646 3.97998 128.63 4.06739 128.442 4.23777C128.269 4.39423 128.258 4.42662 128.348 4.52645C128.405 4.59033 128.401 4.5999 128.289 4.65801C128.218 4.69491 128.169 4.75149 128.169 4.79577C128.169 4.89717 128.227 4.92689 128.286 4.85545C128.313 4.82333 128.361 4.79706 128.394 4.79706C128.446 4.79706 128.446 4.80616 128.39 4.86823C128.355 4.90737 128.307 4.99458 128.283 5.06198C128.252 5.15205 128.213 5.18778 128.137 5.19668C128.062 5.20534 128.029 5.23448 128.02 5.2993C128.012 5.35204 127.988 5.38067 127.961 5.36792C127.936 5.35592 127.886 5.33553 127.851 5.32267C127.809 5.30785 127.788 5.26158 127.792 5.19672C127.803 5.0303 127.674 5.03563 127.603 5.20452C127.527 5.38749 127.527 5.38702 127.663 5.35977C127.796 5.3329 127.804 5.35039 127.718 5.48293C127.684 5.53516 127.667 5.5963 127.681 5.6188C127.721 5.68335 127.85 5.66657 127.894 5.59112C127.929 5.53128 127.939 5.53003 127.973 5.58132C127.994 5.61367 128.012 5.68868 128.013 5.74797C128.013 5.83146 127.995 5.85581 127.932 5.85581C127.885 5.85581 127.842 5.88698 127.831 5.92929C127.82 5.96968 127.761 6.04081 127.698 6.08732C127.636 6.13383 127.585 6.20559 127.585 6.2468C127.585 6.35181 127.52 6.38083 127.495 6.28672C127.474 6.20472 127.373 6.18092 127.331 6.24821C127.289 6.31672 127.469 6.53121 127.551 6.50976C127.591 6.49921 127.624 6.50655 127.624 6.52611C127.624 6.54564 127.661 6.56164 127.706 6.56164C127.776 6.56164 127.786 6.54317 127.771 6.44228C127.761 6.37663 127.768 6.31381 127.786 6.30272C127.804 6.29162 127.818 6.30836 127.818 6.33997C127.818 6.40604 127.946 6.38616 128.071 6.30068C128.184 6.22304 128.235 6.23488 128.35 6.36558C128.471 6.50235 128.543 6.51486 128.578 6.40514C128.609 6.30503 128.574 6.24794 128.479 6.24794C128.372 6.24794 128.284 6.05466 128.312 5.88051C128.325 5.80224 128.35 5.73817 128.367 5.73817C128.385 5.73817 128.463 5.79373 128.54 5.86165C128.645 5.95458 128.69 5.974 128.724 5.94008C128.802 5.86189 128.882 5.88596 128.857 5.98019C128.821 6.11779 128.916 6.36569 129.014 6.39051C129.061 6.40244 129.118 6.40063 129.141 6.38655C129.164 6.37209 129.182 6.39263 129.182 6.43385C129.182 6.5818 129.38 6.66006 129.486 6.5538C129.559 6.48031 129.542 6.44326 129.415 6.39891C129.27 6.34785 129.263 6.23786 129.4 6.17461C129.518 6.12077 129.632 6.14575 129.665 6.23253C129.679 6.27099 129.715 6.28397 129.763 6.26864C129.82 6.25017 129.834 6.26068 129.821 6.31495C129.812 6.35358 129.838 6.42843 129.879 6.48129C129.942 6.56329 129.962 6.56976 130.016 6.52549C130.093 6.46075 130.098 6.28715 130.022 6.28715C129.992 6.28715 129.961 6.30421 129.954 6.32507C129.947 6.34593 129.921 6.31848 129.895 6.26401C129.857 6.18206 129.859 6.16104 129.909 6.14194C129.942 6.12924 129.983 6.14281 130.001 6.17206C130.028 6.21543 130.048 6.21241 130.11 6.15559C130.201 6.07254 130.257 6.13014 130.196 6.24456C130.143 6.34519 130.145 6.36558 130.209 6.36558C130.244 6.36558 130.255 6.39765 130.244 6.46012C130.231 6.52776 130.249 6.56725 130.307 6.59877C130.411 6.65438 130.423 6.84542 130.322 6.82805C130.286 6.82166 130.25 6.84511 130.243 6.8804C130.23 6.94361 130.261 6.9849 130.427 7.12309C130.49 7.17548 130.507 7.21995 130.489 7.29057C130.476 7.34347 130.485 7.4235 130.509 7.46848C130.533 7.51471 130.541 7.60929 130.527 7.68623C130.506 7.79845 130.492 7.8141 130.446 7.77575C130.378 7.71913 130.267 7.75473 130.292 7.82477C130.302 7.85253 130.294 7.9006 130.275 7.93158C130.245 7.97876 130.229 7.97938 130.177 7.93546C130.125 7.89245 130.097 7.89209 130.02 7.93354C129.966 7.96268 129.876 7.97389 129.807 7.96005C129.719 7.94237 129.688 7.9506 129.688 7.99126C129.688 8.02162 129.723 8.05765 129.766 8.07134C129.859 8.10098 129.867 8.15204 129.784 8.18403C129.747 8.19835 129.683 8.16059 129.616 8.08416C129.525 7.98177 129.471 7.95829 129.295 7.94362C129.121 7.92907 129.072 7.93942 129.015 8.00299C128.948 8.07753 128.95 8.08326 129.084 8.18576C129.201 8.27567 129.225 8.28222 129.245 8.22936C129.274 8.15263 129.404 8.0791 129.454 8.11055C129.478 8.12494 129.475 8.16098 129.447 8.20521C129.39 8.29705 129.432 8.4108 129.511 8.38018C129.576 8.35536 129.586 8.40473 129.547 8.55169C129.519 8.65569 129.467 8.66341 129.373 8.57758C129.257 8.47182 129.162 8.5606 129.161 8.77713L129.16 8.95908L129.29 8.93457L129.42 8.91002L129.393 9.05927C129.378 9.14134 129.353 9.21733 129.339 9.22812C129.25 9.29419 129.312 9.62025 129.414 9.62025C129.439 9.62025 129.446 9.65887 129.433 9.71295C129.414 9.78682 129.428 9.81059 129.5 9.83004C129.643 9.86842 129.728 9.85991 129.786 9.80172C129.864 9.72373 130.192 9.72389 130.221 9.80192C130.246 9.86588 130.062 10.0475 129.97 10.0502C129.911 10.0519 129.908 10.0032 129.964 9.94622C129.995 9.91552 129.994 9.89587 129.962 9.87595C129.935 9.85905 129.9 9.89525 129.872 9.96959C129.847 10.0363 129.813 10.0908 129.796 10.0908C129.78 10.0908 129.766 10.1242 129.766 10.165C129.766 10.2114 129.802 10.2484 129.863 10.2638C129.988 10.2953 129.986 10.3536 129.856 10.4907C129.756 10.5956 129.755 10.6031 129.823 10.6535C129.899 10.7098 129.876 10.7966 129.784 10.7966C129.754 10.7966 129.7 10.7524 129.665 10.6984C129.613 10.6185 129.61 10.5891 129.65 10.5406C129.722 10.4529 129.681 10.4366 129.473 10.4716C129.236 10.5116 129.189 10.5816 129.249 10.8047C129.273 10.8973 129.28 10.9873 129.263 11.0047C129.21 11.0585 129.044 10.9928 129.005 10.9025C128.984 10.8553 128.919 10.7935 128.86 10.7653C128.787 10.7299 128.753 10.6841 128.753 10.618C128.753 10.5492 128.732 10.5221 128.678 10.5221C128.636 10.5221 128.591 10.5398 128.578 10.5614C128.565 10.5829 128.502 10.6006 128.439 10.6006C128.303 10.6006 128.297 10.633 128.408 10.7748C128.48 10.8669 128.499 10.8738 128.547 10.8254C128.595 10.7771 128.617 10.7838 128.715 10.8756L128.828 10.9818L128.749 11.1931C128.705 11.3093 128.653 11.4212 128.633 11.4417C128.577 11.5003 128.591 11.5417 128.668 11.5417C128.738 11.5417 128.909 11.3477 128.909 11.2688C128.909 11.2463 128.96 11.228 129.022 11.228C129.151 11.228 129.214 11.3315 129.126 11.3996C129.09 11.428 129.077 11.4819 129.091 11.5511C129.109 11.6414 129.128 11.6548 129.206 11.6351C129.284 11.6153 129.298 11.6261 129.298 11.7041C129.297 11.8715 129.244 11.9119 129.127 11.8349C129.053 11.7856 128.976 11.7724 128.848 11.787C128.687 11.8052 128.663 11.7966 128.588 11.6939C128.542 11.6318 128.481 11.5809 128.451 11.5809C128.406 11.5809 128.406 11.5721 128.452 11.5256C128.54 11.4374 128.491 11.2299 128.372 11.1843C128.317 11.1634 128.249 11.1554 128.221 11.1663C128.15 11.1937 128.155 11.3064 128.227 11.3064C128.293 11.3064 128.296 11.3136 128.262 11.4012C128.226 11.4969 128.141 11.4751 128.046 11.3453C127.983 11.2593 127.948 11.2394 127.918 11.2718C127.889 11.3032 127.891 11.3215 127.926 11.3342C127.952 11.344 127.974 11.3853 127.974 11.4257C127.974 11.4662 128.021 11.5425 128.077 11.5954C128.16 11.6723 128.175 11.7149 128.157 11.8086C128.138 11.9033 128.148 11.9295 128.211 11.9459C128.321 11.9749 128.344 11.9634 128.35 11.875C128.353 11.8319 128.358 11.7739 128.36 11.7462C128.363 11.7073 128.382 11.7058 128.445 11.7395C128.519 11.7796 128.521 11.7888 128.464 11.8518C128.43 11.8895 128.403 11.9669 128.403 12.0238C128.403 12.0887 128.372 12.1435 128.321 12.1713C128.256 12.2061 128.243 12.2399 128.261 12.3295C128.281 12.4303 128.273 12.4436 128.19 12.4436C128.138 12.4436 128.084 12.4247 128.07 12.4017C128.056 12.3786 128.022 12.3685 127.994 12.3791C127.967 12.3897 127.906 12.3715 127.859 12.3386C127.757 12.2667 127.733 12.2847 127.726 12.4388C127.723 12.5032 127.707 12.5688 127.691 12.5847C127.642 12.6343 127.66 12.7479 127.721 12.7715C127.803 12.803 127.794 12.8889 127.7 12.9745C127.622 13.0453 127.62 13.045 127.598 12.9622C127.586 12.9155 127.504 12.8345 127.415 12.7822C127.179 12.6429 127.094 12.5387 127.156 12.4639C127.183 12.4311 127.224 12.4043 127.249 12.4042C127.273 12.4042 127.332 12.3229 127.38 12.2236L127.467 12.0431L127.37 12.0677C127.316 12.0812 127.277 12.0782 127.283 12.061C127.299 12.0096 127.009 11.7377 126.937 11.7377C126.84 11.7377 126.611 11.9271 126.611 12.0077C126.611 12.1114 126.566 12.1373 126.514 12.0645C126.442 11.9664 126.368 12.0378 126.398 12.1755C126.419 12.2723 126.41 12.2958 126.342 12.3135C126.298 12.3252 126.224 12.3956 126.178 12.4698C126.097 12.6021 126.094 12.6032 126.039 12.5242C126.009 12.4798 125.94 12.4436 125.888 12.4436C125.813 12.4436 125.793 12.4234 125.793 12.3455C125.793 12.2654 125.812 12.2475 125.897 12.2475C125.954 12.2475 126.033 12.2183 126.072 12.1826C126.164 12.099 126.17 11.835 126.082 11.8006C125.995 11.7673 125.942 11.8099 125.967 11.8913C125.995 11.9795 125.915 11.9838 125.644 11.9089C125.46 11.8579 125.389 11.8586 125.006 11.9153C124.65 11.9681 124.518 11.9714 124.243 11.9346C124.06 11.91 123.865 11.8666 123.81 11.8381C123.754 11.8095 123.61 11.7551 123.49 11.717C123.273 11.6486 123.268 11.6488 123.089 11.7361C122.868 11.844 122.751 11.9933 122.626 12.3259C122.574 12.4661 122.481 12.6924 122.421 12.8288L122.311 13.0768L122.362 13.7307C122.389 14.0904 122.425 14.517 122.44 14.6787C122.457 14.8523 122.454 14.9929 122.432 15.0218C122.387 15.0804 121.735 15.0906 121.63 15.0344C121.567 15.0002 121.569 14.9527 121.671 14.2403C121.778 13.4968 121.779 13.4721 121.727 12.9141C121.697 12.6014 121.682 12.2877 121.693 12.2169C121.704 12.1461 121.681 11.9256 121.643 11.7268C121.587 11.4395 121.551 11.3431 121.466 11.2574C121.333 11.1239 121.123 11.1067 121.091 11.2268C121.08 11.2692 121.043 11.3017 121.007 11.299C120.826 11.2848 120.8 11.3029 120.827 11.424C120.851 11.535 120.845 11.5417 120.732 11.5417C120.644 11.5417 120.599 11.5171 120.57 11.4534C120.531 11.37 120.221 11.1495 120.143 11.1495C120.088 11.1495 120.098 11.4 120.155 11.4603C120.194 11.5019 120.194 11.5159 120.155 11.5302C120.128 11.5401 120.106 11.5909 120.106 11.643C120.106 11.6951 120.085 11.7377 120.06 11.7377C120.035 11.7377 119.964 11.7951 119.902 11.8652L119.79 11.9926L119.813 11.875C119.86 11.6357 119.862 11.6399 119.697 11.6356C119.611 11.6334 119.485 11.6179 119.415 11.6014C119.316 11.5778 119.284 11.585 119.265 11.6349C119.252 11.6699 119.209 11.6985 119.169 11.6985C119.13 11.6985 119.086 11.7177 119.072 11.7412C119.053 11.7716 119.033 11.7712 119.002 11.7395C118.969 11.7066 118.971 11.6867 119.011 11.6621C119.044 11.6412 119.052 11.609 119.031 11.5755C119.013 11.5461 119.003 11.4828 119.01 11.4347C119.016 11.3824 118.981 11.3078 118.922 11.2485C118.856 11.1811 118.842 11.1495 118.881 11.1495C118.912 11.1495 118.937 11.1143 118.937 11.0711C118.937 10.9767 118.968 10.9724 119.057 11.0542C119.114 11.1061 119.138 11.1077 119.207 11.0641C119.252 11.0357 119.298 10.9851 119.308 10.9516C119.319 10.9181 119.389 10.8684 119.464 10.8411C119.602 10.7908 119.633 10.7435 119.558 10.6972C119.499 10.6602 119.288 10.7569 119.288 10.821C119.288 10.8507 119.271 10.8751 119.249 10.8751C119.228 10.8751 119.21 10.8528 119.21 10.8257C119.21 10.7985 119.173 10.7528 119.127 10.724C119.056 10.6795 119.022 10.6819 118.893 10.7402L118.743 10.8086V11.0947C118.743 11.3165 118.757 11.3889 118.805 11.4161C118.873 11.4543 118.867 11.585 118.796 11.6087C118.772 11.6167 118.743 11.5859 118.731 11.5402C118.715 11.48 118.685 11.4606 118.619 11.47C118.508 11.4858 118.499 11.589 118.606 11.6183C118.651 11.6307 118.684 11.673 118.684 11.7181C118.684 11.7744 118.709 11.7957 118.773 11.7934L118.861 11.7902L118.782 11.8743C118.662 12.0035 118.68 12.0659 118.83 12.0362C118.9 12.0224 118.977 11.9842 119.002 11.9511C119.053 11.881 119.266 11.9147 119.231 11.9875C119.22 12.0119 119.2 12.0617 119.187 12.0983C119.174 12.1348 119.126 12.1705 119.08 12.1777C118.979 12.1935 118.713 12.1402 118.609 12.0833C118.55 12.051 118.523 12.0574 118.483 12.1131C118.454 12.1521 118.431 12.1697 118.431 12.1522C118.431 12.1346 118.405 12.1422 118.373 12.1691C118.328 12.2063 118.301 12.2071 118.26 12.1723C118.222 12.1409 118.146 12.1369 118.016 12.1594L117.827 12.1922L117.834 12.3748C117.839 12.5452 117.835 12.5542 117.765 12.5106C117.708 12.4744 117.696 12.4358 117.714 12.339L117.738 12.2141L117.481 12.2156L117.224 12.2171L117.219 12.4774C117.217 12.6205 117.207 12.7068 117.197 12.669C117.175 12.585 117.084 12.5788 117.054 12.6592C117.041 12.6916 116.994 12.7181 116.948 12.7181C116.883 12.7181 116.869 12.7001 116.884 12.6397C116.905 12.5591 116.837 12.366 116.787 12.3655C116.745 12.365 116.686 12.4956 116.705 12.5469C116.723 12.5968 116.53 12.6762 116.454 12.65C116.421 12.6385 116.413 12.5862 116.429 12.4845C116.444 12.3931 116.436 12.3254 116.41 12.309C116.386 12.2942 116.367 12.2401 116.367 12.1887C116.367 12.1373 116.348 12.0838 116.325 12.0696C116.254 12.0254 116.329 11.8037 116.464 11.6593C116.576 11.5391 116.591 11.4978 116.585 11.326C116.578 11.0909 116.539 11.0086 116.464 11.0714C116.425 11.104 116.403 11.0983 116.375 11.0482C116.355 11.0116 116.318 10.994 116.294 11.0091C116.229 11.0494 116.24 11.1888 116.308 11.1888C116.383 11.1888 116.383 11.2562 116.308 11.3315C116.274 11.3666 116.219 11.3802 116.172 11.3653C116.074 11.334 116.068 11.4135 116.162 11.4912C116.224 11.5417 116.217 11.545 116.095 11.5241C115.912 11.4928 115.87 11.443 115.951 11.3533C115.987 11.3133 116.016 11.2461 116.016 11.2038C116.016 11.1615 116.052 11.0305 116.096 10.9128C116.14 10.795 116.185 10.6677 116.198 10.63C116.21 10.5922 116.242 10.5614 116.269 10.5614C116.375 10.5614 116.409 10.4604 116.351 10.3216C116.299 10.1993 116.301 10.1822 116.373 10.1043C116.44 10.0325 116.444 10.0063 116.404 9.93058C116.361 9.84901 116.352 9.84701 116.309 9.90728C116.245 9.99504 116.184 9.99042 116.133 9.89391C116.087 9.80898 116.11 9.73788 116.182 9.73788C116.242 9.73788 116.445 9.5386 116.445 9.47912C116.445 9.45269 116.516 9.41897 116.603 9.40418C116.753 9.37862 116.76 9.37172 116.736 9.26349C116.714 9.16087 116.721 9.14969 116.812 9.14969C116.883 9.14969 116.912 9.12895 116.912 9.07734C116.912 8.98386 116.813 8.89802 116.629 8.83281C116.5 8.78682 116.475 8.7885 116.417 8.84728C116.365 8.89928 116.361 8.92422 116.398 8.96119C116.455 9.01868 116.459 9.07127 116.406 9.07127C116.384 9.07127 116.367 9.0448 116.367 9.01245C116.367 8.94296 116.378 8.94469 116.222 8.98951C116.054 9.03817 116.004 8.97574 116.067 8.79501C116.093 8.72051 116.127 8.63894 116.143 8.61381C116.184 8.55083 116.109 8.36884 116.031 8.33865C115.996 8.325 115.932 8.33591 115.889 8.36285C115.802 8.41755 115.745 8.36822 115.744 8.23678C115.743 8.14533 115.653 8.11302 115.552 8.16772C115.417 8.2405 115.315 8.15702 115.315 7.97346C115.315 7.78751 115.441 7.6436 115.574 7.67729C115.786 7.73077 115.854 7.58368 115.662 7.48734C115.55 7.43115 115.535 7.43244 115.436 7.50577C115.319 7.59263 115.241 7.58031 115.169 7.46393C115.128 7.39919 115.133 7.38099 115.199 7.34551C115.257 7.31406 115.272 7.27688 115.256 7.19728C115.236 7.09227 115.236 7.09215 115.276 7.18591C115.308 7.25955 115.328 7.27026 115.364 7.23383C115.441 7.15615 115.345 7.05082 115.203 7.05757C115.073 7.06376 115.07 7.05953 115.106 6.92436C115.125 6.85193 115.157 6.83613 115.282 6.83613C115.456 6.83613 115.524 6.74641 115.411 6.66379C115.329 6.60328 115.341 6.59548 115.656 6.49898C115.892 6.42663 115.899 6.42063 115.892 6.29833C115.881 6.12893 115.922 6.09842 116.02 6.2041C116.085 6.27405 116.126 6.2864 116.224 6.26527C116.292 6.25068 116.354 6.23276 116.362 6.22543C116.397 6.19363 116.321 6.08191 116.252 6.06391C116.153 6.03776 116.124 5.95157 116.194 5.89279C116.225 5.86687 116.261 5.77875 116.274 5.69707C116.297 5.55191 116.301 5.54897 116.439 5.56826C116.682 5.60218 116.708 5.61826 116.623 5.68174C116.581 5.71233 116.555 5.74287 116.564 5.74962C116.72 5.86424 116.803 5.89361 116.87 5.85742C116.974 5.80122 116.988 5.73597 116.922 5.60539C116.875 5.51195 116.874 5.47591 116.915 5.39874C116.953 5.3269 116.954 5.29451 116.919 5.25899C116.894 5.23354 116.873 5.18095 116.873 5.14213C116.873 5.05441 116.746 5.0479 116.677 5.13202C116.642 5.17397 116.615 5.18001 116.586 5.15162C116.529 5.09398 116.484 5.10092 116.484 5.16727C116.484 5.23099 116.413 5.28769 116.377 5.25216C116.365 5.23938 116.381 5.19789 116.415 5.16001C116.5 5.06273 116.464 4.66946 116.371 4.68875C116.328 4.69766 116.312 4.73554 116.319 4.80828C116.327 4.88278 116.313 4.9147 116.271 4.9147C116.238 4.9147 116.211 4.89246 116.211 4.86533C116.211 4.83815 116.175 4.79314 116.13 4.76526C116.05 4.71479 116.05 4.71428 116.147 4.63715C116.201 4.59456 116.256 4.52673 116.268 4.48638C116.284 4.43661 116.316 4.41948 116.368 4.43312C116.41 4.4443 116.445 4.43371 116.445 4.40952C116.445 4.38434 116.513 4.36572 116.605 4.36572C116.743 4.36572 116.759 4.37403 116.718 4.42403C116.639 4.52002 116.7 4.601 116.852 4.601C116.973 4.601 116.99 4.58884 116.99 4.50434C116.99 4.44783 116.958 4.39026 116.912 4.36572C116.869 4.34262 116.834 4.28906 116.834 4.24671C116.834 4.19581 116.808 4.16965 116.756 4.16965C116.675 4.16965 116.649 4.07488 116.719 4.03143C116.741 4.01755 116.749 3.97202 116.735 3.93022C116.712 3.85685 116.79 3.62067 116.837 3.62067C116.87 3.62067 116.951 3.80799 116.951 3.8841C116.951 3.96382 117.062 4.09123 117.132 4.09123C117.201 4.09123 117.2 3.99563 117.13 3.93755C117.056 3.8754 117.015 3.6969 117.065 3.6473C117.092 3.6195 117.128 3.62773 117.178 3.67357C117.243 3.73286 117.257 3.73368 117.3 3.68094C117.34 3.63244 117.338 3.61718 117.286 3.59734C117.208 3.56711 117.204 3.50303 117.28 3.50303C117.342 3.50303 117.405 3.26227 117.362 3.19188C117.347 3.1689 117.302 3.15012 117.26 3.15012C117.218 3.15012 117.185 3.12337 117.185 3.08953C117.185 3.04197 117.213 3.03424 117.316 3.05365C117.428 3.07487 117.45 3.06624 117.469 2.99268C117.492 2.9017 117.428 2.71878 117.373 2.71878C117.355 2.71878 117.36 2.68584 117.385 2.64553C117.461 2.52279 117.399 2.43362 117.259 2.4646C117.165 2.48546 117.119 2.47205 117.045 2.40205C116.944 2.30657 116.922 2.19215 116.997 2.14607C117.027 2.12701 117.034 2.13909 117.017 2.18297C116.979 2.28316 117.086 2.26265 117.138 2.15999C117.162 2.11145 117.187 2.02765 117.193 1.97373C117.203 1.88778 117.225 1.87452 117.373 1.86617C117.563 1.85547 117.752 1.73096 117.792 1.59141C117.822 1.48232 117.831 1.48232 117.99 1.59141C118.083 1.65517 118.119 1.70955 118.119 1.78747C118.119 1.85817 118.14 1.89531 118.179 1.89531C118.228 1.89531 118.231 1.91048 118.195 1.97867C118.12 2.11886 118.205 2.24822 118.372 2.24822C118.447 2.24822 118.509 2.23058 118.509 2.20901C118.509 2.18744 118.533 2.1698 118.563 2.1698C118.593 2.1698 118.659 2.1345 118.709 2.09141C118.798 2.01553 118.799 2.01114 118.728 1.95605C118.633 1.88197 118.671 1.78723 118.809 1.75332C118.941 1.72104 119.098 1.57384 119.062 1.51804C119.047 1.49592 119.004 1.46647 118.967 1.45251C118.862 1.41361 118.886 1.32919 119.015 1.2799C119.132 1.23547 119.177 1.10442 119.093 1.05223C119.072 1.0389 119.054 0.976116 119.054 0.912669C119.054 0.776757 119.166 0.749897 119.199 0.877809C119.232 1.00192 119.382 0.963176 119.398 0.826754C119.407 0.746054 119.431 0.718762 119.495 0.71833C119.609 0.717507 119.694 0.659589 119.661 0.605672C119.646 0.581673 119.618 0.562067 119.597 0.562067C119.534 0.562067 119.405 0.408391 119.408 0.336593C119.41 0.281498 119.418 0.285146 119.452 0.355141C119.487 0.428547 119.521 0.440703 119.667 0.432115C119.8 0.424273 119.848 0.438115 119.877 0.491993C119.929 0.590731 120.026 0.579085 120.15 0.458937C120.28 0.333926 120.371 0.357258 120.404 0.523952C120.436 0.68445 120.571 0.671745 120.624 0.503247C120.645 0.438546 120.697 0.345926 120.741 0.297419C120.817 0.212837 120.824 0.212053 120.902 0.277813C120.946 0.315536 120.992 0.359964 121.005 0.37659ZM121.314 0.24605C121.314 0.266362 121.296 0.293851 121.275 0.307183C121.253 0.320515 121.236 0.303889 121.236 0.270284C121.236 0.236678 121.253 0.209151 121.275 0.209151C121.296 0.209151 121.314 0.225738 121.314 0.24605ZM120.846 0.436586C120.846 0.475406 120.824 0.529442 120.797 0.556655C120.758 0.5963 120.762 0.613945 120.818 0.645355C120.899 0.691744 120.871 0.758131 120.77 0.758131C120.731 0.758131 120.689 0.782953 120.678 0.813265C120.65 0.886083 120.788 1.00925 120.864 0.979802C120.947 0.947608 120.939 1.00686 120.849 1.08921C120.807 1.12701 120.755 1.14657 120.733 1.13269C120.668 1.09258 120.535 1.18469 120.535 1.26927C120.535 1.3664 120.596 1.36652 120.784 1.26974C120.982 1.16806 121.074 1.08093 121.159 0.911924C121.226 0.779855 121.227 0.765974 121.165 0.675627C121.095 0.573438 120.893 0.366002 120.864 0.366002C120.854 0.366002 120.846 0.397765 120.846 0.436586ZM119.047 0.530971C119.053 0.564224 119.029 0.602887 118.992 0.616886C118.906 0.650374 118.886 0.625474 118.918 0.523638C118.947 0.431449 119.028 0.436076 119.047 0.530971ZM119.383 0.519325C119.414 0.569988 119.365 0.683587 119.323 0.65755C119.277 0.628689 119.278 0.483641 119.325 0.483641C119.345 0.483641 119.371 0.499679 119.383 0.519325ZM121.282 0.800285C121.29 0.82346 121.313 0.842439 121.333 0.842439C121.353 0.842439 121.376 0.82346 121.384 0.800285C121.392 0.77711 121.369 0.758131 121.333 0.758131C121.297 0.758131 121.274 0.77711 121.282 0.800285ZM123.321 0.839184C123.359 0.900905 123.317 0.925688 123.225 0.896121C123.18 0.881809 123.153 0.853732 123.165 0.833733C123.196 0.784404 123.29 0.787698 123.321 0.839184ZM122.121 1.03199C122.088 1.07925 122.03 1.11093 121.99 1.10395C121.948 1.0967 121.921 1.11211 121.927 1.14046C121.939 1.20273 121.888 1.20359 121.827 1.14214C121.791 1.10517 121.766 1.10913 121.715 1.1603C121.655 1.22147 121.655 1.23488 121.724 1.36374C121.797 1.49973 121.797 1.50255 121.721 1.56117C121.646 1.61948 121.647 1.62254 121.754 1.71877C121.894 1.84421 122.014 1.84876 122.016 1.72865C122.017 1.6801 122.043 1.60615 122.074 1.56431C122.106 1.52243 122.132 1.40969 122.132 1.31374C122.132 1.19308 122.153 1.12367 122.2 1.08862C122.251 1.0507 122.257 1.0265 122.224 0.992742C122.19 0.958784 122.165 0.968508 122.121 1.03199ZM122.618 1.03262C122.59 1.07889 122.627 1.15026 122.679 1.15026C122.699 1.15026 122.716 1.11497 122.716 1.07183C122.716 0.989134 122.659 0.966313 122.618 1.03262ZM122.317 1.08728C122.245 1.14167 122.22 1.38554 122.285 1.38554C122.305 1.38554 122.371 1.34248 122.431 1.2899C122.52 1.21253 122.533 1.18108 122.499 1.12556C122.443 1.03415 122.398 1.02474 122.317 1.08728ZM119.362 1.10124C119.359 1.1174 119.36 1.1694 119.364 1.21673C119.373 1.33044 119.3 1.46396 119.228 1.46396C119.159 1.46396 119.157 1.49898 119.22 1.70085C119.269 1.86041 119.349 1.89338 119.406 1.77767C119.43 1.72822 119.493 1.50302 119.535 1.31805C119.541 1.2917 119.558 1.25786 119.573 1.2428C119.608 1.20708 119.486 1.07183 119.418 1.07183C119.39 1.07183 119.364 1.08509 119.362 1.10124ZM122.054 1.35095C122.054 1.37252 122.036 1.37926 122.015 1.36593C121.993 1.3526 121.976 1.32405 121.976 1.30248C121.976 1.28092 121.993 1.27417 122.015 1.28751C122.036 1.30084 122.054 1.32938 122.054 1.35095ZM122.659 1.46126C122.63 1.5082 122.703 1.55466 122.755 1.52239C122.799 1.49529 122.77 1.42475 122.716 1.42475C122.697 1.42475 122.671 1.44118 122.659 1.46126ZM122.545 1.73053C122.535 1.74775 122.542 1.78727 122.561 1.81841C122.587 1.86123 122.607 1.86397 122.641 1.82978C122.665 1.80488 122.674 1.76531 122.659 1.74187C122.629 1.69175 122.573 1.68618 122.545 1.73053ZM117.72 1.8659C117.665 1.91444 117.576 1.98942 117.521 2.03255C117.391 2.13564 117.394 2.1698 117.533 2.1698C117.596 2.1698 117.659 2.18858 117.673 2.21156C117.69 2.23889 117.724 2.23003 117.773 2.18587C117.814 2.14878 117.847 2.13776 117.847 2.1614C117.847 2.18505 117.829 2.21548 117.807 2.22901C117.765 2.25548 117.792 2.32665 117.844 2.32665C117.862 2.32665 117.898 2.27496 117.924 2.21183C117.95 2.14866 117.996 2.08745 118.026 2.0758C118.117 2.04035 118.087 1.97373 117.979 1.97373C117.89 1.97373 117.88 1.9615 117.902 1.8757C117.933 1.74971 117.855 1.74551 117.72 1.8659ZM123.824 1.89907C123.807 1.92652 123.825 1.96863 123.866 1.9993C123.97 2.07529 124.008 2.0647 123.994 1.96432C123.98 1.86727 123.869 1.82476 123.824 1.89907ZM118.578 1.9811C118.57 2.00671 118.542 2.03463 118.516 2.04318C118.488 2.05274 118.479 2.03479 118.494 1.99663C118.521 1.92534 118.601 1.91052 118.578 1.9811ZM123.245 2.09262C123.277 2.30445 123.306 2.34241 123.413 2.3083C123.545 2.26606 123.522 2.18826 123.327 2.0142L123.219 1.91742L123.245 2.09262ZM122.192 2.01024C122.165 2.05357 122.226 2.10039 122.262 2.06416C122.299 2.02686 122.293 1.97373 122.251 1.97373C122.23 1.97373 122.204 1.99016 122.192 2.01024ZM118.937 2.04753C118.853 2.06255 118.801 2.09411 118.801 2.13058C118.801 2.1854 118.867 2.19419 119.123 2.17368C119.149 2.17156 119.171 2.1345 119.171 2.09137C119.171 2.00969 119.161 2.00777 118.937 2.04753ZM121.186 2.24822C121.133 2.38394 121.109 2.40507 121.005 2.40507C120.927 2.40507 120.885 2.38555 120.885 2.34857C120.885 2.26504 120.812 2.23454 120.745 2.29026C120.705 2.32406 120.699 2.35151 120.728 2.3799C120.786 2.43872 120.778 2.48464 120.713 2.45966C120.682 2.44789 120.623 2.45691 120.58 2.47973C120.499 2.5235 120.506 2.63047 120.607 2.88543C120.653 3.00252 120.746 3.0286 120.782 2.93445C120.795 2.9021 120.823 2.87563 120.845 2.87563C120.867 2.87563 120.885 2.9021 120.885 2.93445C120.885 3.01044 121.024 3.15012 121.099 3.15012C121.175 3.15012 121.174 3.05597 121.098 2.99178C121.064 2.96413 121.046 2.92002 121.056 2.89374C121.066 2.86747 121.055 2.82661 121.031 2.80289C121 2.77163 121.006 2.73968 121.054 2.68615C121.092 2.64459 121.11 2.58439 121.096 2.548C121.054 2.43833 121.137 2.47695 121.21 2.60114C121.334 2.81246 121.459 2.7316 121.452 2.44429C121.447 2.25034 121.378 2.09137 121.299 2.09137C121.27 2.09137 121.22 2.16195 121.186 2.24822ZM123.924 2.22811C123.882 2.30681 123.881 2.35641 123.919 2.48507C123.945 2.57275 123.991 2.65388 124.021 2.66533C124.062 2.68148 124.065 2.70678 124.033 2.77838C123.96 2.93911 124.014 2.99327 124.248 2.99327C124.5 2.99327 124.616 2.90606 124.489 2.81257C124.448 2.78254 124.399 2.75799 124.38 2.75799C124.362 2.75799 124.352 2.71419 124.359 2.66066C124.367 2.5933 124.32 2.49679 124.203 2.34696C124.111 2.22795 124.022 2.13058 124.005 2.13058C123.989 2.13058 123.952 2.17446 123.924 2.22811ZM122.328 2.22689C122.269 2.29837 122.307 2.36586 122.406 2.36586C122.461 2.36586 122.482 2.33872 122.482 2.26783C122.482 2.15854 122.402 2.13721 122.328 2.22689ZM122.624 2.19701C122.58 2.24116 122.597 2.28743 122.657 2.28743C122.689 2.28743 122.716 2.27085 122.716 2.25054C122.716 2.20109 122.655 2.16568 122.624 2.19701ZM124.896 2.22956C124.869 2.26242 124.839 2.28124 124.829 2.2714C124.802 2.24418 124.857 2.1698 124.904 2.1698C124.93 2.1698 124.927 2.1923 124.896 2.22956ZM119.157 2.26783C119.169 2.30018 119.195 2.32665 119.214 2.32665C119.233 2.32665 119.249 2.30018 119.249 2.26783C119.249 2.23548 119.223 2.20901 119.192 2.20901C119.157 2.20901 119.143 2.23199 119.157 2.26783ZM117.397 2.29861C117.36 2.39468 117.42 2.47036 117.467 2.38672C117.492 2.34194 117.49 2.30488 117.463 2.27708C117.433 2.24724 117.414 2.25348 117.397 2.29861ZM124.722 2.32665C124.709 2.34821 124.68 2.36586 124.659 2.36586C124.637 2.36586 124.631 2.34821 124.644 2.32665C124.657 2.30508 124.685 2.28743 124.707 2.28743C124.728 2.28743 124.735 2.30508 124.722 2.32665ZM118.566 2.36849C118.53 2.42688 118.572 2.4586 118.646 2.42982C118.681 2.41652 118.698 2.38786 118.684 2.36613C118.653 2.31473 118.598 2.31579 118.566 2.36849ZM118.997 2.36425C118.983 2.387 119 2.41652 119.034 2.42982C119.12 2.46291 119.146 2.42652 119.078 2.36955C119.04 2.33747 119.014 2.33582 118.997 2.36425ZM120.116 2.47024C120.04 2.50095 120.058 2.58969 120.145 2.61251C120.261 2.6431 120.239 2.74466 120.106 2.79132C119.977 2.83669 119.946 2.95405 120.064 2.95405C120.134 2.95405 120.311 3.12769 120.351 3.2369C120.364 3.27227 120.401 3.25729 120.473 3.18694C120.572 3.09083 120.574 3.0815 120.517 2.97127C120.484 2.90786 120.457 2.78163 120.457 2.69074C120.457 2.56765 120.437 2.5151 120.381 2.48487C120.302 2.44244 120.198 2.43668 120.116 2.47024ZM125.07 2.48691C125.03 2.55232 125.12 2.62729 125.174 2.57318C125.219 2.52793 125.191 2.44429 125.131 2.44429C125.112 2.44429 125.085 2.46346 125.07 2.48691ZM118.49 2.60114C118.503 2.6227 118.53 2.64035 118.55 2.64035C118.57 2.64035 118.587 2.6227 118.587 2.60114C118.587 2.57957 118.56 2.56192 118.526 2.56192C118.493 2.56192 118.476 2.57957 118.49 2.60114ZM118.911 2.70584C118.931 2.90292 119.035 2.91425 119.035 2.71933C119.035 2.61925 119.016 2.57898 118.965 2.5691C118.906 2.55769 118.898 2.57839 118.911 2.70584ZM118.68 2.65796C118.654 2.7256 118.733 2.8472 118.782 2.81634C118.819 2.79336 118.787 2.64811 118.738 2.61765C118.719 2.60584 118.693 2.62396 118.68 2.65796ZM126.65 2.64035C126.65 2.66192 126.642 2.67956 126.633 2.67956C126.623 2.67956 126.605 2.66192 126.591 2.64035C126.578 2.61878 126.586 2.60114 126.609 2.60114C126.631 2.60114 126.65 2.61878 126.65 2.64035ZM127.21 2.81006C127.139 2.85002 127.056 2.78701 127.095 2.72301C127.113 2.69388 127.144 2.69552 127.196 2.72838C127.262 2.76991 127.264 2.77975 127.21 2.81006ZM117.307 2.7776C117.307 2.79806 117.289 2.82116 117.266 2.82889C117.242 2.83661 117.224 2.81355 117.224 2.7776C117.224 2.74164 117.242 2.71858 117.266 2.7263C117.289 2.73403 117.307 2.75713 117.307 2.7776ZM122.17 2.91484C122.128 2.95797 122.093 3.02919 122.093 3.07306C122.093 3.11698 122.067 3.19212 122.036 3.24011C121.999 3.29646 121.991 3.34748 122.014 3.38422C122.044 3.43316 122.059 3.43194 122.121 3.37551C122.165 3.33532 122.226 3.31873 122.279 3.33265C122.381 3.35948 122.395 3.28376 122.309 3.16741C122.261 3.10114 122.261 3.07973 122.311 3.00197C122.412 2.84485 122.306 2.77881 122.17 2.91484ZM121.976 2.91484C121.976 2.93641 121.994 2.95405 122.017 2.95405C122.04 2.95405 122.047 2.93641 122.034 2.91484C122.021 2.89327 122.002 2.87563 121.993 2.87563C121.983 2.87563 121.976 2.89327 121.976 2.91484ZM126.26 2.91484C126.26 2.93641 126.253 2.95405 126.243 2.95405C126.234 2.95405 126.215 2.93641 126.202 2.91484C126.189 2.89327 126.196 2.87563 126.219 2.87563C126.242 2.87563 126.26 2.89327 126.26 2.91484ZM118.469 3.13381C118.423 3.25427 118.441 3.29003 118.58 3.36104C118.72 3.43261 119.118 3.40073 119.151 3.31536C119.163 3.28195 119.157 3.23795 119.137 3.21752C119.098 3.17808 118.847 3.19576 118.733 3.24599C118.678 3.27019 118.665 3.25682 118.665 3.17812C118.665 3.09663 118.603 3.03248 118.524 3.03248C118.515 3.03248 118.49 3.07808 118.469 3.13381ZM120.007 3.0751C119.973 3.13047 120.048 3.20607 120.103 3.17184C120.126 3.15733 120.145 3.12008 120.145 3.08899C120.145 3.02295 120.045 3.01291 120.007 3.0751ZM122.614 3.09451C122.627 3.12863 122.638 3.16392 122.638 3.17294C122.638 3.18196 122.655 3.18933 122.677 3.18933C122.698 3.18933 122.716 3.15404 122.716 3.11091C122.716 3.06503 122.69 3.03248 122.653 3.03248C122.612 3.03248 122.599 3.05381 122.614 3.09451ZM125.546 3.25458C125.532 3.26901 125.52 3.31316 125.52 3.35273C125.52 3.40328 125.549 3.42461 125.618 3.42461C125.671 3.42461 125.715 3.40971 125.715 3.39147C125.715 3.33901 125.575 3.22556 125.546 3.25458ZM122.524 3.35508C122.488 3.44845 122.558 3.54225 122.665 3.54225C122.745 3.54225 122.724 3.3703 122.637 3.31548C122.568 3.27207 122.554 3.27693 122.524 3.35508ZM127.105 3.29485C127.093 3.31434 127.098 3.35344 127.115 3.38167C127.132 3.40986 127.156 3.417 127.168 3.39751C127.18 3.37802 127.176 3.33893 127.159 3.31069C127.141 3.2825 127.117 3.27536 127.105 3.29485ZM117.419 3.42273C117.366 3.55174 117.392 3.62832 117.478 3.59515C117.54 3.5713 117.557 3.36465 117.501 3.3294C117.482 3.3176 117.445 3.35963 117.419 3.42273ZM120.186 3.40088C120.166 3.45253 120.129 3.50186 120.103 3.51045C120.02 3.5386 120.102 3.70522 120.193 3.69157C120.297 3.67608 120.408 3.38932 120.33 3.33956C120.252 3.28913 120.223 3.30113 120.186 3.40088ZM120.535 3.44421C120.535 3.47657 120.561 3.50303 120.593 3.50303C120.625 3.50303 120.651 3.47657 120.651 3.44421C120.651 3.41186 120.625 3.3854 120.593 3.3854C120.561 3.3854 120.535 3.41186 120.535 3.44421ZM123.849 3.45704C123.82 3.51103 123.829 3.54397 123.883 3.59075C123.949 3.64804 123.957 3.64679 123.975 3.57417C124.017 3.41245 123.92 3.32262 123.849 3.45704ZM122.141 3.45057C122.114 3.46147 122.093 3.48774 122.093 3.50903C122.093 3.56421 122.259 3.53248 122.278 3.47362C122.294 3.42433 122.232 3.41382 122.141 3.45057ZM124.118 3.50303C124.118 3.5246 124.137 3.54225 124.159 3.54225C124.182 3.54225 124.19 3.5246 124.176 3.50303C124.163 3.48147 124.145 3.46382 124.135 3.46382C124.126 3.46382 124.118 3.48147 124.118 3.50303ZM119.171 3.56444C119.171 3.64871 119.243 3.77752 119.291 3.77752C119.365 3.77752 119.375 3.65632 119.306 3.58001C119.223 3.48719 119.171 3.48127 119.171 3.56444ZM119.428 3.70541C119.352 3.81478 119.419 3.85909 119.514 3.76274C119.559 3.71718 119.565 3.68777 119.534 3.65687C119.504 3.62593 119.474 3.63942 119.428 3.70541ZM122.677 3.69459C122.677 3.75098 122.695 3.76811 122.737 3.75184C122.803 3.72616 122.795 3.65385 122.723 3.62965C122.697 3.62103 122.677 3.64993 122.677 3.69459ZM125.232 3.68302C125.219 3.71733 125.219 3.76231 125.232 3.78298C125.261 3.83152 125.364 3.74753 125.364 3.67471C125.364 3.60009 125.261 3.60656 125.232 3.68302ZM123.494 3.7389C123.418 3.81599 123.389 3.9908 123.447 4.02688C123.464 4.03719 123.573 4.03382 123.69 4.01939C123.889 3.99508 123.905 3.98527 123.916 3.88179C123.928 3.78462 123.919 3.77368 123.848 3.79619C123.804 3.81039 123.767 3.80603 123.767 3.78646C123.767 3.7669 123.723 3.73066 123.67 3.70596C123.587 3.66808 123.559 3.67322 123.494 3.7389ZM127.663 3.69431C127.663 3.76153 127.548 3.82282 127.47 3.79772C127.357 3.76176 127.371 3.70726 127.497 3.68796C127.556 3.67898 127.617 3.66898 127.633 3.66577C127.649 3.66251 127.663 3.67537 127.663 3.69431ZM117.34 3.73831C117.34 3.75988 117.358 3.77752 117.379 3.77752C117.401 3.77752 117.418 3.75988 117.418 3.73831C117.418 3.71674 117.401 3.6991 117.379 3.6991C117.358 3.6991 117.34 3.71674 117.34 3.73831ZM120.309 3.77035C120.324 3.85238 120.457 3.88297 120.457 3.80458C120.457 3.77317 120.421 3.73796 120.376 3.72635C120.317 3.71063 120.299 3.7218 120.309 3.77035ZM123.165 3.73557C123.14 3.77756 123.24 3.86407 123.274 3.82948C123.289 3.81529 123.3 3.79086 123.3 3.77517C123.3 3.73121 123.188 3.69835 123.165 3.73557ZM119.734 3.78094C119.694 3.84634 119.784 3.92132 119.838 3.8672C119.883 3.82195 119.855 3.73831 119.794 3.73831C119.776 3.73831 119.748 3.75749 119.734 3.78094ZM125.545 3.9939L125.325 4.17405L125.211 4.10578C125.117 4.04994 125.078 4.04582 124.997 4.08315C124.917 4.1195 124.897 4.15683 124.897 4.26686C124.897 4.39336 124.907 4.40493 125.011 4.40493C125.142 4.40493 125.279 4.5517 125.314 4.73075C125.341 4.86737 125.417 4.90246 125.541 4.83588C125.666 4.76847 125.705 4.58068 125.615 4.48073C125.578 4.43905 125.519 4.40352 125.485 4.40183C125.445 4.39983 125.44 4.3918 125.472 4.37897C125.498 4.36807 125.52 4.3336 125.52 4.30231C125.52 4.27102 125.582 4.20898 125.657 4.16444C125.732 4.11993 125.793 4.05758 125.793 4.0259C125.793 3.98433 125.817 3.97594 125.879 3.99582C125.962 4.02217 125.963 4.01947 125.905 3.93198C125.872 3.88175 125.827 3.83462 125.805 3.82721C125.783 3.81984 125.666 3.89485 125.545 3.9939ZM124.807 3.88101C124.776 3.91234 124.811 3.97359 124.86 3.97359C124.881 3.97359 124.897 3.94712 124.897 3.91477C124.897 3.85415 124.851 3.83685 124.807 3.88101ZM125.249 3.91304C125.195 3.97873 125.226 4.05201 125.308 4.05201C125.342 4.05201 125.364 4.01319 125.364 3.95398C125.364 3.84383 125.319 3.82783 125.249 3.91304ZM128.154 3.91799C128.12 4.00563 128.123 4.0128 128.188 4.0128C128.221 4.0128 128.247 3.97794 128.247 3.93438C128.247 3.84089 128.187 3.83034 128.154 3.91799ZM119.843 3.96206C119.746 3.98096 119.722 4.05201 119.814 4.05201C119.846 4.05201 119.872 4.0804 119.872 4.11507C119.872 4.1642 119.896 4.17228 119.979 4.15154C120.131 4.11389 120.16 4.07244 120.086 3.99853C120.022 3.9339 120.003 3.93104 119.843 3.96206ZM122.833 3.98029C122.833 4.00896 122.868 4.09091 122.912 4.16244C122.969 4.25749 123.014 4.28914 123.077 4.28004C123.146 4.27012 123.162 4.24467 123.156 4.15354C123.146 4.01421 123.121 3.98927 122.959 3.955C122.866 3.93532 122.833 3.9421 122.833 3.98029ZM123.923 4.02229C123.848 4.0699 123.781 4.1237 123.773 4.14181C123.766 4.15989 123.717 4.19095 123.665 4.21083C123.539 4.25902 123.503 4.36356 123.59 4.4276C123.628 4.4554 123.648 4.49575 123.634 4.51724C123.598 4.57672 123.674 4.60645 123.788 4.57751C123.865 4.55806 123.886 4.53288 123.871 4.47591C123.86 4.4316 123.874 4.39125 123.907 4.37874C123.937 4.36697 123.962 4.33329 123.962 4.30392C123.962 4.27388 123.986 4.25988 124.018 4.27196C124.102 4.30435 124.165 4.15632 124.119 4.03496C124.098 3.97963 124.076 3.93469 124.07 3.93504C124.064 3.9354 123.998 3.97465 123.923 4.02229ZM118.899 3.99578C118.899 4.00798 118.917 4.05209 118.939 4.09382C118.986 4.18314 119.132 4.19597 119.132 4.11083C119.132 4.07817 119.098 4.05201 119.054 4.05201C119.012 4.05201 118.976 4.03437 118.976 4.0128C118.976 3.99123 118.959 3.97359 118.937 3.97359C118.916 3.97359 118.899 3.98359 118.899 3.99578ZM119.262 4.0346C119.249 4.07009 119.274 4.12817 119.322 4.17338C119.406 4.25251 119.436 4.40493 119.367 4.40493C119.346 4.40493 119.301 4.35086 119.267 4.28478C119.192 4.13891 119.126 4.15162 119.075 4.32133C119.042 4.43187 119.024 4.44509 118.939 4.4234C118.811 4.39117 118.806 4.38454 118.852 4.30255C118.896 4.22251 118.835 4.05201 118.762 4.05201C118.737 4.05201 118.697 4.09534 118.673 4.14828C118.635 4.23271 118.645 4.2638 118.758 4.40034C118.909 4.58127 119.032 5.00348 118.994 5.20735C118.978 5.28922 118.986 5.34765 119.016 5.36576C119.047 5.38537 119.024 5.42952 118.941 5.50528C118.857 5.58293 118.821 5.65202 118.821 5.73597C118.821 5.80189 118.821 5.86902 118.821 5.88522C118.821 5.90141 118.9 5.91616 118.996 5.918C119.127 5.92055 119.171 5.90663 119.171 5.86255C119.171 5.73762 119.301 5.51642 119.412 5.45231C119.547 5.37404 119.539 5.28193 119.398 5.29898C119.345 5.30545 119.279 5.28463 119.253 5.25271C119.214 5.20507 119.221 5.18621 119.295 5.14739C119.345 5.12139 119.392 5.09449 119.4 5.08763C119.408 5.08073 119.342 4.98379 119.254 4.87215C119.078 4.65036 119.063 4.59672 119.153 4.52147C119.201 4.481 119.231 4.4812 119.308 4.52257C119.384 4.56394 119.414 4.56414 119.462 4.52367C119.495 4.49622 119.522 4.44618 119.522 4.41246C119.522 4.37874 119.561 4.30886 119.609 4.25714L119.697 4.16307L119.588 4.06833C119.464 3.96088 119.297 3.94359 119.262 4.0346ZM127.843 4.04409C127.808 4.09997 127.887 4.18173 127.951 4.15699C128.039 4.12299 128.029 4.0128 127.938 4.0128C127.896 4.0128 127.853 4.02688 127.843 4.04409ZM125.949 4.30568C125.949 4.34066 125.972 4.35442 126.007 4.34078C126.039 4.32839 126.055 4.30251 126.044 4.28317C126.01 4.22781 125.949 4.24224 125.949 4.30568ZM118.538 4.51406C118.472 4.65617 118.472 4.66268 118.554 4.77381C118.63 4.87823 118.632 4.89172 118.573 4.93497C118.538 4.96093 118.509 5.01599 118.509 5.05735C118.509 5.14437 118.367 5.28099 118.312 5.24687C118.268 5.21891 118.263 5.11076 118.306 5.11076C118.343 5.11076 118.431 4.87996 118.431 4.78447C118.431 4.74451 118.4 4.71863 118.352 4.71863C118.264 4.71863 118.183 4.87541 118.192 5.02861C118.195 5.0832 118.165 5.14605 118.12 5.17786C117.984 5.27361 118.059 5.49948 118.208 5.44207C118.241 5.42945 118.279 5.43796 118.293 5.46101C118.307 5.48403 118.354 5.50289 118.397 5.50289C118.44 5.50289 118.519 5.55587 118.574 5.62065C118.628 5.68539 118.687 5.72919 118.705 5.71794C118.76 5.68327 118.907 5.2573 118.923 5.08426C118.942 4.87266 118.884 4.71863 118.785 4.71863C118.724 4.71863 118.703 4.6824 118.682 4.54218C118.668 4.44512 118.645 4.36631 118.631 4.36701C118.618 4.36768 118.576 4.43387 118.538 4.51406ZM125.9 4.43195C125.809 4.45599 125.814 4.50865 125.91 4.53394C125.953 4.5452 125.988 4.58402 125.988 4.62021C125.988 4.69703 126.063 4.68201 126.118 4.59417C126.202 4.459 126.097 4.38023 125.9 4.43195ZM122.969 4.48336C122.956 4.50492 122.963 4.52257 122.986 4.52257C123.009 4.52257 123.027 4.50492 123.027 4.48336C123.027 4.46179 123.02 4.44414 123.01 4.44414C123.001 4.44414 122.982 4.46179 122.969 4.48336ZM116.427 4.51986C116.414 4.53994 116.422 4.56743 116.444 4.581C116.466 4.59452 116.484 4.57809 116.484 4.54449C116.484 4.47559 116.46 4.46548 116.427 4.51986ZM124.33 4.56617C124.292 4.62805 124.397 4.68373 124.457 4.6335C124.484 4.61076 124.497 4.57645 124.485 4.55735C124.455 4.50865 124.362 4.51398 124.33 4.56617ZM122.716 4.63864C122.63 4.70546 122.626 4.71667 122.687 4.74001C122.786 4.77836 122.872 4.73275 122.872 4.64142C122.872 4.54304 122.84 4.54245 122.716 4.63864ZM123.011 4.68232C122.89 4.82733 122.885 4.87549 122.988 4.87549C123.038 4.87549 123.066 4.90164 123.066 4.94783C123.066 5.1168 123.385 5.22487 123.493 5.09288C123.556 5.01646 123.507 4.94474 123.412 4.97505C123.348 4.9954 123.339 4.9845 123.356 4.90803C123.41 4.65958 123.402 4.62076 123.296 4.61672C123.24 4.6146 123.176 4.60131 123.154 4.58719C123.131 4.57312 123.067 4.6159 123.011 4.68232ZM122.152 4.70244C122.076 4.81922 122.103 4.87309 122.205 4.80898C122.331 4.72989 122.41 4.84776 122.35 5.02548C122.311 5.1408 122.337 5.16774 122.437 5.11425C122.521 5.06869 122.62 4.82369 122.58 4.75863C122.566 4.73663 122.526 4.71808 122.49 4.71738C122.453 4.71671 122.39 4.69024 122.348 4.65856C122.246 4.58092 122.229 4.58476 122.152 4.70244ZM127.935 4.64021C127.935 4.66178 127.953 4.67942 127.974 4.67942C127.996 4.67942 128.013 4.66178 128.013 4.64021C128.013 4.61864 127.996 4.601 127.974 4.601C127.953 4.601 127.935 4.61864 127.935 4.64021ZM125.949 4.73989C125.949 4.75157 125.984 4.7991 126.027 4.84553C126.086 4.90925 126.116 4.91886 126.15 4.88478C126.184 4.85066 126.182 4.82474 126.145 4.7791C126.098 4.72263 125.949 4.69271 125.949 4.73989ZM127.766 4.74479C127.752 4.75914 127.741 4.78914 127.741 4.81145C127.741 4.836 127.759 4.83368 127.787 4.80557C127.812 4.78004 127.824 4.75004 127.813 4.73891C127.802 4.72777 127.781 4.7304 127.766 4.74479ZM121.859 4.79879C121.827 4.81627 121.765 4.84259 121.723 4.85721C121.649 4.88227 121.65 4.88623 121.742 4.92756C121.877 4.98842 121.899 5.03116 121.873 5.19107C121.858 5.29114 121.869 5.34479 121.914 5.38215C122.01 5.46309 122.105 5.36459 122.078 5.21099C122.008 4.81106 121.97 4.73844 121.859 4.79879ZM125.655 4.82604C125.582 4.88054 125.442 5.08135 125.442 5.133C125.442 5.24217 125.591 5.23083 125.772 5.1079C125.907 5.01599 125.95 4.96328 125.941 4.90066C125.932 4.83902 125.898 4.81396 125.812 4.80643C125.748 4.80082 125.677 4.80965 125.655 4.82604ZM119.52 4.89674C119.484 4.94125 119.482 4.96881 119.514 5.00097C119.571 5.05853 119.682 4.9712 119.652 4.89223C119.624 4.81992 119.583 4.82133 119.52 4.89674ZM121.004 4.93223C120.917 5.02544 120.915 5.03594 120.976 5.10363C121.012 5.14331 121.041 5.19915 121.041 5.22777C121.041 5.26554 121.061 5.26134 121.115 5.21232C121.22 5.11661 121.235 5.01834 121.161 4.91893L121.096 4.83298L121.004 4.93223ZM116.055 4.9147C116.055 4.93627 116.037 4.95391 116.014 4.95391C115.991 4.95391 115.983 4.93627 115.997 4.9147C116.01 4.89313 116.028 4.87549 116.038 4.87549C116.047 4.87549 116.055 4.89313 116.055 4.9147ZM116.966 5.0501C117.02 5.22409 117.077 5.23126 117.061 5.06206C117.053 4.98285 117.025 4.93042 116.985 4.92297C116.931 4.91254 116.928 4.92905 116.966 5.0501ZM122.541 5.1359C122.391 5.25703 122.263 5.37788 122.256 5.40451C122.249 5.43466 122.307 5.46125 122.41 5.47521C122.553 5.49446 122.588 5.48383 122.668 5.39745C122.743 5.31557 122.784 5.30134 122.893 5.31922C122.999 5.33639 123.036 5.3253 123.066 5.26754C123.111 5.1837 123.096 5.16982 122.92 5.13186C122.81 5.1081 122.797 5.09222 122.817 5.00963C122.83 4.9574 122.835 4.91493 122.827 4.91521C122.819 4.91548 122.69 5.01481 122.541 5.1359ZM116.815 5.34604C116.778 5.41647 116.723 5.46368 116.677 5.46368C116.579 5.46368 116.58 5.43145 116.685 5.31914C116.813 5.18162 116.891 5.19766 116.815 5.34604ZM126.438 5.25879C126.402 5.29444 126.413 5.45717 126.452 5.48164C126.486 5.5025 126.611 5.36149 126.611 5.30267C126.611 5.26801 126.465 5.23111 126.438 5.25879ZM126.747 5.30683C126.732 5.33216 126.737 5.37051 126.758 5.39208C126.784 5.41823 126.806 5.41596 126.825 5.38525C126.841 5.35992 126.836 5.32157 126.814 5.3C126.789 5.27385 126.766 5.27612 126.747 5.30683ZM127.081 5.36216C127.049 5.40168 127.048 5.42505 127.078 5.44396C127.123 5.47207 127.234 5.3991 127.234 5.34126C127.234 5.28706 127.132 5.30106 127.081 5.36216ZM123.107 5.40302C123.079 5.43639 123.035 5.46368 123.008 5.46368C122.916 5.46368 122.862 5.56885 122.909 5.65723C122.944 5.72299 123.105 5.77734 123.105 5.72335C123.105 5.71519 123.13 5.6481 123.161 5.57422C123.225 5.41964 123.189 5.30389 123.107 5.40302ZM117.791 5.45925C117.758 5.51403 117.873 5.58865 117.969 5.57453C118.052 5.5623 118.053 5.55854 117.988 5.49309C117.914 5.41886 117.825 5.40364 117.791 5.45925ZM126.073 5.47152C126.02 5.52564 126.011 5.62053 126.06 5.62053C126.112 5.62053 126.224 5.47976 126.196 5.4507C126.158 5.41282 126.126 5.41819 126.073 5.47152ZM121.272 5.56469C121.23 5.61594 121.231 5.63245 121.277 5.66131C121.328 5.69327 121.379 5.63469 121.389 5.5323C121.393 5.48136 121.325 5.50034 121.272 5.56469ZM121.928 5.579C121.848 5.61904 121.755 5.68006 121.721 5.7146C121.687 5.74911 121.634 5.77738 121.605 5.77738C121.575 5.77738 121.537 5.80189 121.52 5.83185C121.503 5.86177 121.455 5.89267 121.414 5.90047C121.275 5.9269 121.308 6.00172 121.471 6.02795C121.644 6.05583 121.67 6.1499 121.505 6.1499C121.448 6.1499 121.411 6.17277 121.411 6.20778C121.411 6.26888 121.51 6.30891 121.754 6.34691C121.835 6.35958 121.933 6.40149 121.972 6.44008C122.071 6.53964 122.274 6.57533 122.303 6.49827C122.316 6.46529 122.31 6.40871 122.291 6.37256C122.272 6.33636 122.255 6.19923 122.253 6.06779C122.25 5.81675 122.178 5.53626 122.112 5.51736C122.091 5.5112 122.008 5.53897 121.928 5.579ZM123.556 5.53712C123.517 5.60061 123.566 5.80107 123.634 5.85789C123.68 5.89694 123.69 5.88255 123.69 5.77009C123.69 5.61641 123.602 5.46297 123.556 5.53712ZM127.234 5.56073C127.181 5.591 127.094 5.60539 127.043 5.59269C126.965 5.57363 126.953 5.58151 126.975 5.63747C126.989 5.6748 127 5.71276 127 5.72178C127 5.7308 127.026 5.73817 127.057 5.73817C127.149 5.73817 127.163 5.80718 127.097 5.93667C127.038 6.05027 127.039 6.06434 127.101 6.13387C127.195 6.23829 127.268 6.22723 127.316 6.10152C127.36 5.98294 127.392 5.50207 127.355 5.50426C127.342 5.50505 127.288 5.53046 127.234 5.56073ZM122.271 5.57681C122.238 5.63057 122.328 5.85581 122.382 5.85581C122.448 5.85581 122.56 5.72684 122.56 5.65104C122.56 5.55618 122.321 5.49485 122.271 5.57681ZM126.27 5.56806C126.243 5.57896 126.221 5.60947 126.221 5.6359C126.221 5.71746 126.316 5.81687 126.364 5.78605C126.389 5.77009 126.422 5.70864 126.437 5.64955C126.459 5.56077 126.451 5.54265 126.391 5.5452C126.351 5.54689 126.297 5.5572 126.27 5.56806ZM117.405 5.64669C117.391 5.66104 117.379 5.71495 117.379 5.76648V5.8602L117.285 5.75017C117.208 5.66061 117.181 5.64947 117.14 5.69025C117.102 5.72735 117.1 5.75778 117.131 5.80765C117.162 5.85597 117.162 5.8942 117.131 5.94298C117.1 5.99325 117.104 6.05379 117.147 6.17559C117.211 6.35958 117.296 6.41526 117.327 6.29401C117.339 6.25009 117.373 6.20465 117.403 6.19308C117.474 6.16539 117.472 6.07403 117.399 6.01266C117.319 5.94568 117.325 5.8849 117.41 5.91192C117.462 5.92839 117.491 5.90247 117.526 5.81075C117.551 5.74295 117.563 5.67241 117.551 5.65398C117.527 5.61414 117.442 5.6099 117.405 5.64669ZM115.899 5.71856C115.899 5.75091 115.882 5.77738 115.86 5.77738C115.839 5.77738 115.821 5.75091 115.821 5.71856C115.821 5.68621 115.839 5.65974 115.86 5.65974C115.882 5.65974 115.899 5.68621 115.899 5.71856ZM119.678 5.77738C119.678 5.79895 119.713 5.85189 119.755 5.89502C119.798 5.93816 119.833 6.00121 119.833 6.03513C119.833 6.11418 119.947 6.09367 120.003 6.00462C120.036 5.95192 120.025 5.91663 119.952 5.83797C119.861 5.74025 119.678 5.69982 119.678 5.77738ZM123.084 5.85957C123.042 5.92663 123.172 6.0394 123.227 5.98419C123.251 5.9596 123.261 5.91184 123.248 5.87804C123.221 5.80734 123.122 5.79624 123.084 5.85957ZM124.955 5.95176C124.794 6.10477 124.791 6.18531 124.945 6.27884C125.046 6.34013 125.054 6.33946 125.109 6.26633C125.142 6.22331 125.168 6.21084 125.168 6.23813C125.17 6.29429 125.31 6.30511 125.343 6.25162C125.368 6.21041 125.174 5.8166 125.128 5.8166C125.111 5.8166 125.033 5.87741 124.955 5.95176ZM120.523 5.92008C120.486 5.9567 120.53 6.01266 120.595 6.01266C120.626 6.01266 120.651 5.98619 120.651 5.95384C120.651 5.89479 120.569 5.87322 120.523 5.92008ZM122.638 5.97803C122.638 6.06132 122.604 6.06426 122.438 5.99517C122.383 5.97231 122.374 6.00815 122.369 6.26452C122.366 6.44961 122.385 6.61234 122.421 6.69963L122.479 6.83903L122.627 6.74504C122.765 6.65681 122.774 6.63862 122.777 6.44945C122.779 6.33856 122.792 6.23613 122.807 6.22174C122.821 6.20739 122.833 6.26813 122.833 6.35671C122.833 6.5843 122.965 6.63775 122.998 6.42357C123.017 6.30374 123.064 6.24794 123.147 6.24794C123.254 6.24794 123.24 6.15018 123.119 6.05411C123.022 5.97733 123.011 5.97631 122.943 6.03776C122.904 6.07375 122.872 6.08411 122.872 6.06074C122.872 5.9998 122.759 5.89502 122.694 5.89502C122.663 5.89502 122.638 5.93223 122.638 5.97803ZM125.988 5.9571C125.988 5.99125 126.009 6.01223 126.034 6.00368C126.106 5.97945 126.118 5.89502 126.049 5.89502C126.015 5.89502 125.988 5.92294 125.988 5.9571ZM126.259 5.9956C126.209 6.1301 126.206 6.1205 126.337 6.25292C126.434 6.35048 126.466 6.36256 126.532 6.32695C126.575 6.30354 126.611 6.26845 126.611 6.24896C126.611 6.22947 126.69 6.20159 126.787 6.187C126.998 6.15516 127.027 6.11846 126.944 5.99133C126.874 5.88345 126.776 5.86494 126.742 5.95329C126.722 6.00482 126.71 6.00482 126.637 5.95329C126.592 5.92125 126.497 5.89502 126.426 5.89502C126.324 5.89502 126.29 5.91565 126.259 5.9956ZM119.423 6.05372C119.411 6.07442 119.359 6.08105 119.309 6.06846C119.26 6.05583 119.207 6.06458 119.193 6.08791C119.178 6.11124 119.134 6.1303 119.095 6.1303C118.97 6.1303 118.978 6.2346 119.116 6.38565C119.189 6.46631 119.249 6.55654 119.249 6.58619C119.249 6.67677 119.366 6.64638 119.487 6.52407C119.587 6.42314 119.596 6.39793 119.554 6.32981C119.477 6.2052 119.546 6.18963 119.679 6.30189C119.804 6.40804 119.89 6.43126 119.929 6.3691C119.973 6.29738 119.897 6.20269 119.741 6.13238C119.502 6.02548 119.449 6.01219 119.423 6.05372ZM120.076 6.12497C120.018 6.16088 120.035 6.33523 120.098 6.35648C120.153 6.37483 120.206 6.17626 120.159 6.12904C120.14 6.10999 120.103 6.1081 120.076 6.12497ZM126.014 6.14606C125.99 6.21021 126.018 6.24794 126.092 6.24794C126.12 6.24794 126.144 6.21265 126.144 6.16951C126.144 6.08034 126.046 6.06266 126.014 6.14606ZM123.754 6.24904C123.707 6.3277 123.692 6.40553 123.708 6.47957C123.729 6.57576 123.719 6.59478 123.634 6.61615C123.516 6.64611 123.447 6.76312 123.463 6.90636C123.48 7.05513 123.584 7.06066 123.638 6.91569C123.689 6.77935 123.749 6.76178 123.779 6.87456C123.793 6.93197 123.764 6.97361 123.666 7.03459C123.515 7.12858 123.522 7.11344 123.572 7.24532C123.594 7.30476 123.64 7.3459 123.684 7.3459C123.726 7.3459 123.767 7.38048 123.779 7.42432C123.806 7.52977 123.962 7.53141 123.962 7.42628C123.962 7.38421 123.932 7.33272 123.895 7.31186C123.832 7.27657 123.832 7.26884 123.892 7.20207C123.927 7.16254 123.962 7.078 123.969 7.01416C123.978 6.92777 124.007 6.89224 124.079 6.87534C124.151 6.85844 124.18 6.82284 124.19 6.73653C124.197 6.67269 124.227 6.60634 124.258 6.58909C124.361 6.53 124.313 6.44678 124.081 6.2886C123.954 6.20155 123.844 6.1303 123.836 6.1303C123.829 6.1303 123.792 6.18375 123.754 6.24904ZM129.156 6.1908C129.144 6.2241 129.125 6.24292 129.115 6.23264C129.104 6.22237 129.108 6.19512 129.122 6.17214C129.16 6.10955 129.183 6.12171 129.156 6.1908ZM120.268 6.21841C120.188 6.29891 120.22 6.35236 120.387 6.4184C120.577 6.49384 120.66 6.45145 120.549 6.33495C120.432 6.21221 120.32 6.16583 120.268 6.21841ZM125.313 6.3133C125.268 6.3584 125.284 6.40479 125.345 6.40479C125.377 6.40479 125.403 6.37832 125.403 6.34597C125.403 6.28472 125.357 6.26817 125.313 6.3133ZM128.7 6.31436C128.656 6.35852 128.674 6.40479 128.734 6.40479C128.766 6.40479 128.792 6.3882 128.792 6.36789C128.792 6.31844 128.731 6.28303 128.7 6.31436ZM116.172 6.444C116.172 6.48757 116.198 6.52243 116.23 6.52243C116.263 6.52243 116.289 6.48757 116.289 6.444C116.289 6.40044 116.263 6.36558 116.23 6.36558C116.198 6.36558 116.172 6.40044 116.172 6.444ZM118.867 6.40726C118.876 6.43553 118.907 6.46643 118.935 6.47588C118.964 6.48568 118.979 6.47098 118.969 6.44157C118.96 6.41326 118.929 6.38236 118.901 6.37295C118.872 6.36314 118.857 6.37785 118.867 6.40726ZM125.397 6.47082C125.36 6.51584 125.36 6.54548 125.396 6.60352C125.422 6.64461 125.442 6.71269 125.442 6.75484C125.442 6.87032 125.5 6.8833 125.613 6.79355C125.727 6.70359 125.745 6.61011 125.657 6.57584C125.624 6.5634 125.598 6.53074 125.598 6.50321C125.598 6.42808 125.452 6.40451 125.397 6.47082ZM130.487 6.48321C130.543 6.54548 130.545 6.56164 130.5 6.56164C130.439 6.56164 130.35 6.48721 130.35 6.43616C130.35 6.38059 130.414 6.40267 130.487 6.48321ZM118.137 6.48694C118.094 6.55603 118.199 6.71151 118.316 6.75249C118.407 6.78425 118.437 6.77566 118.509 6.69845C118.614 6.58638 118.589 6.53764 118.401 6.4849C118.216 6.43341 118.169 6.43377 118.137 6.48694ZM123.261 6.48525C123.261 6.50796 123.209 6.54497 123.144 6.56752C122.933 6.64179 123.014 6.73414 123.256 6.69512C123.43 6.66708 123.483 6.59411 123.393 6.50396C123.324 6.43459 123.261 6.42565 123.261 6.48525ZM118.931 6.58803C118.827 6.61575 118.816 6.71155 118.908 6.79723C119.022 6.90385 119.071 6.87821 119.086 6.70567C119.098 6.55956 119.083 6.54764 118.931 6.58803ZM128.654 6.60426C128.639 6.62771 128.647 6.66653 128.671 6.69053C128.695 6.71453 128.714 6.77476 128.714 6.82437C128.714 6.95102 128.86 6.948 128.892 6.82072C128.93 6.66669 128.728 6.48298 128.654 6.60426ZM127.685 6.67148C127.672 6.71281 127.672 6.77582 127.686 6.81151C127.699 6.84715 127.689 6.90236 127.663 6.93416C127.604 7.00573 127.639 7.11062 127.722 7.11062C127.798 7.11062 127.905 6.86409 127.889 6.72426C127.874 6.59466 127.721 6.55521 127.685 6.67148ZM117.652 6.67928C117.652 6.70085 117.67 6.71849 117.691 6.71849C117.712 6.71849 117.73 6.70085 117.73 6.67928C117.73 6.65771 117.712 6.64007 117.691 6.64007C117.67 6.64007 117.652 6.65771 117.652 6.67928ZM126.455 6.67928C126.455 6.70085 126.361 6.71849 126.246 6.71849C125.994 6.71849 125.916 6.7819 125.994 6.92185C126.023 6.97177 126.063 7.09176 126.085 7.18854C126.111 7.30449 126.148 7.36899 126.192 7.37766C126.239 7.3868 126.26 7.36582 126.26 7.30955C126.26 7.26269 126.286 7.22826 126.32 7.22826C126.398 7.22826 126.436 7.1236 126.382 7.05768C126.35 7.01823 126.363 6.98369 126.436 6.91409C126.531 6.82397 126.57 6.64007 126.494 6.64007C126.473 6.64007 126.455 6.65771 126.455 6.67928ZM125.737 6.75437C125.724 6.7748 125.73 6.80182 125.751 6.81445C125.771 6.82707 125.798 6.82068 125.81 6.80025C125.823 6.77982 125.817 6.7528 125.796 6.74018C125.776 6.72755 125.749 6.73394 125.737 6.75437ZM115.821 6.93703C115.821 7.06576 115.952 7.05431 115.97 6.92397C115.98 6.85727 115.963 6.83613 115.902 6.83613C115.841 6.83613 115.821 6.86115 115.821 6.93703ZM117.067 6.89589C117.011 6.96404 117.016 6.97334 117.133 7.00929C117.235 7.04086 117.288 6.97243 117.222 6.89322C117.162 6.82068 117.129 6.82127 117.067 6.89589ZM122.884 6.8993C122.816 6.92805 122.748 6.97236 122.732 6.9978C122.693 7.06176 122.824 7.14983 122.958 7.14983C123.036 7.14983 123.079 7.17599 123.105 7.23806C123.219 7.51353 123.354 7.51659 123.332 7.24324C123.321 7.10639 123.309 7.09117 123.214 7.09246C123.129 7.0936 123.103 7.072 123.084 6.98506C123.054 6.84491 123.033 6.83629 122.884 6.8993ZM116.016 7.01404C116.016 7.1294 116.028 7.15348 116.078 7.13442C116.112 7.12133 116.157 7.11062 116.178 7.11062C116.199 7.11062 116.211 7.06208 116.204 7.00279C116.195 6.92558 116.167 6.89138 116.104 6.8824C116.027 6.87138 116.016 6.88699 116.016 7.01404ZM117.946 6.98318C117.914 7.04247 117.861 7.12525 117.828 7.16709C117.77 7.24198 117.768 7.24183 117.69 7.15728C117.586 7.04584 117.542 7.04886 117.512 7.16944C117.497 7.22963 117.46 7.26747 117.416 7.26747C117.377 7.26747 117.328 7.29657 117.308 7.33217C117.284 7.37519 117.243 7.38923 117.186 7.37405C117.063 7.34182 116.996 7.37731 116.928 7.50945C116.858 7.64603 116.888 7.77724 116.99 7.77724C117.131 7.77724 117.109 7.85531 116.951 7.91911C116.814 7.97421 116.793 7.99832 116.803 8.08624C116.813 8.1716 116.834 8.18898 116.932 8.18898C117.023 8.18898 117.051 8.16988 117.061 8.10032C117.074 8.00526 117.268 7.87696 117.399 7.8759C117.459 7.87543 117.48 7.84465 117.489 7.73803C117.506 7.55424 117.55 7.51585 117.671 7.58074C117.81 7.65564 117.808 7.83728 117.668 7.87265C117.587 7.89327 117.576 7.90868 117.613 7.95366C117.668 8.01997 117.871 7.99205 117.972 7.90445C118.015 7.86653 118.074 7.85543 118.142 7.87253C118.213 7.89037 118.268 7.87821 118.316 7.83445C118.382 7.77414 118.39 7.77759 118.449 7.89096C118.483 7.95734 118.51 8.02071 118.51 8.03173C118.507 8.11435 118.516 8.13016 118.57 8.13016C118.603 8.13016 118.737 8.07663 118.868 8.01118C119.052 7.91947 119.114 7.90374 119.138 7.94256C119.161 7.98056 119.186 7.98224 119.238 7.94942C119.335 7.88845 119.324 7.80767 119.211 7.75089C119.104 7.69713 119.061 7.61435 119.057 7.45448C119.055 7.37492 119.03 7.34123 118.96 7.32347C118.907 7.31029 118.79 7.22998 118.699 7.14505C118.607 7.06011 118.509 6.99957 118.481 7.01059C118.452 7.02157 118.399 6.99565 118.363 6.95295C118.29 6.86766 118.158 6.84793 118.158 6.9224C118.158 6.95898 118.148 6.95898 118.112 6.9224C118.042 6.85244 118.011 6.86397 117.946 6.98318ZM115.471 7.04863C115.471 7.10235 115.515 7.19038 115.568 7.2443C115.669 7.34535 115.68 7.34131 115.666 7.2105C115.659 7.14642 115.668 7.14191 115.717 7.18297C115.761 7.21979 115.782 7.22069 115.803 7.18658C115.833 7.13878 115.748 7.06384 115.699 7.09423C115.684 7.10395 115.66 7.09407 115.647 7.07227C115.633 7.05047 115.588 7.01427 115.547 6.99181C115.481 6.95647 115.471 6.96408 115.471 7.04863ZM128.403 7.0518C128.403 7.08415 128.429 7.11062 128.461 7.11062C128.493 7.11062 128.52 7.08415 128.52 7.0518C128.52 7.01945 128.493 6.99298 128.461 6.99298C128.429 6.99298 128.403 7.01945 128.403 7.0518ZM127.259 7.05941C127.212 7.10627 127.234 7.18905 127.293 7.18905C127.325 7.18905 127.351 7.16364 127.351 7.13254C127.351 7.06702 127.295 7.02282 127.259 7.05941ZM118.426 7.17144C118.438 7.2354 118.432 7.2383 118.377 7.19281C118.303 7.13062 118.293 7.05792 118.363 7.08121C118.39 7.09015 118.418 7.13078 118.426 7.17144ZM128.176 7.13678C128.195 7.23516 128.286 7.24865 128.286 7.15309C128.286 7.10494 128.261 7.07141 128.225 7.07141C128.188 7.07141 128.168 7.09807 128.176 7.13678ZM128.566 7.11846C128.505 7.17999 128.506 7.27857 128.567 7.25794C128.594 7.24908 128.645 7.27849 128.682 7.32327C128.744 7.39946 128.753 7.40048 128.814 7.33915C128.893 7.26104 128.863 7.14983 128.762 7.14983C128.723 7.14983 128.673 7.13219 128.652 7.11062C128.626 7.08447 128.597 7.08709 128.566 7.11846ZM125.583 7.27728C125.612 7.47173 125.648 7.52216 125.732 7.48957C125.822 7.45475 125.806 7.29355 125.703 7.19587C125.575 7.07486 125.555 7.08835 125.583 7.27728ZM115.296 7.38511C115.282 7.40668 115.29 7.42432 115.313 7.42432C115.335 7.42432 115.354 7.40668 115.354 7.38511C115.354 7.36354 115.346 7.3459 115.337 7.3459C115.327 7.3459 115.309 7.36354 115.296 7.38511ZM123.395 7.46695C123.355 7.53236 123.445 7.60733 123.499 7.55322C123.544 7.50796 123.516 7.42432 123.456 7.42432C123.437 7.42432 123.41 7.4435 123.395 7.46695ZM126.82 7.48138C126.786 7.57302 126.859 7.63909 126.917 7.56843C126.952 7.52553 126.949 7.50224 126.904 7.46432C126.856 7.42448 126.841 7.42762 126.82 7.48138ZM130.272 7.54196C130.272 7.59251 130.292 7.62031 130.321 7.61059C130.348 7.60161 130.37 7.57071 130.37 7.54196C130.37 7.51322 130.348 7.48232 130.321 7.47334C130.292 7.46362 130.272 7.49142 130.272 7.54196ZM115.913 7.56326C115.9 7.59655 115.899 7.6336 115.911 7.6456C115.945 7.67995 116.016 7.62172 116.016 7.55926C116.016 7.48401 115.942 7.48691 115.913 7.56326ZM128.227 7.6596C128.2 7.82065 128.159 7.84284 127.926 7.82312C127.85 7.81673 127.841 7.84724 127.895 7.93276C127.918 7.96938 127.915 8.00895 127.888 8.04161C127.854 8.08337 127.833 8.08047 127.773 8.0262C127.665 7.9277 127.59 8.01264 127.663 8.15047C127.708 8.23501 127.735 8.24701 127.836 8.22674C128.054 8.18282 128.087 8.16592 128.112 8.08671C128.126 8.04346 128.196 7.97942 128.269 7.9444C128.369 7.89649 128.408 7.84857 128.426 7.75014C128.441 7.66968 128.432 7.5971 128.402 7.56114C128.319 7.46009 128.255 7.49624 128.227 7.6596ZM125.832 7.63392C125.832 7.71207 125.945 7.82363 125.993 7.79347C126.017 7.77889 126.01 7.73807 125.977 7.68744C125.909 7.58416 125.832 7.55577 125.832 7.63392ZM126.13 7.61317C126.122 7.62792 126.104 7.68854 126.09 7.74783C126.071 7.82798 126.079 7.85567 126.121 7.85567C126.152 7.85567 126.189 7.83802 126.202 7.81645C126.215 7.79489 126.277 7.77724 126.338 7.77724C126.456 7.77724 126.527 7.71399 126.469 7.66129C126.423 7.61906 126.148 7.58008 126.13 7.61317ZM126.784 7.7103C126.752 7.795 126.778 7.82798 126.863 7.8101C126.92 7.7983 126.92 7.78838 126.869 7.71842C126.815 7.64466 126.81 7.64415 126.784 7.7103ZM115.188 7.7225C115.175 7.73552 115.141 7.73693 115.113 7.7256C115.082 7.71309 115.091 7.70379 115.137 7.70191C115.178 7.70023 115.201 7.70948 115.188 7.7225ZM123.008 7.73803C122.992 7.76336 122.997 7.80171 123.019 7.82328C123.045 7.84943 123.067 7.84716 123.086 7.81645C123.101 7.79112 123.097 7.75277 123.075 7.7312C123.049 7.70505 123.027 7.70732 123.008 7.73803ZM130.156 7.77724C130.156 7.79881 130.173 7.81645 130.194 7.81645C130.216 7.81645 130.233 7.79881 130.233 7.77724C130.233 7.75567 130.216 7.73803 130.194 7.73803C130.173 7.73803 130.156 7.75567 130.156 7.77724ZM125.881 7.88598C125.78 7.90245 125.763 8.01675 125.85 8.08937C125.925 8.15235 126.066 8.10373 126.066 8.01467C126.066 7.92123 125.989 7.86818 125.881 7.88598ZM115.758 8.03024C115.727 8.11365 115.783 8.19254 115.826 8.12455C115.872 8.05157 115.869 7.9733 115.82 7.9733C115.798 7.9733 115.77 7.99891 115.758 8.03024ZM116.155 8.08761C116.142 8.10804 116.148 8.13506 116.169 8.14768C116.189 8.16031 116.216 8.15392 116.228 8.13349C116.241 8.11306 116.235 8.08604 116.214 8.07342C116.194 8.06079 116.167 8.06718 116.155 8.08761ZM122.258 8.07769C122.191 8.10506 122.197 8.18874 122.271 8.25074C122.328 8.29779 122.327 8.30712 122.264 8.35355C122.226 8.38167 122.163 8.40465 122.124 8.40465C122.085 8.40465 122.054 8.43112 122.054 8.46347C122.054 8.49582 122.071 8.52229 122.093 8.52229C122.114 8.52229 122.132 8.53993 122.132 8.5615C122.132 8.58307 122.097 8.60071 122.056 8.60071C121.986 8.60071 121.981 8.62549 121.992 8.89579C122.003 9.18259 122.043 9.30846 122.085 9.1889C122.096 9.15655 122.18 8.98668 122.272 8.81144C122.427 8.51534 122.437 8.47715 122.416 8.27226C122.394 8.0611 122.371 8.03201 122.258 8.07769ZM125.257 8.1102C125.135 8.1636 125.092 8.25803 125.167 8.30505C125.187 8.31752 125.161 8.37069 125.109 8.42323C125.057 8.47574 125.014 8.53719 125.014 8.55973C125.014 8.62396 125.12 8.60769 125.146 8.53942C125.159 8.5057 125.187 8.48919 125.209 8.50272C125.276 8.54487 125.398 8.48339 125.482 8.36441C125.558 8.25654 125.559 8.24501 125.498 8.15106C125.424 8.03659 125.425 8.03683 125.257 8.1102ZM118.712 8.13529C118.593 8.16988 118.511 8.26317 118.559 8.31089C118.57 8.32214 118.651 8.31191 118.739 8.28807C118.857 8.25607 118.899 8.22474 118.899 8.16784C118.899 8.08279 118.895 8.08216 118.712 8.13529ZM121.352 8.13016C121.352 8.15172 121.37 8.16937 121.391 8.16937C121.413 8.16937 121.43 8.15172 121.43 8.13016C121.43 8.10859 121.413 8.09094 121.391 8.09094C121.37 8.09094 121.352 8.10859 121.352 8.13016ZM119.132 8.16678C119.132 8.1869 119.084 8.20897 119.025 8.2158C118.932 8.22654 118.916 8.24756 118.906 8.37524C118.899 8.46037 118.911 8.52229 118.935 8.52229C118.96 8.52229 118.976 8.62373 118.976 8.77717C118.976 8.95461 118.991 9.03225 119.025 9.03264C119.061 9.03311 119.06 9.04201 119.021 9.06683C118.947 9.11444 119.187 9.1464 119.269 9.09985C119.325 9.06825 119.326 9.05672 119.275 8.99907C119.197 8.91116 119.213 8.54173 119.302 8.37241C119.356 8.27042 119.361 8.22999 119.325 8.18615C119.273 8.1238 119.132 8.10961 119.132 8.16678ZM115.179 8.20858C115.192 8.23015 115.184 8.2478 115.162 8.2478C115.139 8.2478 115.12 8.23015 115.12 8.20858C115.12 8.18701 115.128 8.16937 115.137 8.16937C115.147 8.16937 115.165 8.18701 115.179 8.20858ZM123.753 8.27501C123.74 8.28881 123.729 8.34355 123.729 8.39673C123.729 8.48433 123.717 8.49119 123.602 8.47013C123.532 8.45735 123.44 8.43715 123.397 8.42527C123.277 8.39182 123.213 8.4597 123.208 8.62569C123.202 8.80772 123.312 8.8463 123.332 8.66933C123.346 8.54275 123.346 8.54272 123.519 8.62534C123.643 8.68431 123.658 8.68431 123.723 8.62534C123.866 8.4955 124.017 8.57781 124.057 8.80658C124.079 8.93269 124.072 8.95363 124.011 8.95363C123.971 8.95363 123.918 8.93277 123.893 8.90724C123.815 8.8292 123.789 8.90857 123.865 8.9926C123.92 9.05425 123.985 9.07127 124.163 9.07127C124.417 9.07127 124.463 9.01052 124.294 8.89865C124.21 8.84348 124.198 8.80901 124.206 8.64906L124.215 8.46347L124.079 8.46001C123.862 8.45456 123.845 8.44809 123.845 8.36775C123.845 8.28591 123.794 8.23411 123.753 8.27501ZM123.982 8.28701C123.94 8.35559 124.002 8.41355 124.063 8.36253C124.093 8.33728 124.118 8.30112 124.118 8.28222C124.118 8.23493 124.011 8.2387 123.982 8.28701ZM122.586 8.5713C122.353 8.87795 122.26 9.06938 122.132 9.50029C122.068 9.71867 122.058 9.80745 122.088 9.92387C122.109 10.0049 122.147 10.2653 122.174 10.5025C122.2 10.7398 122.233 10.9472 122.247 10.9634C122.279 11.0008 122.911 9.74102 122.911 9.64072C122.911 9.59989 122.873 9.5261 122.827 9.47677C122.737 9.38042 122.753 9.36168 122.948 9.33787C123.024 9.32866 123.052 9.29443 123.079 9.17765C123.098 9.09601 123.102 8.95151 123.088 8.85661C123.067 8.71855 123.045 8.68161 122.977 8.6718C122.9 8.66082 122.892 8.64004 122.904 8.47327C122.923 8.20592 122.845 8.22972 122.586 8.5713ZM116.289 8.38504C116.289 8.41739 116.306 8.44386 116.328 8.44386C116.349 8.44386 116.367 8.47033 116.367 8.50268C116.367 8.56173 116.449 8.5833 116.495 8.53648C116.522 8.50997 116.368 8.32806 116.318 8.32689C116.302 8.32653 116.289 8.35269 116.289 8.38504ZM118.258 8.63722C118.245 8.6573 118.253 8.68478 118.275 8.69835C118.321 8.72725 118.392 8.69055 118.392 8.63761C118.392 8.58989 118.287 8.58957 118.258 8.63722ZM125.598 8.79678C125.598 8.81834 125.616 8.83599 125.637 8.83599C125.659 8.83599 125.676 8.81834 125.676 8.79678C125.676 8.77521 125.659 8.75756 125.637 8.75756C125.616 8.75756 125.598 8.77521 125.598 8.79678ZM124.603 8.87861C124.565 8.9403 124.647 9.00762 124.724 8.97798C124.777 8.95747 124.78 8.94175 124.741 8.89434C124.684 8.8252 124.639 8.82007 124.603 8.87861ZM118.065 8.94892C118.006 9.01476 118.006 9.02519 118.063 9.07291C118.115 9.11648 118.131 9.11581 118.161 9.06876C118.246 8.93351 118.168 8.83524 118.065 8.94892ZM128.948 8.93524C128.948 8.99845 129.052 9.0584 129.092 9.01825C129.119 8.99029 129.031 8.8752 128.982 8.8752C128.963 8.8752 128.948 8.90222 128.948 8.93524ZM118.47 8.95445C118.47 8.97649 118.427 9.01449 118.373 9.03884C118.32 9.06323 118.267 9.11475 118.255 9.15338C118.24 9.20082 118.186 9.22753 118.088 9.23569C118.003 9.24282 117.946 9.26757 117.948 9.29674C117.95 9.32372 117.955 9.43398 117.958 9.54182C117.963 9.70232 117.976 9.73788 118.034 9.73788C118.072 9.73788 118.123 9.75753 118.147 9.78153C118.214 9.84913 118.275 9.78545 118.275 9.64734C118.276 9.50237 118.413 9.25165 118.473 9.28847C118.495 9.30223 118.541 9.30274 118.575 9.2896C118.63 9.26804 118.63 9.25839 118.57 9.19165C118.507 9.12177 118.507 9.11546 118.571 9.07966C118.612 9.05652 118.628 9.01696 118.614 8.9781C118.587 8.90877 118.47 8.88947 118.47 8.95445ZM118.801 8.95363C118.788 8.97519 118.796 8.99284 118.818 8.99284C118.841 8.99284 118.86 8.97519 118.86 8.95363C118.86 8.93206 118.852 8.91441 118.842 8.91441C118.833 8.91441 118.814 8.93206 118.801 8.95363ZM120.872 8.94045C120.822 8.99092 120.847 9.11048 120.907 9.11048C120.951 9.11048 120.961 9.13326 120.943 9.1889C120.93 9.2331 120.936 9.26733 120.959 9.26733C120.982 9.26733 120.992 9.31392 120.98 9.37517C120.97 9.43446 120.976 9.50567 120.994 9.53335C121.052 9.6206 121.149 9.54335 121.166 9.39634C121.179 9.28674 121.167 9.25227 121.113 9.23804C121.05 9.22133 121.049 9.21259 121.105 9.12628C121.139 9.0748 121.158 9.00998 121.147 8.98221C121.127 8.92845 120.916 8.89645 120.872 8.94045ZM123.166 9.01621C123.141 9.11565 123.195 9.22812 123.267 9.22812C123.286 9.22812 123.32 9.18012 123.342 9.12146C123.375 9.03433 123.37 9.00558 123.314 8.96461C123.217 8.89328 123.195 8.90112 123.166 9.01621ZM120.238 8.99935C120.222 9.02601 120.256 9.08134 120.319 9.13224C120.382 9.18279 120.416 9.23855 120.4 9.2649C120.379 9.29886 120.358 9.29909 120.319 9.26584C120.257 9.21482 120.184 9.24698 120.184 9.32478C120.184 9.35823 120.156 9.37015 120.107 9.35725C119.971 9.32164 119.973 9.44724 120.109 9.61829C120.242 9.7851 120.294 9.80431 120.424 9.73455C120.503 9.69208 120.503 9.69173 120.417 9.60033L120.332 9.50865L120.462 9.38775C120.584 9.27557 120.588 9.26306 120.525 9.21377C120.487 9.18455 120.457 9.12479 120.457 9.08095C120.457 8.96876 120.294 8.9081 120.238 8.99935ZM127.879 8.99006C127.865 9.01248 127.797 9.04546 127.729 9.06334C127.53 9.11526 127.569 9.20831 127.791 9.20961C128.02 9.21094 128.063 9.18706 128.046 9.06723C128.032 8.9701 127.922 8.91932 127.879 8.99006ZM125.352 9.01899C125.337 9.03335 125.326 9.09071 125.327 9.14644C125.329 9.2965 125.493 9.40038 125.722 9.39689C125.915 9.39395 125.933 9.40552 125.875 9.49684C125.85 9.53759 125.823 9.53986 125.762 9.50665C125.649 9.44594 125.559 9.45285 125.559 9.52221C125.559 9.55456 125.588 9.58103 125.623 9.58103C125.658 9.58103 125.709 9.6117 125.736 9.64915C125.783 9.71353 125.79 9.7133 125.866 9.64436C125.967 9.55182 126.066 9.58813 126.066 9.71828C126.066 9.84694 126.175 9.8938 126.247 9.79557C126.361 9.63785 126.264 9.23831 126.124 9.29235C126.093 9.30427 126.021 9.27705 125.964 9.23188C125.907 9.18667 125.829 9.14969 125.79 9.14969C125.752 9.14969 125.709 9.1144 125.696 9.07127C125.677 9.01111 125.637 8.99284 125.524 8.99284C125.443 8.99284 125.366 9.0046 125.352 9.01899ZM128.774 9.02935C128.762 9.04942 128.77 9.07691 128.792 9.09048C128.813 9.10401 128.831 9.08758 128.831 9.05397C128.831 8.98507 128.808 8.97496 128.774 9.02935ZM124.06 9.18455C123.963 9.20581 123.945 9.22667 123.956 9.30737C123.964 9.36081 123.988 9.42642 124.009 9.45308C124.073 9.53104 124.018 9.6126 123.916 9.59288C123.856 9.58143 123.798 9.60338 123.752 9.65554C123.681 9.7344 123.681 9.73663 123.782 9.77514C123.902 9.82106 123.91 9.86046 123.816 9.94152C123.678 10.0612 123.617 10.0565 123.604 9.92505C123.583 9.70714 123.507 9.7609 123.442 10.0401C123.408 10.1866 123.368 10.3487 123.354 10.4003C123.328 10.4919 123.331 10.4936 123.524 10.475C123.643 10.4635 123.762 10.4227 123.827 10.3714C123.886 10.3249 123.983 10.2869 124.044 10.2869C124.227 10.2869 124.424 10.1708 124.437 10.0551C124.447 9.96999 124.466 9.9554 124.556 9.96485C124.67 9.97685 124.688 9.9363 124.623 9.81372C124.576 9.72463 124.479 9.71785 124.376 9.79643C124.32 9.83894 124.283 9.84223 124.223 9.81004C124.152 9.77176 124.151 9.76408 124.209 9.73122C124.245 9.71118 124.274 9.65209 124.274 9.59989C124.274 9.5477 124.309 9.44214 124.352 9.36536C124.395 9.28858 124.43 9.20863 124.43 9.18773C124.43 9.14601 124.243 9.1444 124.06 9.18455ZM128.683 9.21722C128.691 9.25894 128.729 9.28309 128.783 9.28039C128.918 9.27364 128.922 9.27106 128.87 9.20851C128.801 9.12526 128.666 9.13157 128.683 9.21722ZM125.131 9.36211C125.131 9.41422 125.109 9.4643 125.082 9.47335C125.044 9.48629 125.045 9.50355 125.086 9.55343C125.119 9.59437 125.128 9.65954 125.112 9.73628C125.083 9.86697 125.143 9.89372 125.288 9.81533C125.359 9.77737 125.36 9.76655 125.303 9.62327C125.27 9.53978 125.246 9.44759 125.25 9.41842C125.264 9.31188 125.246 9.26733 125.189 9.26733C125.153 9.26733 125.131 9.30399 125.131 9.36211ZM121.236 9.46889C121.236 9.54041 121.207 9.61354 121.167 9.64338C121.103 9.6922 121.103 9.7013 121.173 9.82415C121.32 10.0822 121.557 10.572 121.584 10.6733C121.599 10.7304 121.641 10.7827 121.677 10.7897C121.732 10.8005 121.743 10.7631 121.745 10.5348C121.747 10.3876 121.756 10.1213 121.766 9.94301C121.78 9.67585 121.773 9.61464 121.723 9.5955C121.69 9.58272 121.64 9.59174 121.611 9.61554C121.571 9.64895 121.549 9.63609 121.514 9.55927C121.49 9.50453 121.469 9.43406 121.469 9.40273C121.469 9.36556 121.429 9.34576 121.352 9.34576C121.247 9.34576 121.236 9.35823 121.236 9.46889ZM128.773 9.3856C128.787 9.40752 128.814 9.41532 128.834 9.40289C128.888 9.36928 128.878 9.34576 128.809 9.34576C128.776 9.34576 128.76 9.36368 128.773 9.3856ZM116.191 9.42418C116.205 9.44575 116.197 9.46339 116.174 9.46339C116.152 9.46339 116.133 9.44575 116.133 9.42418C116.133 9.40261 116.141 9.38497 116.15 9.38497C116.16 9.38497 116.178 9.40261 116.191 9.42418ZM124.607 9.4614C124.54 9.53508 124.543 9.54417 124.683 9.71628C124.829 9.89583 124.897 9.93638 124.898 9.84572C124.898 9.81878 124.908 9.75973 124.92 9.71448C124.936 9.65613 124.906 9.59644 124.819 9.50861C124.752 9.44061 124.692 9.38497 124.686 9.38497C124.68 9.38497 124.645 9.41936 124.607 9.4614ZM127.57 9.41273C127.558 9.42505 127.557 9.4503 127.569 9.46885C127.596 9.51339 127.702 9.51241 127.702 9.46759C127.702 9.4243 127.6 9.38215 127.57 9.41273ZM126.921 9.61829L126.745 9.80466L126.858 9.85537C127.003 9.92003 127.14 9.87278 127.227 9.7282C127.289 9.62436 127.288 9.61703 127.194 9.52617L127.098 9.43191L126.921 9.61829ZM117.166 9.541C117.137 9.58786 117.212 9.73788 117.264 9.73788C117.285 9.73788 117.302 9.68495 117.302 9.62025C117.302 9.50441 117.218 9.45571 117.166 9.541ZM120.612 9.56143C120.612 9.59739 120.631 9.62044 120.654 9.61272C120.677 9.60499 120.696 9.5819 120.696 9.56143C120.696 9.54096 120.677 9.51786 120.654 9.51014C120.631 9.50241 120.612 9.52547 120.612 9.56143ZM123.07 9.59727C123.033 9.64197 122.623 10.4978 122.399 10.9953C122.274 11.2739 122.268 11.3075 122.268 11.7539C122.268 12.4675 122.362 12.3892 122.582 11.492C122.703 10.9994 122.796 10.8213 123.011 10.6687C123.166 10.5585 123.195 10.5121 123.28 10.2434C123.332 10.0775 123.386 9.85176 123.401 9.74185L123.427 9.54198L123.266 9.54837C123.177 9.55186 123.089 9.57386 123.07 9.59727ZM125.393 9.56527C125.355 9.60342 125.407 9.69867 125.466 9.69867C125.496 9.69867 125.52 9.66338 125.52 9.62025C125.52 9.54641 125.444 9.51363 125.393 9.56527ZM120.675 9.71055C120.612 9.75698 120.611 9.76631 120.667 9.81337C120.701 9.84184 120.729 9.89638 120.729 9.93454C120.729 9.97273 120.753 10.0133 120.783 10.0247C120.812 10.0361 120.836 10.0909 120.836 10.1465C120.836 10.2618 120.815 10.2728 120.753 10.1896C120.704 10.1238 120.655 10.1475 120.564 10.2816C120.514 10.3562 120.51 10.3936 120.546 10.4722C120.583 10.5546 120.578 10.5785 120.516 10.6245C120.475 10.6544 120.41 10.679 120.371 10.679C120.286 10.679 120.279 10.7687 120.359 10.8354C120.442 10.9049 120.592 10.8542 120.644 10.7388C120.67 10.6804 120.721 10.6398 120.767 10.6398C120.811 10.6398 120.846 10.6221 120.846 10.6006C120.846 10.579 120.862 10.5614 120.88 10.5614C120.899 10.5614 120.906 10.6384 120.895 10.7327C120.874 10.9256 120.887 10.9407 121.126 10.9886C121.218 11.0071 121.325 11.0351 121.362 11.0509C121.413 11.0722 121.43 11.0609 121.43 11.0067C121.429 10.9185 121.321 10.5983 121.272 10.5387C121.253 10.5151 121.209 10.4179 121.176 10.3227C121.098 10.1005 120.839 9.66103 120.785 9.66013C120.763 9.65977 120.713 9.68244 120.675 9.71055ZM126.52 9.68561C126.475 9.73071 126.492 9.7771 126.552 9.7771C126.585 9.7771 126.611 9.75063 126.611 9.71828C126.611 9.65703 126.565 9.64048 126.52 9.68561ZM128.87 9.81631C128.87 9.86858 128.896 9.89474 128.948 9.89474C129.04 9.89474 129.053 9.7958 128.964 9.76169C128.875 9.72718 128.87 9.72996 128.87 9.81631ZM116.795 9.87035C116.795 9.90003 116.769 9.9463 116.737 9.97316C116.651 10.0446 116.662 10.1435 116.753 10.1196C116.793 10.1089 116.877 10.1332 116.938 10.1736C116.998 10.214 117.061 10.2473 117.078 10.2474C117.142 10.248 117.101 10.0707 117.007 9.94744C116.906 9.81353 116.795 9.77325 116.795 9.87035ZM125.237 9.89474C125.183 9.93787 125.102 9.97316 125.059 9.97316C125.015 9.97316 124.969 9.99081 124.955 10.0124C124.942 10.0339 124.895 10.0516 124.851 10.0516C124.806 10.0516 124.714 10.1113 124.646 10.1842C124.577 10.2571 124.466 10.3291 124.398 10.3442C124.212 10.3851 124.243 10.4734 124.453 10.5052C124.65 10.5349 124.934 10.4633 124.96 10.3773C125.019 10.1795 125.015 10.1833 125.07 10.2575C125.142 10.3567 125.226 10.3424 125.383 10.2044C125.532 10.0724 125.555 9.97438 125.459 9.87791C125.38 9.79839 125.356 9.80019 125.237 9.89474ZM120.171 9.92089C120.157 9.93524 120.145 9.97936 120.145 10.0189C120.145 10.0695 120.116 10.0908 120.048 10.0908C119.917 10.0908 119.923 10.1739 120.067 10.3324L120.184 10.4612L120.267 10.378C120.357 10.2869 120.34 10.2099 120.233 10.2261C120.195 10.2318 120.183 10.2295 120.205 10.2211C120.257 10.2017 120.344 9.97265 120.317 9.92818C120.292 9.88834 120.208 9.88411 120.171 9.92089ZM126.124 9.92375C125.952 9.94916 125.867 10.13 126.027 10.13C126.07 10.13 126.105 10.1477 126.105 10.1692C126.105 10.2474 126.177 10.2057 126.254 10.0827C126.327 9.96677 126.333 9.88638 126.268 9.90062C126.253 9.90383 126.188 9.91426 126.124 9.92375ZM129.383 9.99932C129.402 10.0977 129.493 10.1112 129.493 10.0156C129.493 9.96748 129.468 9.93395 129.432 9.93395C129.396 9.93395 129.376 9.96061 129.383 9.99932ZM125.541 10.0888C125.459 10.2475 125.465 10.2974 125.561 10.2667C125.605 10.2526 125.667 10.2631 125.699 10.2898C125.741 10.3247 125.769 10.3265 125.8 10.2959C125.83 10.2654 125.818 10.214 125.756 10.1133C125.651 9.94305 125.618 9.93924 125.541 10.0888ZM117.407 10.1576C117.268 10.1934 117.45 10.4829 117.611 10.4829C117.676 10.4829 117.808 10.3689 117.808 10.3137C117.808 10.2995 117.742 10.2577 117.662 10.2208C117.471 10.133 117.487 10.137 117.407 10.1576ZM117.068 10.3653C117.068 10.4084 117.075 10.4437 117.084 10.4437C117.093 10.4437 117.128 10.4544 117.162 10.4675C117.208 10.4855 117.224 10.4662 117.224 10.3891C117.224 10.313 117.204 10.2869 117.146 10.2869C117.094 10.2869 117.068 10.313 117.068 10.3653ZM125.935 10.3836C125.91 10.4492 125.968 10.4997 126.027 10.4633C126.085 10.4271 126.074 10.3261 126.011 10.3261C125.982 10.3261 125.947 10.352 125.935 10.3836ZM116.89 10.4079C116.85 10.4733 116.941 10.5483 116.994 10.4942C117.039 10.4489 117.011 10.3653 116.951 10.3653C116.932 10.3653 116.905 10.3845 116.89 10.4079ZM119.431 10.4699C119.382 10.5196 119.405 10.5614 119.483 10.5614C119.526 10.5614 119.561 10.5352 119.561 10.5025C119.561 10.4429 119.478 10.4221 119.431 10.4699ZM125.209 10.5221C125.209 10.5437 125.227 10.5614 125.25 10.5614C125.273 10.5614 125.28 10.5437 125.267 10.5221C125.254 10.5006 125.235 10.4829 125.226 10.4829C125.216 10.4829 125.209 10.5006 125.209 10.5221ZM126.27 10.5111C126.19 10.5399 126.214 10.6285 126.325 10.7165C126.445 10.8109 126.525 10.7716 126.461 10.6506C126.405 10.5463 126.328 10.49 126.27 10.5111ZM125.929 10.7101C125.865 10.7469 125.76 10.7782 125.696 10.7795C124.961 10.7951 124.975 10.7933 124.975 10.8725C124.975 10.926 124.944 10.9519 124.868 10.9607C124.792 10.9695 124.76 10.9957 124.759 11.0515C124.758 11.0947 124.738 11.1741 124.715 11.228C124.692 11.2819 124.658 11.3789 124.639 11.4436C124.616 11.5234 124.558 11.5844 124.459 11.6331C124.378 11.6726 124.313 11.7212 124.313 11.741C124.313 11.7608 124.462 11.777 124.644 11.777C124.826 11.777 124.975 11.7675 124.975 11.756C124.975 11.7444 124.948 11.694 124.916 11.6439C124.842 11.5312 124.878 11.4234 124.984 11.435C125.042 11.4413 125.074 11.411 125.102 11.326C125.124 11.2613 125.158 11.1865 125.179 11.1598C125.237 11.086 125.296 11.1459 125.27 11.2519C125.242 11.3639 125.301 11.3733 125.502 11.2888C125.662 11.2215 125.669 11.2377 125.543 11.3879C125.412 11.545 125.446 11.6762 125.61 11.6433C125.771 11.6107 125.832 11.551 125.832 11.424C125.832 11.3646 125.859 11.293 125.893 11.2649C125.927 11.2368 125.946 11.1817 125.936 11.1425C125.92 11.0817 125.942 11.0711 126.084 11.0711C126.185 11.0711 126.27 11.0944 126.299 11.1299C126.353 11.1955 126.554 11.2098 126.591 11.1507C126.604 11.1298 126.586 11.0576 126.551 10.9903C126.488 10.8664 126.447 10.8595 126.245 10.9379C126.201 10.9549 126.182 10.9391 126.182 10.8836C126.182 10.8406 126.152 10.7688 126.114 10.7242C126.049 10.6463 126.042 10.6457 125.929 10.7101ZM123.982 10.7362C123.87 10.7636 123.75 10.7707 123.701 10.7529C123.552 10.6985 123.22 10.8123 123.08 10.9654C122.957 11.1007 122.795 11.5164 122.845 11.5671C122.859 11.5816 122.939 11.573 123.022 11.548C123.24 11.4821 123.426 11.4918 123.651 11.5809C123.759 11.624 123.896 11.6591 123.954 11.6588C124.129 11.6581 124.484 11.5481 124.534 11.4796C124.593 11.3992 124.558 11.0372 124.483 10.9504C124.454 10.9163 124.43 10.8607 124.43 10.8268C124.43 10.7928 124.374 10.7457 124.307 10.722C124.24 10.6984 124.183 10.6811 124.18 10.6837C124.178 10.6862 124.089 10.7099 123.982 10.7362ZM129.454 10.714C129.454 10.7621 129.345 10.8007 129.32 10.7612C129.31 10.7436 129.312 10.7179 129.326 10.7041C129.363 10.6667 129.454 10.6738 129.454 10.714ZM124.554 10.7996C124.562 10.8227 124.585 10.8417 124.605 10.8417C124.625 10.8417 124.648 10.8227 124.656 10.7996C124.664 10.7764 124.641 10.7574 124.605 10.7574C124.569 10.7574 124.546 10.7764 124.554 10.7996ZM120.085 10.8775C120.038 10.9542 120.191 11.0758 120.318 11.0632C120.441 11.0512 120.469 10.9947 120.374 10.9512C120.345 10.9376 120.281 10.9061 120.233 10.8811C120.126 10.8256 120.117 10.8253 120.085 10.8775ZM118.392 10.9731C118.392 11.0054 118.41 11.0319 118.431 11.0319C118.453 11.0319 118.47 11.0054 118.47 10.9731C118.47 10.9407 118.453 10.9143 118.431 10.9143C118.41 10.9143 118.392 10.9407 118.392 10.9731ZM129.752 11.0829C129.722 11.1977 129.788 11.2964 129.913 11.3242C130.012 11.3459 130.021 11.3618 130.007 11.4853C129.994 11.5995 129.982 11.6145 129.935 11.5754C129.856 11.5094 129.686 11.6725 129.758 11.7452C129.825 11.8129 129.817 11.8432 129.723 11.8677C129.57 11.908 129.535 11.8637 129.559 11.6602C129.574 11.5302 129.562 11.4339 129.521 11.3502C129.487 11.2815 129.476 11.219 129.496 11.2064C129.516 11.1942 129.532 11.1424 129.532 11.0913C129.532 11.0348 129.559 10.9925 129.6 10.9832C129.714 10.9579 129.774 10.9975 129.752 11.0829ZM128.481 11.0504C128.481 11.1322 128.594 11.2082 128.642 11.1592C128.695 11.1059 128.66 11.0473 128.559 11.0207C128.511 11.0079 128.481 11.0192 128.481 11.0504ZM120.405 11.1365C120.351 11.1902 120.382 11.2165 120.476 11.1984C120.53 11.1881 120.573 11.164 120.573 11.145C120.573 11.1046 120.443 11.0981 120.405 11.1365ZM117.894 11.3158C117.776 11.3731 117.799 11.4823 117.93 11.4846C117.986 11.4856 118.061 11.5165 118.098 11.5532C118.134 11.59 118.18 11.6201 118.2 11.6201C118.263 11.6201 118.239 11.5092 118.166 11.4557C118.127 11.4275 118.083 11.3735 118.07 11.3358C118.041 11.2577 118.019 11.2552 117.894 11.3158ZM127.799 11.5025C127.771 11.5487 127.807 11.6201 127.86 11.6201C127.88 11.6201 127.896 11.5848 127.896 11.5417C127.896 11.459 127.84 11.4362 127.799 11.5025ZM118.382 11.8708C118.298 11.9355 118.293 12.0514 118.375 12.0514C118.542 12.0514 118.657 11.8907 118.525 11.84C118.451 11.8111 118.464 11.8081 118.382 11.8708ZM119.654 11.9566C119.691 12.0538 119.682 12.0907 119.622 12.0907C119.549 12.0907 119.437 11.9766 119.465 11.9306C119.501 11.872 119.628 11.8895 119.654 11.9566ZM127.838 12.0663C127.795 12.0978 127.769 12.1324 127.78 12.1433C127.812 12.1756 128.055 12.1137 128.064 12.0711C128.076 12.0076 127.922 12.0044 127.838 12.0663ZM126.893 12.1725C126.931 12.2388 126.961 12.3521 126.961 12.4244C126.961 12.4966 126.99 12.5845 127.025 12.6198C127.073 12.668 127.078 12.695 127.044 12.7288C126.976 12.7979 126.834 12.6336 126.827 12.4759C126.823 12.4042 126.806 12.2794 126.789 12.1985C126.751 12.0204 126.8 12.0082 126.893 12.1725ZM118.328 12.3864C118.315 12.4197 118.296 12.4386 118.286 12.4283C118.276 12.418 118.279 12.3908 118.293 12.3678C118.332 12.3052 118.354 12.3173 118.328 12.3864ZM127.39 12.4632C127.39 12.4955 127.416 12.522 127.448 12.522C127.481 12.522 127.507 12.4955 127.507 12.4632C127.507 12.4308 127.481 12.4044 127.448 12.4044C127.416 12.4044 127.39 12.4308 127.39 12.4632ZM126.572 12.5462C126.572 12.5786 126.554 12.5942 126.533 12.5808C126.512 12.5675 126.494 12.5301 126.494 12.4978C126.494 12.4654 126.512 12.4498 126.533 12.4632C126.554 12.4765 126.572 12.5139 126.572 12.5462ZM117.498 12.6536C117.439 12.7133 117.369 12.6409 117.423 12.5755C117.461 12.5297 117.476 12.5284 117.501 12.5688C117.518 12.5966 117.517 12.6347 117.498 12.6536ZM126.528 12.7965C126.553 12.7965 126.585 12.77 126.597 12.7377C126.609 12.7053 126.634 12.6789 126.651 12.6789C126.709 12.6789 126.735 12.8379 126.688 12.8959C126.66 12.9291 126.652 12.9953 126.667 13.0569C126.708 13.2194 126.614 13.2429 126.509 13.0968C126.459 13.0287 126.39 12.9334 126.355 12.885C126.32 12.8366 126.302 12.7681 126.315 12.7327C126.338 12.6729 126.345 12.6729 126.41 12.7323C126.449 12.7676 126.502 12.7965 126.528 12.7965ZM116.795 12.7965C116.795 12.8181 116.778 12.8357 116.756 12.8357C116.735 12.8357 116.717 12.8181 116.717 12.7965C116.717 12.7749 116.735 12.7573 116.756 12.7573C116.778 12.7573 116.795 12.7749 116.795 12.7965Z" fill="#001802"/>
<path fill-rule="evenodd" clip-rule="evenodd" d="M78.35 1.12654C73.0176 2.23604 70.6114 7.24321 73.0055 12.2488C75.2974 17.0405 81.0336 18.2013 84.1494 14.5037C85.3616 13.0654 85.5935 11.7187 84.8786 10.2725C84.1418 8.78254 82.9303 7.63436 82.0947 7.63436C80.349 7.63436 79.7804 9.70969 81.1677 11.0177L81.9552 11.7602L81.1256 12.4604C79.6232 13.7281 77.5427 13.0962 76.1926 10.9629C74.1003 7.65528 76.3896 4.47676 80.8642 4.47676C83.8876 4.47676 86.8209 5.70822 92.1486 9.21434C98.7652 13.5691 100.78 14.4812 104.204 14.6734C110.202 15.0105 114.095 12.1999 114.095 7.5345C114.095 4.29598 111.258 1.43954 108.473 1.87331C105.854 2.28143 103.489 5.22195 104.629 6.65274C105.335 7.53923 106.547 7.36004 107.713 6.19607C108.72 5.18998 108.793 5.17616 109.722 5.81045C110.677 6.4621 110.947 7.64896 110.45 9.00041C110.014 10.1849 107.476 11.1871 104.924 11.1827C102.037 11.178 100.287 10.3961 94.736 6.63261C87.2167 1.53427 83.0766 0.14295 78.35 1.12654ZM162.426 0.982476C159.61 1.3906 156.652 2.82612 151.287 6.38868C145.172 10.4482 144.222 10.8902 141.16 11.0986C138.97 11.2478 138.208 11.1326 136.945 10.4612C136.097 10.0105 135.297 9.35288 135.167 9.00041C134.669 7.64896 134.94 6.4621 135.895 5.81045C136.824 5.17616 136.897 5.18998 137.904 6.19607C139.07 7.36004 140.282 7.53923 140.988 6.65274C142.128 5.22195 139.763 2.28143 137.144 1.87331C135.486 1.61518 133.502 2.69153 132.348 4.47676C131.595 5.64033 131.479 6.22725 131.612 8.19957C131.759 10.3945 131.877 10.6424 133.495 12.1687C135.54 14.0976 137.347 14.739 140.738 14.739C143.785 14.739 146.249 13.8375 150.322 11.232C151.962 10.1829 154.482 8.5694 155.923 7.64659C159.244 5.51876 162.146 4.47676 164.753 4.47676C169.435 4.47676 171.546 7.69554 169.212 11.2751C168.037 13.0773 166.149 13.6149 164.631 12.5788L163.65 11.909L164.443 11.0292C165.328 10.0472 165.47 8.82517 164.782 8.108C163.146 6.40329 159.962 9.71166 160.478 12.5796C160.775 14.2255 162.854 16.1863 164.681 16.5435C168.015 17.1952 171.012 15.5923 172.577 12.3198C175.834 5.51087 170.704 -0.217807 162.426 0.982476ZM9.16111 2.81428C8.84858 2.92124 6.57942 4.24033 4.11858 5.74572C0.503835 7.95643 -0.272757 8.58637 0.0753829 9.0233C0.746281 9.8656 8.97776 14.739 9.72935 14.739C10.4809 14.739 18.7124 9.8656 19.3833 9.0233C19.7314 8.58637 18.9549 7.95801 15.3401 5.75322C10.3733 2.72389 9.97634 2.53483 9.16111 2.81428ZM235.319 2.8127C235.007 2.92085 232.738 4.24033 230.277 5.74572C226.833 7.85184 225.895 8.59822 226.204 8.98621C226.86 9.81073 235.153 14.739 235.884 14.739C236.638 14.739 244.869 9.86757 245.542 9.02291C245.89 8.58598 245.156 7.97617 241.726 5.85465C237.003 2.93427 236.146 2.52733 235.319 2.8127ZM21.5316 7.56686C20.7914 8.41902 20.7293 9.26723 21.3593 9.92362C22.0161 10.608 67.9039 10.608 68.5608 9.92362C69.2567 9.19855 69.1017 7.71014 68.2827 7.25347C67.8008 6.98508 59.7743 6.84496 44.8543 6.84496C23.3481 6.84496 22.1256 6.88285 21.5316 7.56686ZM177.264 7.27123C176.503 7.73303 176.386 9.22579 177.056 9.92362C177.713 10.608 223.601 10.608 224.258 9.92362C224.914 9.2396 224.817 8.25009 224.019 7.49818C223.391 6.90534 221.228 6.84614 200.627 6.8568C185.915 6.86469 177.694 7.01034 177.264 7.27123Z" fill="#001802"/>
</svg>
