<svg width="351" height="273" viewBox="0 0 351 273" fill="none" xmlns="http://www.w3.org/2000/svg">
<path fill-rule="evenodd" clip-rule="evenodd" d="M133 0.738986C129.612 1.35199 127.788 3.00599 128.488 4.82999C128.807 5.66099 128.49 6.72199 127.784 7.18899C126.761 7.86599 126.805 8.28798 128 9.26898C128.825 9.94598 129.594 11.962 129.71 13.75C129.985 18.019 127.27 18.175 125.686 13.98C124.977 12.1 124.035 11.156 123.191 11.48C122.446 11.766 121.198 12 120.418 12C119.638 12 119 12.705 119 13.567C119 14.68 118.419 14.95 117 14.5C115.455 14.01 115 14.32 115 15.865C115 16.987 114.122 18.144 113 18.5C111.729 18.903 111 20.013 111 21.543C111 23.714 110.748 23.855 108.435 22.975C104.889 21.627 104.648 21.696 103.378 24.436C102.591 26.134 102.571 27.171 103.311 27.911C104.857 29.457 103.305 30.498 101.584 29.07C100.778 28.401 99.305 27.992 98.31 28.16C97.314 28.328 95.387 27.686 94.027 26.733C90.749 24.435 89 24.544 89 27.045C89 28.836 88.57 29.01 85.545 28.442C82.474 27.866 82.022 28.063 81.483 30.212C81.149 31.541 81.017 33.224 81.188 33.951C81.594 35.672 76.379 37.142 72.445 36.415C69.861 35.938 69.208 36.248 68.216 38.425C67.511 39.972 67.434 41 68.021 41C68.56 41 69 41.675 69 42.5C69 43.325 68.235 44 67.3 44C65.978 44 65.867 44.267 66.8 45.2C67.46 45.86 68 47.83 68 49.578C68 51.325 68.675 53.315 69.5 54C70.325 54.685 71 56.09 71 57.122C71 58.155 71.675 59 72.5 59C74.427 59 74.398 59.902 72.402 62.108C70.687 64.003 71.249 66 73.497 66C74.369 66 74.807 66.971 74.688 68.638C74.547 70.618 75.232 71.69 77.431 72.931C81.331 75.133 81.859 77 78.583 77C77.162 77 76 76.56 76 76.023C76 74.573 71.406 71.83 67.725 71.082C65.301 70.59 63.994 69.458 62.465 66.526C60.086 61.964 55.652 60.1 52.965 62.531C52.073 63.339 50.815 64 50.171 64C48.745 64 48.697 65.073 49.975 68.435C50.805 70.616 50.673 71 49.098 71C45.933 71 44.505 73.619 45.945 76.78C47.422 80.021 47.337 80.596 45.434 80.206C44.645 80.045 44 80.565 44 81.363C44 83.536 40.47 82.247 39.025 79.546C38.042 77.71 36.397 77.028 30.667 76.082C25.744 75.269 23.424 75.229 23.183 75.952C22.991 76.528 22.204 77 21.436 77C19.911 77 18.48 81.203 19.288 83.308C19.565 84.03 21.62 85.169 23.854 85.838C28.013 87.084 29.772 88.603 28.463 89.817C28.058 90.192 27.541 89.983 27.314 89.352C26.723 87.708 18.793 88.941 17.282 90.911C15.628 93.068 15.706 94.563 17.569 96.427C18.754 97.611 19.612 97.743 21.069 96.963C23.392 95.72 23.401 95.795 21.487 100.378C20.654 102.37 19.481 104 18.88 104C18.278 104 18.045 104.675 18.362 105.5C18.692 106.362 18.381 107 17.629 107C16.91 107 15.808 108.125 15.182 109.5C14.533 110.925 13.203 112 12.089 112C9.097 112 8.406 115.739 10.906 118.4C12.058 119.626 13 121.129 13 121.741C13 122.353 15.475 123.986 18.5 125.371C21.525 126.756 24 128.419 24 129.067C24 129.858 23.589 129.927 22.75 129.279C20.916 127.863 13 128.911 13 130.57C13 131.318 12.061 132.432 10.914 133.046C9.767 133.66 9.093 134.427 9.417 134.75C9.74 135.073 9.273 136.146 8.379 137.134C6.861 138.811 6.927 139.01 9.377 140.126L12.001 141.321L9 143.146C7.35 144.15 6 145.562 6 146.285C6 148.22 8.109 149.995 10.45 150.032C12.467 150.063 12.469 150.087 10.559 151.532C9.491 152.339 7.879 153 6.976 153C6.072 153 5.312 153.563 5.286 154.25C5.26 154.938 4.911 156.287 4.512 157.25C3.721 159.156 3.557 159.114 12.877 159.359C16.433 159.452 18.421 159.067 18.746 158.22C19.04 157.455 20.027 157.191 21.204 157.565C22.512 157.98 24.006 157.404 25.667 155.844L28.163 153.5L27.832 157C27.514 160.355 27.352 160.487 23.924 160.188C21.644 159.99 19.895 160.421 19.101 161.379C18.415 162.205 17.206 162.633 16.414 162.329C14.182 161.472 11.709 163.945 13.11 165.633C13.961 166.658 13.949 167 13.063 167C12.414 167 12.16 167.45 12.5 168C12.84 168.55 13.991 169 15.059 169C16.127 169 17 169.45 17 170C17 170.55 16.325 171 15.5 171C13.413 171 13.626 173.352 15.901 175.41C17.145 176.536 18.029 176.762 18.46 176.065C19.427 174.499 21 174.769 21 176.5C21 177.325 20.502 178 19.894 178C19.286 178 17.903 179.125 16.821 180.5C15.74 181.875 13.988 183 12.927 183C10.32 183 10.464 185.801 13.224 188.738C15.122 190.758 15.232 191.253 13.974 192.113C12.912 192.84 13.408 192.942 15.75 192.481C17.805 192.076 19 192.238 19 192.921C19 193.514 18.357 194 17.571 194C15.261 194 12.872 197.021 13.533 199.105C14.197 201.196 13.015 201.615 11.298 199.898C10.195 198.795 6.188 201.049 1.87 205.199C0.182 206.821 0.189999 206.925 2.051 207.516C4.479 208.287 4.473 208.712 1.974 212.81C-0.326 216.584 0.0859997 218 3.486 218C4.896 218 6.042 218.708 6.321 219.75C6.713 221.22 6.905 221.134 7.521 219.209C7.925 217.949 8.76 217.161 9.377 217.458C9.995 217.756 11.288 218.276 12.25 218.616C13.212 218.955 14 219.926 14 220.772C14 222.114 14.233 222.099 15.829 220.655C17.68 218.98 21.119 218.452 22.325 219.658C23.326 220.66 20.987 223 18.985 223C18.011 223 16.941 223.712 16.607 224.582C15.614 227.17 15.915 230 17.184 230C19.604 230 30.552 226.651 32 225.467C35.177 222.87 39.66 221.329 43.5 221.513C45.7 221.619 47.791 221.258 48.147 220.711C48.536 220.113 49.991 220.569 51.801 221.858C55.356 224.39 58.546 224.625 59.393 222.418C60.374 219.863 60.097 218.749 58.622 219.315C57.001 219.937 55 218.204 55 216.178C55 215.009 55.275 214.984 56.542 216.035C58.341 217.528 60.246 216.191 60.461 213.285C60.611 211.239 61.039 211 64.545 211C65.945 211 68.216 212.125 69.591 213.5C70.966 214.875 72.745 216 73.545 216C74.345 216 75 216.48 75 217.067C75 217.657 75.842 217.868 76.882 217.538C78.042 217.169 78.977 217.497 79.32 218.393C80.162 220.586 83.922 219.159 84.619 216.381C85.388 213.317 86.747 213.351 88.168 216.469C89.443 219.267 91 218.91 91 215.819C91 214.098 91.249 213.962 92.5 215C93.73 216.021 94 215.948 94 214.598C94 212.708 97.802 211 102.008 211C103.809 211 105.444 210.205 106.374 208.876C108.188 206.286 111.728 206.728 119.986 210.572C125.093 212.95 126.13 213.081 134.986 212.458C143.716 211.845 144.953 211.991 150 214.233C153.025 215.577 156.103 217.407 156.84 218.299C158.979 220.89 161.964 233.938 161.983 240.782C162.011 251.241 158.716 256.07 147.76 261.622C143.051 264.008 142.71 264.047 140.902 262.411C138.861 260.565 138.209 261.809 140.183 263.783C140.834 264.434 141.062 265.271 140.69 265.644C140.317 266.016 139.11 265.28 138.006 264.007L136 261.694V264.347C136 266.94 135.049 267.715 133.621 266.287C133.229 265.895 129.396 265.558 125.105 265.537C118.767 265.507 117.602 265.729 118.901 266.718C121.252 268.509 118.604 268.341 114.7 266.451L111.5 264.901L113.736 266.849C115.679 268.543 115.758 268.879 114.342 269.422C113.447 269.766 112.478 269.811 112.19 269.524C111.902 269.236 112.252 269 112.968 269C114.724 269 110.101 265.464 107.125 264.53C105.449 264.005 104.958 264.124 105.459 264.933C105.96 265.745 105.369 265.88 103.435 265.394C101.521 264.914 100.911 265.047 101.401 265.839C101.893 266.636 101.152 266.78 98.894 266.329C96.598 265.87 95.892 266.016 96.404 266.844C97.367 268.403 94.756 268.33 93.053 266.75C91.955 265.731 91.815 265.813 92.298 267.19C92.784 268.574 92.313 268.837 89.695 268.646C87.938 268.518 85.487 267.854 84.25 267.171C81.683 265.755 81.305 266.448 83.465 268.607C85.964 271.107 108.04 272.665 113.635 270.738C117.454 269.422 117.806 269.46 118.962 271.311C119.779 272.619 120.436 272.912 120.894 272.172C121.361 271.416 126.044 271.111 135.249 271.236C142.763 271.339 149.231 271.103 149.622 270.711C150.013 270.32 150.988 270 151.789 270C152.97 270 153.01 270.283 152 271.5C150.963 272.75 151.095 273 152.794 273C153.916 273 155.062 272.437 155.341 271.75C155.722 270.81 156.107 270.872 156.893 272C157.722 273.189 158.327 273.26 159.809 272.342C160.837 271.705 162.236 271.528 162.916 271.948C163.597 272.369 166.257 272.307 168.827 271.811C171.397 271.315 180.656 270.772 189.403 270.605C203.487 270.336 205.461 270.091 206.653 268.459C207.944 266.695 208 266.694 208 268.431C208 269.93 208.26 270.029 209.5 269C210.697 268.007 211 268.007 211 269C211 269.966 211.353 269.952 212.576 268.937C213.879 267.856 214.3 267.867 215 269C215.676 270.093 216.148 270.122 217.328 269.143C218.168 268.445 219.884 268.184 221.295 268.538C222.663 268.881 224.022 268.773 224.316 268.297C224.61 267.822 226.797 267.635 229.175 267.882C232.831 268.262 233.113 268.436 231 269.002C229.625 269.371 236.073 269.575 245.329 269.457C254.585 269.339 262.588 268.812 263.114 268.286C263.722 267.678 262.147 267.405 258.785 267.537C255.878 267.651 254.625 267.555 256 267.323C257.375 267.091 259.531 266.12 260.792 265.165L263.083 263.429L260.792 263.412C259.531 263.403 257.904 264.094 257.176 264.948C256.35 265.916 256.122 265.978 256.57 265.112C257.149 263.993 256.566 263.859 253.574 264.42C251.53 264.804 249.159 265.386 248.305 265.713C246.954 266.232 246.968 265.978 248.415 263.77C250.065 261.252 250.056 261.232 247.29 261.454C245.755 261.578 243.718 262.022 242.763 262.442C241.807 262.861 239.669 262.732 238.013 262.154C235.913 261.422 235 261.422 235 262.152C235 263.083 228.505 263.026 206.257 261.901C205.023 261.839 204.262 261.385 204.566 260.894C204.869 260.402 204.641 260 204.059 260C203.477 260 203 260.45 203 261C203 261.55 201.425 262 199.5 262C196.13 262 194.917 260.787 197 259.5C197.55 259.16 198 258.403 198 257.819C198 257.148 197.446 257.215 196.5 258C195.675 258.685 195 259.865 195 260.622C195 263.619 190.081 261.945 185.091 257.25L180.042 252.5L179.389 240.407C178.402 222.147 181.421 215.118 190.94 213.51C193.075 213.149 195.607 211.987 196.566 210.927C197.933 209.416 199.659 209 204.555 209H210.801L212.004 214.016C213.24 219.17 215.84 222 219.339 222C220.82 222 221.129 221.455 220.755 219.5C220.427 217.782 220.722 217 221.698 217C222.479 217 222.824 216.524 222.465 215.943C221.362 214.158 222.93 210 224.707 210C225.625 210 228.879 211.946 231.938 214.323C236.167 217.611 238.413 218.666 241.308 218.726C243.402 218.77 246.404 219.339 247.979 219.991C249.553 220.643 251.665 221.013 252.671 220.813C254.349 220.479 254.314 220.288 252.25 218.502C251.012 217.431 250 215.826 250 214.935C250 214.044 248.455 212.483 246.567 211.466C243.742 209.945 243.306 209.297 244.102 207.809C245.413 205.36 247 205.523 247 208.107C247 209.563 247.461 210.037 248.49 209.642C250.04 209.047 254.245 212.591 255.323 215.4C255.661 216.28 256.851 217 257.969 217C259.086 217 260 217.45 260 218C260 218.55 260.45 219 261 219C261.55 219 262 218.014 262 216.809C262 214.72 262.063 214.704 263.355 216.471C265.021 218.749 267.695 217.937 268.946 214.772C269.638 213.022 269.4 212.116 267.909 210.829C266.844 209.91 265.417 208.97 264.737 208.741C263.783 208.42 263.814 207.945 264.872 206.663C266.529 204.655 268 204.506 268 206.345C268 208.386 271.722 211.321 273.463 210.653C274.327 210.321 275 208.866 275 207.331C275 205.207 275.267 204.867 276.2 205.8C276.86 206.46 278.162 207 279.093 207C281.787 207 282.341 210.073 279.949 211.748L277.854 213.216L280.101 215.608C281.337 216.924 283.146 218 284.12 218C285.761 218 287.359 220.134 289.923 225.75C290.488 226.988 291.829 228 292.904 228C293.978 228 295.452 228.594 296.179 229.319C297.844 230.982 302 232.115 302 230.906C302 230.408 302.579 230 303.287 230C303.995 230 304.649 229.005 304.741 227.789C304.833 226.573 305.928 224.809 307.175 223.868L309.442 222.158L306.721 220.919C303.153 219.293 303.261 218 306.965 218C308.906 218 310.299 218.69 311 220C311.589 221.1 312.756 222 313.594 222C314.432 222 314.841 222.448 314.503 222.996C314.164 223.543 315.024 224.51 316.414 225.143C318.364 226.031 319.287 226.007 320.459 225.034C321.702 224.003 322.088 224.067 322.595 225.387C323.38 227.433 325.407 227.45 327.429 225.429C329.863 222.994 329.352 220.108 326.25 218.776C322.578 217.199 322.382 217.006 323.625 216.196C324.211 215.813 325.344 214.15 326.141 212.5C327.183 210.344 328.212 209.567 329.796 209.738C331.008 209.869 332 209.532 332 208.988C332 208.445 332.675 208 333.5 208C335.198 208 335.511 206.434 334 205.5C333.45 205.16 333 204.321 333 203.636C333 202.804 334.493 202.441 337.5 202.542C342.071 202.697 343.573 201.645 340.084 200.732C339.031 200.457 337.681 200.719 337.084 201.316C336.305 202.095 336 201.921 336 200.7C336 199.08 337.51 198.527 341.154 198.813C342.064 198.884 343.084 198.223 343.421 197.344C344.243 195.203 341.093 192.877 338.25 193.525C335.655 194.117 335.458 193.301 337.532 190.559C339.333 188.177 339.401 187 337.737 187C337.043 187 336.025 185.987 335.476 184.75C334.688 182.974 333.78 182.556 331.163 182.764C328.462 182.979 327.91 182.701 328.182 181.264C328.403 180.096 329.612 179.394 331.758 179.187C333.879 178.982 335 178.339 335 177.33C335 176.368 335.566 176.003 336.5 176.362C338.301 177.053 338.466 175.866 336.8 174.2C335.867 173.267 335.954 173 337.193 173C340.257 173 340.056 170.171 336.943 169.487C335.324 169.132 334 168.193 334 167.401C334 166.365 333.3 166.138 331.5 166.589C329.96 166.976 329 166.791 329 166.108C329 165.499 329.675 165 330.5 165C332.821 165 332.274 162.36 329.5 160.179C326.786 158.044 326.168 156.467 328.378 157.315C329.136 157.606 330.204 157.396 330.751 156.849C331.411 156.189 331.964 156.72 332.392 158.427C333.05 161.046 334.989 162.025 335.014 159.75C335.021 159.063 335.299 157.487 335.63 156.25C336.15 154.311 335.848 154 333.45 154C328.902 154 331.67 152.621 336.549 152.456C340.435 152.325 341.114 152.607 341.604 154.558C342.248 157.126 345.197 158.233 348.318 157.078L350.441 156.293L348.221 154.906C346.999 154.143 346 152.952 346 152.259C346 150.682 347.24 150.64 348.767 152.167C350.219 153.619 351.321 151.297 350.829 147.823C350.534 145.742 349.901 145.469 344.744 145.2C339.044 144.903 338.994 144.873 339.64 142.2C339.999 140.715 340.677 138.458 341.146 137.185C342.47 133.595 342.184 132.388 339.754 131.303C337.748 130.408 338.011 130.225 342.202 129.597C345.72 129.069 346.757 128.531 346.341 127.447C346.027 126.628 346.375 125.986 347.143 125.968C348.029 125.947 347.806 125.387 346.5 124.353C345.114 123.257 344.884 122.627 345.75 122.302C346.437 122.044 347 121.477 347 121.042C347 119.931 341.744 120.023 340.339 121.159C339.605 121.752 338.939 121.711 338.528 121.046C338.093 120.342 337.273 120.319 336.044 120.976C334.722 121.684 333.883 121.563 333.036 120.543C332.39 119.765 330.457 118.82 328.739 118.443L325.616 117.757L328.558 116.193L331.5 114.628L329 114.003L326.5 113.377L328.75 112.154C332.877 109.909 331.452 108.472 325.468 108.845C322.182 109.049 319.355 108.709 318.51 108.008C317.728 107.359 316.669 107.087 316.157 107.403C315.645 107.719 314.714 107.36 314.087 106.605C313.162 105.491 313.471 105.274 315.724 105.455C317.251 105.578 319.291 106.025 320.258 106.449C321.351 106.929 322.958 106.603 324.508 105.587C327.208 103.818 327.944 101.424 325.5 102.362C324.578 102.716 324 102.36 324 101.437C324 100.612 324.675 99.678 325.5 99.362C328.064 98.378 327.149 97 323.933 97C321.227 97 320.941 96.735 321.512 94.75C321.868 93.513 322.36 91.771 322.605 90.88C322.924 89.724 322.187 89.087 320.026 88.655C317.458 88.142 317 87.592 317 85.025C317 81.824 315.351 81.069 313.122 83.25C312.088 84.262 311.981 83.759 312.56 80.607C313.253 76.841 313.196 76.734 310.811 77.332C308.732 77.854 308.358 77.603 308.423 75.728C308.471 74.335 307.659 73.135 306.25 72.515C305.012 71.971 303.986 70.845 303.968 70.013C303.942 68.776 303.694 68.819 302.608 70.25C301.877 71.213 300.542 72 299.64 72C298.738 72 298 72.659 298 73.465C298 74.922 295.099 77 293.066 77C291.206 77 291.918 75.255 294 74.71C295.1 74.423 296 73.47 296 72.594C296 71.717 296.675 71 297.5 71C298.444 71 299 70.048 299 68.433C299 66.434 298.609 65.989 297.234 66.426C296.037 66.806 295.148 66.263 294.473 64.743C293.926 63.509 292.696 62.562 291.739 62.639C290.621 62.728 290 62.065 290 60.779C290 59.085 289.469 58.843 286.5 59.19C282.562 59.65 282.339 59.388 284.57 56.922C286 55.342 285.987 55.008 284.423 53.181C282.613 51.067 280.728 51.249 277.726 53.828C276.395 54.972 275.667 55.067 274.809 54.209C273.951 53.351 274.082 52.906 275.333 52.426C276.25 52.074 277 50.709 277 49.393C277 47.523 276.467 47 274.559 47C271.516 47 270.165 45.047 272.36 43.819C275.125 42.271 274.201 40.26 270.398 39.547C266.083 38.737 266.579 37.851 271.599 37.401C273.613 37.22 275.407 36.926 275.586 36.748C276.138 36.195 273.402 29.002 272.172 27.772C271.286 26.886 270.655 27.073 269.536 28.554C267.872 30.754 267.917 30.814 267.458 25.798C267.188 22.839 267.509 21.973 269.06 21.481C271.067 20.844 271.765 19 270 19C269.45 19 269 18.325 269 17.5C269 15.559 265.611 15.559 264 17.5C262.371 19.463 260 19.423 260 17.433C260 15.525 256.116 16.459 254.424 18.773C253.472 20.074 252.902 20.047 249.748 18.551C246.948 17.222 245.698 17.091 244.078 17.958C242.935 18.57 242 19.462 242 19.942C242 20.421 241.07 20.57 239.934 20.273C238.798 19.975 236.774 20.318 235.436 21.034C232.792 22.449 230.624 21.482 233.029 19.961C234.297 19.159 234.282 19.029 232.919 19.015C232.049 19.007 230.739 20.119 230.007 21.488C228.165 24.928 226 22.977 226 17.878C226 15.745 225.55 14 225 14C224.45 14 224 13.288 224 12.417C224 11.546 223.438 11.023 222.75 11.254C222.063 11.486 221.012 11.013 220.415 10.203C219.818 9.39198 217.793 8.67799 215.915 8.61499C214.037 8.55199 212.213 8.10498 211.862 7.62198C210.91 6.31199 209.01 7.84499 207.864 10.847C206.93 13.292 206.75 13.363 205.565 11.75C203.81 9.36099 203.361 9.52499 202.15 13C201.575 14.65 200.514 16 199.793 16C197.911 16 195.694 19.903 196.766 21.328C197.767 22.661 198.174 27 197.298 27C195.89 27 194.061 23.22 194.032 20.25C194.014 18.462 193.55 17 193 17C192.45 17 192 16.361 192 15.579C192 14.786 190.564 13.851 188.75 13.462C186.963 13.078 185.07 12.509 184.545 12.197C183.335 11.477 178.259 10.721 175.003 10.777C173.63 10.8 172.185 10.3 171.793 9.66399C171.001 8.38399 168.088 11.549 168.032 13.75C167.978 15.87 166 15.131 165.052 12.637C164.069 10.05 161.478 9.03499 155.809 9.01399C153.779 9.00599 151.831 8.53599 151.48 7.96799C151.13 7.40099 148.799 5.97599 146.302 4.80199C142.716 3.11599 141.38 2.90599 139.946 3.80199C138.42 4.75399 138.08 4.59398 137.815 2.79598C137.465 0.417985 136.664 0.0759857 133 0.738986ZM260 23.878C260 25.181 257.417 27.084 256.667 26.333C255.916 25.583 257.819 23 259.122 23C259.605 23 260 23.395 260 23.878ZM171 39C171 39.55 170.802 40 170.559 40C170.316 40 169.84 39.55 169.5 39C169.16 38.45 169.359 38 169.941 38C170.523 38 171 38.45 171 39ZM102 45C102 45.55 101.55 46 101 46C100.45 46 100 45.55 100 45C100 44.45 100.45 44 101 44C101.55 44 102 44.45 102 45ZM268.683 47.188C268.364 47.985 268.127 47.748 268.079 46.583C268.036 45.529 268.272 44.939 268.604 45.271C268.936 45.603 268.972 46.466 268.683 47.188ZM143 53C143 53.55 142.55 54 142 54C141.45 54 141 53.55 141 53C141 52.45 141.45 52 142 52C142.55 52 143 52.45 143 53ZM201.683 55.188C201.364 55.985 201.127 55.748 201.079 54.583C201.036 53.529 201.272 52.939 201.604 53.271C201.936 53.603 201.972 54.466 201.683 55.188ZM222 61C222 61.55 221.802 62 221.559 62C221.316 62 220.84 61.55 220.5 61C220.16 60.45 220.359 60 220.941 60C221.523 60 222 60.45 222 61ZM78 63.559C78 64.416 77.543 64.835 76.984 64.49C76.425 64.144 76.226 63.443 76.543 62.931C77.4 61.544 78 61.802 78 63.559ZM183.5 78C183.16 78.55 182.432 79 181.882 79C181.332 79 181.16 78.55 181.5 78C181.84 77.45 182.568 77 183.118 77C183.668 77 183.84 77.45 183.5 78ZM101 78.418C101 79.943 99.638 81.894 98.895 81.435C97.432 80.531 97.878 78 99.5 78C100.325 78 101 78.188 101 78.418ZM192 80.5C192 81.325 191.598 82 191.107 82C190.616 82 189.955 81.325 189.638 80.5C189.288 79.586 189.637 79 190.531 79C191.339 79 192 79.675 192 80.5ZM198 82.941C198 84.121 196.05 85.383 195.333 84.667C194.617 83.95 195.879 82 197.059 82C197.577 82 198 82.423 198 82.941ZM176 84.941C176 85.459 175.55 86.16 175 86.5C174.45 86.84 174 86.416 174 85.559C174 84.702 174.45 84 175 84C175.55 84 176 84.423 176 84.941ZM181.5 87C181.84 87.55 181.39 88 180.5 88C179.61 88 179.16 87.55 179.5 87C179.84 86.45 180.29 86 180.5 86C180.71 86 181.16 86.45 181.5 87ZM200.604 88.729C199.588 89.746 198.749 88.215 199.583 86.866C200.213 85.846 200.449 85.846 200.787 86.862C201.019 87.557 200.936 88.397 200.604 88.729ZM208.419 88.351C208.073 89.252 207.366 89.726 206.847 89.405C206.284 89.057 206.384 88.242 207.094 87.387C208.557 85.624 209.267 86.141 208.419 88.351ZM222.183 90.217C221.466 90.934 221 90.993 221 90.367C221 89.032 222.183 87.849 222.85 88.517C223.134 88.801 222.834 89.566 222.183 90.217ZM227 88.441C227 88.684 226.55 89.16 226 89.5C225.45 89.84 225 89.641 225 89.059C225 88.477 225.45 88 226 88C226.55 88 227 88.198 227 88.441ZM158 89.441C158 89.684 157.55 90.16 157 90.5C156.45 90.84 156 90.641 156 90.059C156 89.477 156.45 89 157 89C157.55 89 158 89.198 158 89.441ZM188.724 91.671C188.972 92.416 188.366 92.647 187.057 92.305C185.926 92.009 185 91.336 185 90.81C185 89.482 188.245 90.233 188.724 91.671ZM129 92.559C129 93.416 128.55 93.84 128 93.5C127.45 93.16 127 92.459 127 91.941C127 91.423 127.45 91 128 91C128.55 91 129 91.702 129 92.559ZM227.648 95.409C224.673 98.656 224.311 98.823 224.704 96.768C225.068 94.862 229.762 90.796 230.77 91.514C230.918 91.619 229.513 93.372 227.648 95.409ZM35 93.125C35 93.606 33.875 94 32.5 94C31.125 94 30 93.606 30 93.125C30 92.644 31.125 92.25 32.5 92.25C33.875 92.25 35 92.644 35 93.125ZM111 95C112.237 95.799 112.14 95.972 110.45 95.985C109.323 95.993 107.868 96.532 107.217 97.183C105.548 98.852 104.446 97.372 105.98 95.524C107.434 93.772 108.868 93.622 111 95ZM39 96.559C39 97.416 38.55 97.84 38 97.5C37.45 97.16 37 96.459 37 95.941C37 95.423 37.45 95 38 95C38.55 95 39 95.702 39 96.559ZM165.047 99.858C164.196 100.054 162.938 100.672 162.25 101.23C160.315 102.801 160.663 99.029 162.657 96.827C164.255 95.061 164.354 95.076 165.453 97.248C166.384 99.087 166.309 99.566 165.047 99.858ZM204.104 97.296C202.82 98.58 201.519 97.588 202.469 96.05C202.837 95.455 203.596 95.251 204.156 95.597C204.839 96.019 204.822 96.578 204.104 97.296ZM241 96C241 96.55 240.325 97 239.5 97C238.675 97 238 96.55 238 96C238 95.45 238.675 95 239.5 95C240.325 95 241 95.45 241 96ZM182 97.5C182 98.325 181.564 99 181.031 99C180.499 99 180.322 98.325 180.638 97.5C180.955 96.675 181.391 96 181.607 96C181.823 96 182 96.675 182 97.5ZM197.52 100.813C196.604 101.729 193.908 97.958 194.636 96.779C194.951 96.27 195.883 96.815 196.706 97.991C197.53 99.167 197.896 100.437 197.52 100.813ZM187.616 101.813C186.218 103.211 186 103.225 186 101.914C186 99.86 188.34 97.52 188.854 99.061C189.062 99.685 188.505 100.924 187.616 101.813ZM45 101C45 101.55 44.127 102 43.059 102C41.991 102 40.84 101.55 40.5 101C40.149 100.433 40.99 100 42.441 100C43.848 100 45 100.45 45 101ZM229 102C229 102.55 228.325 103 227.5 103C226.675 103 226 102.55 226 102C226 101.45 226.675 101 227.5 101C228.325 101 229 101.45 229 102ZM79 105.118C79 105.668 78.55 105.84 78 105.5C77.45 105.16 77 104.432 77 103.882C77 103.332 77.45 103.16 78 103.5C78.55 103.84 79 104.568 79 105.118ZM189.081 104.403C188.186 105.48 188.216 105.912 189.208 106.266C189.919 106.519 190.184 107.066 189.798 107.482C189.411 107.898 188.428 107.571 187.612 106.755C186.505 105.648 186.417 104.983 187.264 104.136C188.898 102.502 190.467 102.733 189.081 104.403ZM197.183 105.217C196.466 105.934 196 105.993 196 105.367C196 104.032 197.183 102.849 197.85 103.517C198.134 103.801 197.834 104.566 197.183 105.217ZM183.331 107.25C182.633 110.919 182.26 111.594 181.405 110.738C180.548 109.882 181.988 104 183.054 104C183.547 104 183.672 105.463 183.331 107.25ZM247 104.893C247 105.384 246.325 106.045 245.5 106.362C243.976 106.947 243.452 105.881 244.667 104.667C245.622 103.711 247 103.845 247 104.893ZM311.393 106.262C312.906 108.66 311.239 109.697 309.521 107.427C308.72 106.367 308.049 105.125 308.032 104.667C307.982 103.365 310.243 104.438 311.393 106.262ZM123 106C123 106.55 122.55 107 122 107C121.45 107 121 106.55 121 106C121 105.45 121.45 105 122 105C122.55 105 123 105.45 123 106ZM160 106.559C160 107.416 159.543 107.835 158.984 107.49C158.425 107.144 158.226 106.443 158.543 105.931C159.4 104.544 160 104.802 160 106.559ZM92.8 107.2C94.13 108.53 94.451 113 93.216 113C92.446 113 89 107.765 89 106.596C89 105.55 91.557 105.957 92.8 107.2ZM99.075 109.275C98.951 110.471 97.58 110.239 97.15 108.95C96.93 108.29 97.29 107.93 97.95 108.15C98.61 108.37 99.116 108.876 99.075 109.275ZM117.075 109.275C116.951 110.471 115.58 110.239 115.15 108.95C114.93 108.29 115.29 107.93 115.95 108.15C116.61 108.37 117.116 108.876 117.075 109.275ZM136.457 108.931C136.774 109.443 136.596 110.132 136.062 110.461C134.772 111.259 130 110.024 130 108.892C130 107.706 135.722 107.741 136.457 108.931ZM196 108.941C196 110.121 194.05 111.383 193.333 110.667C192.617 109.95 193.879 108 195.059 108C195.577 108 196 108.423 196 108.941ZM69.813 110.938C70.063 111.688 69.688 112.063 68.938 111.813C68.216 111.572 67.428 110.784 67.188 110.063C66.938 109.313 67.313 108.938 68.063 109.188C68.784 109.428 69.572 110.216 69.813 110.938ZM155.985 109.75C155.976 110.162 155.533 111.175 155 112C154.216 113.213 154.028 113.069 154.015 111.25C154.007 110.013 154.45 109 155 109C155.55 109 155.993 109.338 155.985 109.75ZM82 110.8C82 112.046 79.741 114 78.3 114C77.39 114 77.525 113.425 78.75 112.083C80.618 110.038 82 109.492 82 110.8ZM104 112C104 112.55 103.802 113 103.559 113C103.316 113 102.84 112.55 102.5 112C102.16 111.45 102.359 111 102.941 111C103.523 111 104 111.45 104 112ZM86.992 113.974C89.41 115.503 86.711 117.395 83.324 116.545C80.615 115.865 80.579 115.781 82.442 114.419C84.716 112.756 85.019 112.726 86.992 113.974ZM309.183 115.217C308.466 115.934 308 115.993 308 115.367C308 114.032 309.183 112.849 309.85 113.517C310.134 113.801 309.834 114.566 309.183 115.217ZM116.278 115.122C115.661 115.739 115.394 116.864 115.685 117.622C116.384 119.443 114.569 119.39 113.036 117.544C111.481 115.67 112.528 114 115.259 114C116.841 114 117.107 114.293 116.278 115.122ZM255.356 115.766C255.616 116.188 254.743 117.046 253.415 117.672C250.832 118.891 250.234 118.166 252.2 116.2C253.581 114.819 254.677 114.669 255.356 115.766ZM316.829 119C318.326 119 318.348 120.667 316.863 121.585C316.228 121.977 314.913 121.23 313.885 119.894C311.506 116.8 311.471 115.211 313.829 117.345C314.835 118.255 316.185 119 316.829 119ZM109 118.559C109 119.416 108.543 119.835 107.984 119.49C107.425 119.144 107.226 118.443 107.543 117.931C108.4 116.544 109 116.802 109 118.559ZM124.728 118.685C125.124 119.871 122.178 120.903 120.25 120.254C119.563 120.023 119 119.373 119 118.81C119 118.247 119.675 118.045 120.5 118.362C121.325 118.678 122 118.464 122 117.885C122 116.579 124.246 117.237 124.728 118.685ZM148.5 118C148.84 118.55 148.416 119 147.559 119C146.702 119 146 118.55 146 118C146 117.45 146.423 117 146.941 117C147.459 117 148.16 117.45 148.5 118ZM81 120C81 120.55 80.55 121 80 121C79.45 121 79 120.55 79 120C79 119.45 79.45 119 80 119C80.55 119 81 119.45 81 120ZM72.25 121.458C76.161 122.118 76.549 122.585 75.094 124.883C74.359 126.042 73.84 126.002 71.886 124.633C70.604 123.735 68.803 123 67.884 123C66.966 123 65.944 122.296 65.613 121.435C65.178 120.3 65.493 120.001 66.756 120.347C67.715 120.61 70.188 121.11 72.25 121.458ZM130.604 122.729C129.588 123.746 128.749 122.215 129.583 120.866C130.213 119.846 130.449 119.846 130.787 120.862C131.019 121.557 130.936 122.397 130.604 122.729ZM311.5 121C311.84 121.55 311.443 122 310.618 122C309.793 122 308.84 121.55 308.5 121C308.16 120.45 308.557 120 309.382 120C310.207 120 311.16 120.45 311.5 121ZM49 123.19C49 124.505 46.727 123.682 46.229 122.187C45.985 121.456 46.443 121.233 47.416 121.606C48.287 121.941 49 122.653 49 123.19ZM118.114 121.75C118.177 122.162 118.379 123.786 118.562 125.358C118.88 128.076 118.806 128.135 117.057 126.551C115.974 125.572 115.426 124.087 115.725 122.943C116.217 121.061 117.883 120.229 118.114 121.75ZM292.943 125.438C291.237 126.2 290.475 126.002 289.386 124.513C287.201 121.525 287.73 121.121 291.558 122.857C294.948 124.393 295.013 124.515 292.943 125.438ZM234.16 123.165C236.272 123.082 238 123.461 238 124.007C238 124.553 235.75 125 233 125C229.138 125 228 124.645 228 123.441C228 122.513 228.47 122.172 229.16 122.599C229.797 122.993 232.047 123.248 234.16 123.165ZM245.971 124.039C243.6 125.539 242.319 125.074 244.427 123.479C245.487 122.677 246.599 122.265 246.898 122.565C247.197 122.864 246.78 123.527 245.971 124.039ZM94.729 125.605C94.029 126.304 91 124.886 91 123.858C91 123.347 91.938 123.432 93.086 124.046C94.233 124.66 94.972 125.361 94.729 125.605ZM329 125.059C329 125.577 327.789 126 326.309 126C323.747 126 323.71 125.932 325.548 124.589C327.51 123.154 329 123.357 329 125.059ZM99 125.5C100.351 127.128 100.028 127.332 97.582 126.393C96.712 126.059 96 125.384 96 124.893C96 123.51 97.62 123.838 99 125.5ZM109.574 125.028C111.061 125.593 112.043 126.29 111.757 126.577C110.968 127.365 106 125.911 106 124.892C106 123.764 106.276 123.774 109.574 125.028ZM88 127.044C88 128.394 87.441 128.988 86.354 128.794C85.448 128.632 84.511 129.063 84.27 129.75C84.03 130.438 84.321 131 84.917 131C85.513 131 86 131.408 86 131.906C86 132.416 84.469 132.343 82.5 131.739C78.407 130.483 78.019 129.284 81.428 128.429C82.763 128.094 84.099 127.185 84.396 126.41C85.231 124.234 88 124.721 88 127.044ZM278.104 128.296C276.82 129.58 275.519 128.588 276.469 127.05C276.837 126.455 277.596 126.251 278.156 126.597C278.839 127.019 278.822 127.578 278.104 128.296ZM284.604 128.729C283.588 129.746 282.749 128.215 283.583 126.866C284.213 125.846 284.449 125.846 284.787 126.862C285.019 127.557 284.936 128.397 284.604 128.729ZM316.933 128.343C315.929 129.214 311 129.973 311 129.256C311 127.995 315.413 126.3 316.433 127.17C316.947 127.608 317.172 128.136 316.933 128.343ZM105.418 127.607C106.288 127.941 107 128.831 107 129.586C107 130.686 106.505 130.732 104.5 129.818C100.606 128.044 101.424 126.074 105.418 127.607ZM130.567 129.766C129.661 130.672 126.872 129.015 127.526 127.959C127.974 127.234 128.628 127.276 129.613 128.094C130.403 128.749 130.832 129.501 130.567 129.766ZM225 128C225 128.55 224.325 129 223.5 129C222.675 129 222 128.55 222 128C222 127.45 222.675 127 223.5 127C224.325 127 225 127.45 225 128ZM248 128C248 128.55 247.283 129 246.406 129C245.53 129 244.584 129.874 244.305 130.943C243.779 132.954 238.892 134.67 237.008 133.505C235.517 132.583 236.782 131 239.009 131C240.05 131 241.26 130.391 241.7 129.647C243.028 127.4 248 126.101 248 128ZM301.5 128C301.16 128.55 300.26 129 299.5 129C298.74 129 297.84 128.55 297.5 128C297.148 127.431 298.009 127 299.5 127C300.991 127 301.852 127.431 301.5 128ZM308.655 128.543C309.555 130.889 308.583 131.164 307.204 128.955C306.431 127.717 306.365 127 307.023 127C307.595 127 308.329 127.694 308.655 128.543ZM70.309 128.833C73.951 129.169 70.751 131 66.523 131C61.852 131 58.761 130.193 59.413 129.145C59.774 128.565 65.587 128.399 70.309 128.833ZM96.985 129.954C99.523 131.904 99.275 133.703 96.609 132.68C94.984 132.057 92.455 127.987 93.715 128.022C94.147 128.034 95.618 128.904 96.985 129.954ZM262 131.083C262 133.52 259.663 133.176 259.177 130.667C258.985 129.68 259.495 129 260.427 129C261.354 129 262 129.855 262 131.083ZM58 131C58 131.55 57.55 132 57 132C56.45 132 56 131.55 56 131C56 130.45 56.45 130 57 130C57.55 130 58 130.45 58 131ZM112.541 131.067C113.714 132.964 112.004 133.432 110.262 131.69C108.703 130.132 108.7 130 110.227 130C111.137 130 112.179 130.48 112.541 131.067ZM228 131C228 131.55 227.073 132 225.941 132C224.809 132 224.16 131.55 224.5 131C224.84 130.45 225.766 130 226.559 130C227.352 130 228 130.45 228 131ZM30 133.125C30 133.606 28.875 134 27.5 134C26.125 134 25 133.606 25 133.125C25 132.644 26.125 132.25 27.5 132.25C28.875 132.25 30 132.644 30 133.125ZM62 133C62 133.55 61.577 134 61.059 134C60.541 134 59.84 133.55 59.5 133C59.16 132.45 59.584 132 60.441 132C61.298 132 62 132.45 62 133ZM81.541 134.067C82.714 135.964 81.004 136.432 79.262 134.69C77.703 133.132 77.7 133 79.227 133C80.137 133 81.179 133.48 81.541 134.067ZM111.99 137.358C112.002 138.404 106.999 137.244 105.256 135.797C102.717 133.69 104.11 133.195 107.99 134.824C110.184 135.746 111.984 136.886 111.99 137.358ZM230 134.5C230 135.5 229 136 227 136C223.239 136 223.051 134.277 226.75 133.716C228.262 133.487 229.613 133.232 229.75 133.15C229.887 133.067 230 133.675 230 134.5ZM289 135.059C289 135.577 288.325 136 287.5 136C285.954 136 285.513 134.82 286.639 133.694C287.438 132.895 289 133.798 289 135.059ZM205.5 135C205.84 135.55 205.641 136 205.059 136C204.477 136 204 135.55 204 135C204 134.45 204.198 134 204.441 134C204.684 134 205.16 134.45 205.5 135ZM216.5 136C216.16 136.55 215.459 137 214.941 137C214.423 137 214 136.55 214 136C214 135.45 214.702 135 215.559 135C216.416 135 216.84 135.45 216.5 136ZM98.879 140.041C104.258 144.905 102.767 145.319 97.056 140.546C94.721 138.596 92.286 137.337 91.461 137.653C90.657 137.962 90 137.716 90 137.107C90 134.72 94.718 136.279 98.879 140.041ZM104.881 139.356C105.574 140.192 105.702 141.066 105.179 141.389C104.036 142.096 98.698 137.635 99.604 136.73C100.397 135.936 103.2 137.332 104.881 139.356ZM277 137C277 137.55 276.55 138 276 138C275.45 138 275 137.55 275 137C275 136.45 275.45 136 276 136C276.55 136 277 136.45 277 137ZM236.821 138.284C237.407 138.99 237.757 140.453 237.598 141.534C237.369 143.095 236.523 143.5 233.488 143.5C231.32 143.5 229.486 142.959 229.25 142.25C228.987 141.46 229.806 141 231.476 141C232.983 141 233.852 140.57 233.5 140C232.801 138.87 233.697 137 234.937 137C235.387 137 236.235 137.578 236.821 138.284ZM218 140.941C218 142.121 216.05 143.383 215.333 142.667C214.617 141.95 215.879 140 217.059 140C217.577 140 218 140.423 218 140.941ZM122.757 144.576C121.773 145.561 120 144.05 120 142.227C120 140.7 120.132 140.703 121.69 142.262C122.62 143.192 123.1 144.233 122.757 144.576ZM89.857 142.89C90.681 143.413 90.824 143.991 90.22 144.364C89.674 144.702 88.671 144.308 87.991 143.489C86.641 141.863 87.7 141.524 89.857 142.89ZM68.5 144C69.282 145.266 67.958 145.266 66 144C64.707 143.165 64.734 143.029 66.191 143.015C67.121 143.007 68.16 143.45 68.5 144ZM229 145.076C229 145.549 228.325 145.678 227.5 145.362C226.675 145.045 226 144.398 226 143.924C226 143.451 226.675 143.322 227.5 143.638C228.325 143.955 229 144.602 229 145.076ZM194 144.441C194 145.496 192.081 145.94 191.51 145.016C191.165 144.457 191.584 144 192.441 144C193.298 144 194 144.198 194 144.441ZM211.771 145.188C211.153 147.042 209 147.349 209 145.583C209 144.713 209.713 144 210.583 144C211.454 144 211.989 144.534 211.771 145.188ZM118.139 147.076L120.5 149.152L118 148.59C116.625 148.28 114.713 148.021 113.75 148.014C112.787 148.006 112 147.325 112 146.5C112 144.338 115.387 144.656 118.139 147.076ZM225.449 147.661C223.383 149.172 222 149.388 222 148.2C222 146.645 224.264 145.164 225.762 145.739C227.057 146.236 227.011 146.519 225.449 147.661ZM77.729 146.604C77.397 146.936 76.534 146.972 75.813 146.683C75.015 146.364 75.252 146.127 76.417 146.079C77.471 146.036 78.061 146.272 77.729 146.604ZM85.99 147.488C86.988 148.69 86.927 149.091 85.671 149.573C83.422 150.436 80.738 149.718 80.203 148.111C79.937 147.313 80.192 147 80.801 147.377C81.385 147.738 82.144 147.575 82.49 147.016C83.37 145.592 84.548 145.75 85.99 147.488ZM283 150.469C283 152.252 282.584 152.777 281.5 152.362C279.944 151.764 279.507 149.827 280.667 148.667C282.021 147.312 283 148.068 283 150.469ZM324.328 153.266C323.683 154.326 322.222 153.283 320.904 150.822C319.808 148.772 319.82 148.771 322.296 150.627C323.67 151.657 324.584 152.845 324.328 153.266ZM108 152C108 152.55 107.55 153 107 153C106.45 153 106 152.55 106 152C106 151.45 106.45 151 107 151C107.55 151 108 151.45 108 152ZM305 152C305 152.55 304.577 153 304.059 153C303.541 153 302.84 152.55 302.5 152C302.16 151.45 302.584 151 303.441 151C304.298 151 305 151.45 305 152ZM79 153C79 153.55 78.55 154 78 154C77.45 154 77 153.55 77 153C77 152.45 77.45 152 78 152C78.55 152 79 152.45 79 153ZM127.559 153.096C127.932 153.699 127.525 154.904 126.655 155.774C125.213 157.216 125.017 157.207 124.43 155.678C124.076 154.755 123.047 153.993 122.143 153.985C121.239 153.976 119.825 153.533 119 153C117.914 152.298 118.794 152.026 122.191 152.015C124.771 152.007 127.187 152.493 127.559 153.096ZM224 153C224 153.55 223.073 154 221.941 154C220.809 154 220.16 153.55 220.5 153C220.84 152.45 221.766 152 222.559 152C223.352 152 224 152.45 224 153ZM255.29 154C255.678 155.483 255.32 156 253.906 156C252.667 156 252 155.301 252 154C252 152.9 252.623 152 253.383 152C254.144 152 255.002 152.9 255.29 154ZM74.817 155.484C75.127 155.794 74.723 156.706 73.918 157.511C72.634 158.795 71.938 158.718 68.227 156.882C65.902 155.732 64 154.455 64 154.045C64 153.238 73.887 154.553 74.817 155.484ZM145.5 155C145.84 155.55 145.668 156 145.118 156C144.568 156 143.84 155.55 143.5 155C143.16 154.45 143.332 154 143.882 154C144.432 154 145.16 154.45 145.5 155ZM150.751 155.608C152.228 157.085 152.208 157.187 150.512 156.858C149.497 156.661 148.478 155.938 148.25 155.25C147.674 153.521 148.829 153.686 150.751 155.608ZM216.15 155.5C216.15 156.022 215.666 156.611 215.075 156.808C214.484 157.005 214 156.417 214 155.5C214 154.583 214.484 153.995 215.075 154.192C215.666 154.389 216.15 154.978 216.15 155.5ZM230.405 154.847C230.693 155.313 229.595 156.972 227.964 158.534C225.428 160.965 225 161.106 225 159.516C225 157.614 227.684 154 229.096 154C229.528 154 230.118 154.381 230.405 154.847ZM280.5 155C280.84 155.55 280.443 156 279.618 156C278.793 156 277.84 155.55 277.5 155C277.16 154.45 277.557 154 278.382 154C279.207 154 280.16 154.45 280.5 155ZM35 156.5C36.013 157.721 35.963 158 34.729 158C33.896 158 32.955 157.325 32.638 156.5C32.322 155.675 32.444 155 32.909 155C33.374 155 34.315 155.675 35 156.5ZM270.729 155.604C270.397 155.936 269.534 155.972 268.813 155.683C268.015 155.364 268.252 155.127 269.417 155.079C270.471 155.036 271.061 155.272 270.729 155.604ZM276 155.883C276 156.369 275.1 157.002 274 157.29C271.833 157.856 271.203 156.488 273.25 155.662C275.22 154.867 276 154.93 276 155.883ZM92.591 158.743C91.897 159.436 90 158.027 90 156.819C90 156.155 90.574 156.231 91.524 157.02C92.362 157.716 92.842 158.491 92.591 158.743ZM297.5 157C297.16 157.55 296.432 158 295.882 158C295.332 158 295.16 157.55 295.5 157C295.84 156.45 296.568 156 297.118 156C297.668 156 297.84 156.45 297.5 157ZM97 157.441C97 158.496 95.081 158.94 94.51 158.016C94.165 157.457 94.584 157 95.441 157C96.298 157 97 157.198 97 157.441ZM265.729 157.604C265.397 157.936 264.534 157.972 263.813 157.683C263.015 157.364 263.252 157.127 264.417 157.079C265.471 157.036 266.061 157.272 265.729 157.604ZM282 157.883C282 159.038 278.143 160.04 277.528 159.046C277.268 158.624 277.342 157.991 277.694 157.639C278.653 156.68 282 156.87 282 157.883ZM86 160C86 161.111 85.333 162 84.5 162C82.692 162 82.567 163.167 84.2 164.8C85.683 166.283 85.159 166.3 81.149 164.902C77.887 163.765 76.879 162 79.492 162C80.312 162 81.545 161.1 82.232 160C82.919 158.9 84.048 158 84.741 158C85.433 158 86 158.9 86 160ZM120.809 158.889C121.529 158.95 121.84 159.45 121.5 160C120.745 161.221 112.328 161.34 111.586 160.139C111.294 159.666 111.23 159.104 111.445 158.889C111.784 158.551 116.832 158.551 120.809 158.889ZM148.5 160C150.098 161.765 150.12 162 148.69 162C147.799 162 146.589 161.1 146 160C145.411 158.9 145.326 158 145.81 158C146.294 158 147.505 158.9 148.5 160ZM136.784 161.025C137.963 162.914 137.862 163.006 135.274 162.387C131.761 161.547 131 161.111 131 159.941C131 158.157 135.522 159.004 136.784 161.025ZM291 160C291 160.55 290.55 161 290 161C289.45 161 289 160.55 289 160C289 159.45 289.45 159 290 159C290.55 159 291 159.45 291 160ZM321 160.559C321 161.416 320.543 161.835 319.984 161.49C319.425 161.144 319.226 160.443 319.543 159.931C320.4 158.544 321 158.802 321 160.559ZM270 160.441C270 160.684 269.55 161.16 269 161.5C268.45 161.84 268 161.641 268 161.059C268 160.477 268.45 160 269 160C269.55 160 270 160.198 270 160.441ZM283 161C283 161.55 282.298 162 281.441 162C280.584 162 280.16 161.55 280.5 161C280.84 160.45 281.541 160 282.059 160C282.577 160 283 160.45 283 161ZM68.75 161.847C69.438 161.931 70 162.472 70 163.05C70 164.41 58.78 163.87 58.325 162.488C58.042 161.628 63.969 161.264 68.75 161.847ZM95.25 162.392C96.965 163.694 97.655 166 96.329 166C95.32 166 92 162.813 92 161.845C92 160.645 93.218 160.85 95.25 162.392ZM235.815 163.25C236.017 164.316 235.531 165 234.573 165C233.708 165 233 165.623 233 166.383C233 167.144 232.007 168.026 230.794 168.344C227.965 169.083 226.99 168.145 229.265 166.872C230.587 166.132 230.776 165.451 230.042 164.078C228.804 161.766 229.753 160.83 232.954 161.204C234.414 161.375 235.623 162.24 235.815 163.25ZM215.5 163C215.16 163.55 214.459 164 213.941 164C213.423 164 213 163.55 213 163C213 162.45 213.702 162 214.559 162C215.416 162 215.84 162.45 215.5 163ZM57 164C57 164.55 56.55 165 56 165C55.45 165 55 164.55 55 164C55 163.45 55.45 163 56 163C56.55 163 57 163.45 57 164ZM121.729 163.604C121.397 163.936 120.534 163.972 119.813 163.683C119.015 163.364 119.252 163.127 120.417 163.079C121.471 163.036 122.061 163.272 121.729 163.604ZM160.082 165C160.587 165 161 165.675 161 166.5C161 168.441 159.554 168.411 157.571 166.429C155.564 164.421 155.568 163.62 157.582 164.393C158.452 164.727 159.577 165 160.082 165ZM60 166C60 166.55 59.802 167 59.559 167C59.316 167 58.84 166.55 58.5 166C58.16 165.45 58.359 165 58.941 165C59.523 165 60 165.45 60 166ZM80.554 167.087C80.923 167.685 80.826 168.574 80.338 169.062C79.821 169.579 78.935 169.126 78.216 167.975C77.201 166.349 77.239 166 78.433 166C79.23 166 80.184 166.489 80.554 167.087ZM260 166.893C260 167.384 259.325 168.045 258.5 168.362C256.976 168.947 256.452 167.881 257.667 166.667C258.622 165.711 260 165.845 260 166.893ZM107.5 168C107.84 168.55 107.281 169 106.259 169C105.237 169 103.868 169.532 103.217 170.183C102.566 170.834 101.689 171.022 101.268 170.602C100.404 169.737 103.72 167 105.632 167C106.32 167 107.16 167.45 107.5 168ZM156.443 168.937C159.121 171.896 157.306 173.636 154.395 170.901C153.078 169.664 152 168.28 152 167.826C152 166.309 154.669 166.977 156.443 168.937ZM214.212 168.136C214.483 168.948 215.207 168.888 216.75 167.924C217.937 167.182 219.24 166.907 219.645 167.312C220.898 168.565 217.67 170.83 214.141 171.173C211.553 171.425 210.436 170.984 209.269 169.25C207.809 167.078 207.862 167 210.795 167C212.466 167 214.004 167.511 214.212 168.136ZM226 169.941C226 170.459 225.55 171.16 225 171.5C224.45 171.84 224 171.416 224 170.559C224 169.702 224.45 169 225 169C225.55 169 226 169.423 226 169.941ZM208.846 172.448C209.056 173.535 208.7 174.067 207.933 173.811C207.241 173.58 206.559 172.603 206.418 171.639C206.081 169.347 208.394 170.117 208.846 172.448ZM233 172.059C233 172.577 232.325 173 231.5 173C229.642 173 229.642 173.943 231.5 176.397C233.074 178.477 232.653 180 230.504 180C228.584 180 228.156 173.909 229.928 171.801C231.346 170.115 233 170.254 233 172.059ZM308.5 172C308.16 172.55 307.432 173 306.882 173C306.332 173 306.16 172.55 306.5 172C306.84 171.45 307.568 171 308.118 171C308.668 171 308.84 171.45 308.5 172ZM142 173.5C142.694 174.337 142.803 175 142.245 175C141.695 175 140.685 174.325 140 173.5C139.306 172.663 139.197 172 139.755 172C140.305 172 141.315 172.675 142 173.5ZM155 173.607C155 173.823 154.325 174 153.5 174C152.675 174 152 173.564 152 173.031C152 172.499 152.675 172.322 153.5 172.638C154.325 172.955 155 173.391 155 173.607ZM303 174C303 174.55 302.802 175 302.559 175C302.316 175 301.84 174.55 301.5 174C301.16 173.45 301.359 173 301.941 173C302.523 173 303 173.45 303 174ZM310.771 174.188C310.553 174.841 309.84 175.553 309.187 175.771C308.456 176.015 308.233 175.557 308.606 174.584C309.304 172.766 311.371 172.388 310.771 174.188ZM318.554 175.087C318.923 175.685 318.725 176.675 318.113 177.287C317.296 178.104 317 178.052 317 177.092C317 176.195 316.213 175.981 314.5 176.411C312.133 177.005 311.209 176.125 312.667 174.667C313.73 173.604 317.817 173.895 318.554 175.087ZM92.575 175.879C92.276 176.363 91.012 177.016 89.766 177.33C87.58 177.88 87.568 177.849 89.441 176.45C91.591 174.844 93.42 174.511 92.575 175.879ZM75.5 177C75.84 177.55 75.641 178 75.059 178C74.477 178 74 177.55 74 177C74 176.45 74.198 176 74.441 176C74.684 176 75.16 176.45 75.5 177ZM326.774 178.607C326.924 178.666 326.782 179.404 326.459 180.247C325.539 182.645 321.002 181.955 321.001 179.417C321 176.487 321.883 175.933 324.358 177.309C325.536 177.964 326.623 178.548 326.774 178.607ZM296 178C296 178.55 295.325 179 294.5 179C293.675 179 293 178.55 293 178C293 177.45 293.675 177 294.5 177C295.325 177 296 177.45 296 178ZM71.729 178.604C71.397 178.936 70.534 178.972 69.813 178.683C69.015 178.364 69.252 178.127 70.417 178.079C71.471 178.036 72.061 178.272 71.729 178.604ZM197 179C197 179.55 196.523 180 195.941 180C195.359 180 195.16 179.55 195.5 179C195.84 178.45 196.316 178 196.559 178C196.802 178 197 178.45 197 179ZM318 180C318 180.55 317.073 181 315.941 181C314.809 181 314.16 180.55 314.5 180C314.84 179.45 315.766 179 316.559 179C317.352 179 318 179.45 318 180ZM65 181C65 181.55 63.623 182 61.941 182C60.156 182 59.139 181.583 59.5 181C59.84 180.45 61.216 180 62.559 180C63.902 180 65 180.45 65 181ZM160.245 182.5C159.703 185.335 158.239 185.785 157.323 183.399C156.985 182.519 157.337 181.4 158.104 180.914C160.323 179.509 160.755 179.83 160.245 182.5ZM119 182C119 182.55 117.537 182.993 115.75 182.985C113.284 182.973 112.862 182.736 114 182C115.965 180.73 119 180.73 119 182ZM179.729 181.604C179.397 181.936 178.534 181.972 177.813 181.683C177.015 181.364 177.252 181.127 178.417 181.079C179.471 181.036 180.061 181.272 179.729 181.604ZM244 182C244 182.55 243.298 183 242.441 183C241.584 183 241.16 182.55 241.5 182C241.84 181.45 242.541 181 243.059 181C243.577 181 244 181.45 244 182ZM98 183C98 183.55 97.073 184 95.941 184C94.809 184 94.16 183.55 94.5 183C94.84 182.45 95.766 182 96.559 182C97.352 182 98 182.45 98 183ZM211 182.878C211 184.181 208.417 186.084 207.667 185.333C206.916 184.583 208.819 182 210.122 182C210.605 182 211 182.395 211 182.878ZM109.5 184C109.16 184.55 108.432 185 107.882 185C107.332 185 107.16 184.55 107.5 184C107.84 183.45 108.568 183 109.118 183C109.668 183 109.84 183.45 109.5 184ZM271.5 184C271.84 184.55 271.39 185 270.5 185C269.61 185 269.16 184.55 269.5 184C269.84 183.45 270.29 183 270.5 183C270.71 183 271.16 183.45 271.5 184ZM72.5 185C72.84 185.55 72.668 186 72.118 186C71.568 186 70.84 185.55 70.5 185C70.16 184.45 70.332 184 70.882 184C71.432 184 72.16 184.45 72.5 185ZM237.5 185C237.84 185.55 237.218 186 236.118 186C235.018 186 233.84 185.55 233.5 185C233.16 184.45 233.782 184 234.882 184C235.982 184 237.16 184.45 237.5 185ZM80 186.5C78.619 188.163 75.431 188.506 74.553 187.085C73.878 185.993 75.613 185.187 78.872 185.079C80.871 185.012 81.049 185.237 80 186.5ZM231.5 186C231.16 186.55 230.234 187 229.441 187C228.648 187 228 186.55 228 186C228 185.45 228.927 185 230.059 185C231.191 185 231.84 185.45 231.5 186ZM68.341 188.25C68.732 189.215 69.069 189.184 69.816 188.115C70.605 186.987 70.987 187.107 71.874 188.765C73.245 191.325 72.077 191.831 66.195 191.224C62.045 190.795 61.951 190.711 63.6 188.89C65.568 186.715 67.606 186.44 68.341 188.25ZM82 188C82 188.55 81.523 189 80.941 189C80.359 189 80.16 188.55 80.5 188C80.84 187.45 81.316 187 81.559 187C81.802 187 82 187.45 82 188ZM92 188C92 188.55 91.523 189 90.941 189C90.359 189 90.16 188.55 90.5 188C90.84 187.45 91.316 187 91.559 187C91.802 187 92 187.45 92 188ZM40 189.094C40 189.695 39.075 190.429 37.943 190.725C36.723 191.044 36.1 191.819 36.412 192.631C36.71 193.407 36.301 194 35.469 194C34.58 194 34 193.04 34 191.57C34 189.263 34.368 189.023 39.25 188.136C39.663 188.061 40 188.492 40 189.094ZM121.5 189C118.722 190.194 116.762 190.194 117.5 189C117.84 188.45 119.329 188.032 120.809 188.07C123.212 188.133 123.286 188.233 121.5 189ZM251.305 190.057C251.647 191.366 251.416 191.972 250.671 191.724C249.233 191.245 248.482 188 249.81 188C250.336 188 251.009 188.926 251.305 190.057ZM218.655 190.543C219.409 192.509 218.517 193.412 216.56 192.661C215.681 192.324 215.284 191.423 215.624 190.538C216.382 188.562 217.896 188.565 218.655 190.543ZM290.683 191.188C290.364 191.985 290.127 191.748 290.079 190.583C290.036 189.529 290.272 188.939 290.604 189.271C290.936 189.603 290.972 190.466 290.683 191.188ZM310.396 194C311.213 194 312.156 194.443 312.491 194.985C313.503 196.624 306.629 194.915 305.25 193.185C302.987 190.347 303.948 189.039 306.455 191.545C307.805 192.895 309.578 194 310.396 194ZM208.985 190.75C208.976 191.162 208.533 192.175 208 193C207.216 194.213 207.028 194.069 207.015 192.25C207.007 191.012 207.45 190 208 190C208.55 190 208.993 190.338 208.985 190.75ZM225.971 190.961C226.78 191.473 227.197 192.136 226.898 192.435C226.599 192.735 225.487 192.323 224.427 191.521C222.319 189.926 223.6 189.461 225.971 190.961ZM237.435 193.898C236.808 194.526 235.023 191.986 235.047 190.5C235.056 189.95 235.72 190.367 236.521 191.427C237.323 192.487 237.735 193.599 237.435 193.898ZM271.813 191.938C272.063 192.688 271.688 193.063 270.938 192.813C270.216 192.572 269.428 191.784 269.188 191.063C268.938 190.313 269.313 189.938 270.063 190.188C270.784 190.428 271.572 191.216 271.813 191.938ZM258.5 194C259.353 195.65 259.799 197 259.49 197C258.029 197 254 193.613 254 192.385C254 189.889 256.915 190.935 258.5 194ZM82 193.475C82 194.583 81.248 194.8 78.973 194.345C76.827 193.915 75.372 194.259 73.973 195.525C71.797 197.494 71.447 196.901 73.035 193.934C74.344 191.489 82 191.097 82 193.475ZM102.5 193C102.16 193.55 99.996 193.968 97.691 193.93C94.433 193.875 93.945 193.668 95.5 193C98.328 191.785 103.251 191.785 102.5 193ZM136.251 195.149C135.607 195.793 134.365 195.939 133.317 195.495C131.71 194.814 131.789 194.644 134 194.025C136.964 193.196 137.791 193.609 136.251 195.149ZM214 194.559C214 195.416 213.543 195.835 212.984 195.49C212.425 195.144 212.226 194.443 212.543 193.931C213.4 192.544 214 192.802 214 194.559ZM278.056 195.25C280.329 197.974 280.552 200.945 278.5 201.15C277.675 201.233 276.438 201.345 275.75 201.4C274.953 201.464 274.442 199.96 274.339 197.25C274.158 192.501 275.266 191.905 278.056 195.25ZM62.5 195C62.16 195.55 60.982 196 59.882 196C58.782 196 58.16 195.55 58.5 195C58.84 194.45 60.018 194 61.118 194C62.218 194 62.84 194.45 62.5 195ZM70 195C70 195.55 68.875 196 67.5 196C66.125 196 65 195.55 65 195C65 194.45 66.125 194 67.5 194C68.875 194 70 194.45 70 195ZM267.363 197C268.057 197 269.919 198.35 271.5 200C274.976 203.628 272.978 204 268.818 200.5C267.184 199.125 265.233 198 264.482 198C262.47 198 261.531 195.908 263.108 194.934C263.976 194.397 264.767 194.619 265.285 195.545C265.733 196.345 266.668 197 267.363 197ZM288.418 194.607C290.714 195.488 290.362 196.907 288 196.29C286.9 196.002 286 195.369 286 194.883C286 193.838 286.319 193.801 288.418 194.607ZM37.323 197.562C38.326 198.238 38.75 199.036 38.265 199.336C37.78 199.636 36.06 198.783 34.442 197.442C32.342 195.701 32.073 195.193 33.5 195.667C34.6 196.033 36.321 196.886 37.323 197.562ZM296 196C296 196.55 295.802 197 295.559 197C295.316 197 294.84 196.55 294.5 196C294.16 195.45 294.359 195 294.941 195C295.523 195 296 195.45 296 196ZM28 198.028C28 198.528 27.328 198.679 26.506 198.364C25.684 198.048 25.265 197.38 25.575 196.879C26.223 195.83 28 196.672 28 198.028ZM56.5 197C56.16 197.55 55.459 198 54.941 198C54.423 198 54 197.55 54 197C54 196.45 54.702 196 55.559 196C56.416 196 56.84 196.45 56.5 197ZM141.453 197.161C143.621 198.148 144.986 200 143.547 200C142.271 200 138 197.566 138 196.839C138 195.738 138.416 195.777 141.453 197.161ZM155.5 197C155.16 197.55 154.207 198 153.382 198C152.557 198 152.16 197.55 152.5 197C152.84 196.45 153.793 196 154.618 196C155.443 196 155.84 196.45 155.5 197ZM224 197.559C224 198.424 224.482 198.82 225.084 198.448C225.774 198.021 226.047 198.636 225.834 200.139C225.568 202.018 224.989 202.43 223 202.157C220.426 201.804 217 199.342 217 197.845C217 196.373 219.228 196.932 220.608 198.75C221.838 200.371 221.939 200.334 221.968 198.25C221.986 197.012 222.45 196 223 196C223.55 196 224 196.702 224 197.559ZM241 196.429C241 196.664 240.27 197.587 239.378 198.479C237.882 199.975 237.901 200.212 239.628 201.532C241.254 202.774 241.303 203.094 240 203.966C237.89 205.377 237 205.239 237 203.5C237 202.675 236.55 202 236 202C234.332 202 234.874 200.195 237.189 198.039C239.208 196.157 241 195.4 241 196.429ZM110 197.893C110 198.384 109.325 199.045 108.5 199.362C106.976 199.947 106.452 198.881 107.667 197.667C108.622 196.711 110 196.845 110 197.893ZM176 198C176 198.55 175.577 199 175.059 199C174.541 199 173.84 198.55 173.5 198C173.16 197.45 173.584 197 174.441 197C175.298 197 176 197.45 176 198ZM290 199.076C290 199.549 289.325 199.678 288.5 199.362C287.675 199.045 287 198.398 287 197.924C287 197.451 287.675 197.322 288.5 197.638C289.325 197.955 290 198.602 290 199.076ZM302 197.969C302 198.501 301.325 198.678 300.5 198.362C299.675 198.045 299 197.609 299 197.393C299 197.177 299.675 197 300.5 197C301.325 197 302 197.436 302 197.969ZM316.985 199.25C316.972 201.069 316.784 201.213 316 200C314.747 198.061 314.747 197 316 197C316.55 197 316.993 198.012 316.985 199.25ZM81 199C81 199.55 80.073 200 78.941 200C77.809 200 77.16 199.55 77.5 199C77.84 198.45 78.766 198 79.559 198C80.352 198 81 198.45 81 199ZM234 198.878C234 199.36 233.325 200.315 232.5 201C231.247 202.04 231 201.896 231 200.122C231 198.902 231.638 198 232.5 198C233.325 198 234 198.395 234 198.878ZM118 201.933C118 205.455 120.272 206.468 126.001 205.5C129.801 204.858 140.653 206.629 141.521 208.034C141.757 208.416 138.525 209.039 134.338 209.418C127.429 210.045 126.134 209.857 120.328 207.389C115.918 205.515 114.251 204.349 114.965 203.635C115.534 203.066 116 201.79 116 200.8C116 199.81 116.45 199 117 199C117.55 199 118 200.32 118 201.933ZM51.393 201.582C52.247 203.808 52.181 204 50.559 204C48.792 204 47.663 202.354 48.5 201C49.412 199.524 50.703 199.783 51.393 201.582ZM204.25 201.392C207.041 203.511 206.305 205 202.467 205C200.523 205 196.654 206.155 193.867 207.567C191.081 208.979 188.574 209.907 188.296 209.629C187.847 209.18 192.555 204.617 196.91 201.282C198.991 199.688 202.066 199.734 204.25 201.392ZM288 201C289.213 201.784 289.069 201.972 287.25 201.985C286.012 201.993 285 201.55 285 201C285 199.747 286.061 199.747 288 201ZM86 202C86 202.55 85.55 203 85 203C84.45 203 84 202.55 84 202C84 201.45 84.45 201 85 201C85.55 201 86 201.45 86 202ZM92 201.441C92 202.496 90.081 202.94 89.51 202.016C89.165 201.457 89.584 201 90.441 201C91.298 201 92 201.198 92 201.441ZM102 203.535C102 203.791 101.1 204 100 204C98.869 204 98 203.333 98 202.465C98 201.24 98.404 201.146 100 202C101.1 202.589 102 203.28 102 203.535ZM304.839 203.547C306.542 207.284 306.221 207.839 304 205C301.888 202.3 301.511 201 302.839 201C303.301 201 304.201 202.146 304.839 203.547ZM60.436 208.104C59.429 209.732 58.226 209.037 57.578 206.454C56.639 202.712 57.99 201.426 59.6 204.53C60.364 206.003 60.74 207.611 60.436 208.104ZM173.61 205.608C175.122 209.228 174.806 211.206 173.002 209.402C171.815 208.215 170.492 202 171.426 202C171.798 202 172.78 203.624 173.61 205.608ZM253 203C253 203.55 252.802 204 252.559 204C252.316 204 251.84 203.55 251.5 203C251.16 202.45 251.359 202 251.941 202C252.523 202 253 202.45 253 203ZM96.5 204C96.84 204.55 96.668 205 96.118 205C95.568 205 94.84 204.55 94.5 204C94.16 203.45 94.332 203 94.882 203C95.432 203 96.16 203.45 96.5 204ZM231 205.059C231 205.577 230.325 206 229.5 206C227.954 206 227.513 204.82 228.639 203.694C229.438 202.895 231 203.798 231 205.059ZM315 204C315 204.55 314.55 205 314 205C313.45 205 313 204.55 313 204C313 203.45 313.45 203 314 203C314.55 203 315 203.45 315 204ZM160.429 205.571C162.286 207.429 162.47 209 160.829 209C159.433 209 156 206.046 156 204.845C156 203.443 158.752 203.894 160.429 205.571ZM288.411 206.5C288.756 207.875 289.643 209 290.383 209C291.21 209 291.955 210.656 292.317 213.295C292.641 215.658 293.2 218.358 293.56 219.295C293.92 220.233 293.77 221 293.228 221C292.188 221 290.567 217.351 289.562 212.75C289.232 211.238 288.52 210 287.981 210C287.441 210 287 209.1 287 208C287 206.855 286.333 206 285.441 206C284.584 206 284.16 205.55 284.5 205C285.64 203.156 287.777 203.976 288.411 206.5ZM83 206C83 206.55 82.812 207 82.582 207C82.352 207 81.447 207.275 80.57 207.611C79.404 208.059 79.143 207.791 79.596 206.611C80.267 204.862 83 204.371 83 206ZM259.391 207.577C260.222 209.742 258.217 209.275 257.012 207.023C256.163 205.436 256.24 205.155 257.4 205.6C258.195 205.905 259.091 206.795 259.391 207.577ZM74.636 209.697C74.226 210.107 73.473 209.78 72.961 208.971C71.421 206.536 71.883 205.455 73.69 207.262C74.62 208.192 75.046 209.288 74.636 209.697ZM89.418 206.607C91.627 207.455 91.395 209 89.059 209C86.972 209 85.651 207.682 86.694 206.639C87.476 205.858 87.466 205.858 89.418 206.607ZM311 208C311 208.55 310.55 209 310 209C309.45 209 309 208.55 309 208C309 207.45 309.45 207 310 207C310.55 207 311 207.45 311 208ZM215 211.059C215 211.577 214.55 212 214 212C213.45 212 213 211.298 213 210.441C213 209.584 213.45 209.16 214 209.5C214.55 209.84 215 210.541 215 211.059ZM236 210.98C236 212.496 235.518 212.698 233.315 212.109C229.551 211.102 229.337 209.323 232.968 209.22C235.281 209.154 236 209.572 236 210.98ZM301.999 210.75C302 211.438 302.45 212 303 212C303.55 212 304 212.9 304 214C304 215.1 303.55 216 303 216C302.45 216 302 215.363 302 214.583C302 213.804 300.769 212.27 299.265 211.175L296.53 209.182L299.264 209.341C300.768 209.429 301.999 210.063 301.999 210.75ZM49 213C49 213.55 48.55 214 48 214C47.45 214 47 213.55 47 213C47 212.45 47.45 212 48 212C48.55 212 49 212.45 49 213ZM319 217.31C319 217.86 318.1 217.495 317 216.5C315.9 215.505 315 214.24 315 213.69C315 213.14 315.9 213.505 317 214.5C318.1 215.495 319 216.76 319 217.31ZM327.079 215.583C327.127 216.748 327.364 216.985 327.683 216.188C327.972 215.466 327.936 214.603 327.604 214.271C327.272 213.939 327.036 214.529 327.079 215.583ZM301.742 224.803C302.324 224.636 302.845 224.95 302.9 225.5C303.094 227.444 299.524 226.476 299.21 224.5C298.983 223.068 299.147 222.87 299.788 223.803C300.28 224.519 301.16 224.969 301.742 224.803ZM208.5 260C208.16 260.55 208.332 261 208.882 261C209.432 261 210.16 260.55 210.5 260C210.84 259.45 210.668 259 210.118 259C209.568 259 208.84 259.45 208.5 260ZM244.139 265.033C242.491 266.407 240.379 266.974 237.139 266.915L232.5 266.83L237.78 265.551C240.684 264.848 243.347 263.986 243.697 263.636C244.047 263.286 244.821 263.015 245.417 263.033C246.012 263.052 245.438 263.952 244.139 265.033ZM276.5 265.052C274.85 265.518 272.375 266.128 271 266.406C269.625 266.685 267.6 267.585 266.5 268.407C264.54 269.871 264.545 269.889 266.766 269.33C268.012 269.016 269.276 268.363 269.575 267.879C269.873 267.396 271.779 266.984 273.809 266.965C275.839 266.945 278.625 266.286 280 265.5C282.745 263.931 281.177 263.73 276.5 265.052ZM265.5 266C265.16 266.55 265.332 267 265.882 267C266.432 267 267.16 266.55 267.5 266C267.84 265.45 267.668 265 267.118 265C266.568 265 265.84 265.45 265.5 266ZM284.441 266.468C283.374 267.276 283.026 267.951 283.668 267.968C285.568 268.02 288 266.855 288 265.893C288 264.582 286.645 264.801 284.441 266.468ZM292.25 266.689C293.212 266.941 294.788 266.941 295.75 266.689C296.712 266.438 295.925 266.232 294 266.232C292.075 266.232 291.288 266.438 292.25 266.689ZM125.729 267.604C125.397 267.936 124.534 267.972 123.813 267.683C123.015 267.364 123.252 267.127 124.417 267.079C125.471 267.036 126.061 267.272 125.729 267.604ZM276.105 268.085C274.787 268.612 273.938 269.271 274.216 269.549C274.8 270.133 280 268.313 280 267.525C280 266.803 278.922 266.958 276.105 268.085ZM104.729 268.604C104.397 268.936 103.534 268.972 102.813 268.683C102.015 268.364 102.252 268.127 103.417 268.079C104.471 268.036 105.061 268.272 104.729 268.604ZM64 270C64 270.55 64.9 271 66 271C67.1 271 68 270.55 68 270C68 269.45 67.1 269 66 269C64.9 269 64 269.45 64 270ZM74.25 269.689C75.213 269.941 76.787 269.941 77.75 269.689C78.713 269.438 77.925 269.232 76 269.232C74.075 269.232 73.287 269.438 74.25 269.689ZM124 269.383C124 270.271 119.954 270.735 119.442 269.906C119.134 269.408 120.034 269 121.441 269C122.848 269 124 269.173 124 269.383ZM101.75 270.689C100.787 270.941 99.213 270.941 98.25 270.689C97.287 270.438 98.075 270.232 100 270.232C101.925 270.232 102.713 270.438 101.75 270.689ZM108.729 270.604C108.397 270.936 107.534 270.972 106.813 270.683C106.015 270.364 106.252 270.127 107.417 270.079C108.471 270.036 109.061 270.272 108.729 270.604Z" fill="#1A2F1B"/>
</svg>
