<svg width="106" height="26" viewBox="0 0 106 26" fill="none" xmlns="http://www.w3.org/2000/svg">
<path fill-rule="evenodd" clip-rule="evenodd" d="M36.7555 1.24288C38.5351 1.8304 40.5298 3.2641 41.7676 4.84529C43.9899 7.68408 44.7687 12.6061 43.655 16.7738C43.0214 19.1446 41.3658 21.7608 39.7175 22.9953C37.6533 24.5413 35.8129 25.1915 33.5398 25.1774C31.121 25.1624 29.1342 24.384 27.196 22.6915C25.4917 21.2033 24.3644 19.2948 23.6527 16.6924C23.3346 15.5297 23.2928 15.1382 23.2923 13.3215C23.2917 10.981 23.4853 9.8204 24.1916 7.93122C25.2446 5.11529 27.2739 2.72738 29.4714 1.71825C30.9215 1.05246 32.2034 0.823732 34.0867 0.894768C35.2127 0.937192 36.2328 1.07022 36.7555 1.24288ZM80.1355 5.30538C83.8146 16.1373 84.866 19.1489 85.8044 21.5432C86.3538 22.945 86.8146 24.1163 86.8285 24.1462C86.8425 24.176 87.313 24.348 87.874 24.5284C88.4351 24.7087 88.95 24.9248 89.018 25.0085C89.0939 25.1019 87.3455 25.1608 84.4941 25.1608C81.9379 25.1608 79.8465 25.1026 79.8465 25.0314C79.8465 24.9602 79.9491 24.8916 80.0743 24.8791C80.5508 24.8317 83.4047 24.3388 83.4359 24.2985C83.4967 24.2205 82.6254 21.1471 82.0256 19.3234L81.4307 17.5146L77.6275 17.471C75.0051 17.4409 73.7708 17.4835 73.6518 17.6081C73.4833 17.7849 72.5023 20.8376 71.895 23.0746C71.6446 23.9974 71.6224 24.2194 71.7688 24.3338C71.8667 24.4101 72.5232 24.5655 73.2279 24.6788C73.9325 24.7923 74.5089 24.9472 74.5089 25.023C74.5089 25.0988 73.0151 25.1608 71.1892 25.1608C68.1067 25.1608 67.129 25.0235 68.3933 24.7681C68.6814 24.7099 69.2027 24.5849 69.5518 24.4904L70.1867 24.3184L70.9734 22.1498C71.4061 20.957 72.1971 18.5752 72.731 16.8569C73.2649 15.1385 74.5631 10.9948 75.6159 7.64856C76.6686 4.30233 77.581 1.39794 77.6435 1.19453C77.7293 0.914829 77.8617 0.824554 78.1853 0.824554H78.6135L80.1355 5.30538ZM61.5881 1.17464L64.0942 1.19651L64.099 2.03824C64.1016 2.50112 64.1374 3.75888 64.1784 4.83296C64.2242 6.03333 64.2059 6.74911 64.1308 6.69057C64.0635 6.63795 63.7868 5.77697 63.5158 4.77705C63.1199 3.31572 62.9686 2.94476 62.7449 2.88573C60.5226 2.30018 56.9034 2.19923 55.502 2.68365C54.0302 3.19241 53.324 3.70198 52.3267 4.97535C50.6411 7.12763 49.9664 9.40768 49.9787 12.9104C49.9856 14.8693 50.0209 15.176 50.4006 16.5778C50.8948 18.402 51.5328 19.6429 52.6644 20.9797C54.1959 22.7893 56.2767 23.8455 58.3093 23.8451C59.4627 23.8448 61.4643 23.4507 61.6774 23.182C61.8342 22.9842 61.893 19.6993 61.7671 18.1723L61.6858 17.1857L60.091 16.7962C59.214 16.5819 58.4963 16.3414 58.4963 16.2618C58.4963 16.1812 60.3473 16.1169 62.6622 16.1169C65.053 16.1169 66.8281 16.1802 66.8281 16.2654C66.8281 16.3469 66.4247 16.5684 65.9319 16.7575L65.0357 17.1014L64.9512 17.9658C64.8187 19.3207 64.6356 22.9291 64.6933 23.0488C64.7582 23.1834 63.1579 24.0262 61.9521 24.492C59.3254 25.5071 55.6671 25.644 53.4191 24.8117C50.8367 23.8553 49.0695 22.101 47.9496 19.3822C47.1904 17.5389 46.8984 15.95 46.8966 13.6504C46.8924 8.85518 48.5913 4.83411 51.5072 2.73741C53.1894 1.52767 55.2129 1.00707 57.8453 1.10639C58.5255 1.13204 60.2099 1.1628 61.5881 1.17464ZM6.04498 1.31621C6.08794 1.3172 7.05131 2.59436 8.18586 4.15434C10.4612 7.28302 19.5638 18.9123 19.7374 18.9123C19.7975 18.9123 19.8155 17.5989 19.7775 15.9936C19.7393 14.3882 19.6715 11.484 19.6267 9.53955C19.5339 5.51043 19.3881 2.34738 19.2895 2.2229C19.2385 2.15845 16.5606 1.48229 16.3565 1.48229C16.3345 1.48229 16.3165 1.42688 16.3165 1.35896C16.3164 1.2358 23.8614 1.25554 23.959 1.37903C23.9875 1.41487 23.3047 1.60874 22.4418 1.80968L20.873 2.17488L20.8563 3.43182C20.8472 4.1231 20.817 4.87374 20.7891 5.09984C20.7614 5.32593 20.7295 10.0061 20.7183 15.5003C20.7071 20.9945 20.6873 25.4896 20.6744 25.4896C20.6614 25.4896 19.8387 24.3613 18.8461 22.982C17.0819 20.5305 16.4863 19.7269 13.6973 16.0347C12.9458 15.0399 10.995 12.45 9.36221 10.2795C6.15277 6.0131 5.29369 4.9354 5.10245 4.9354C4.96302 4.9354 5.07237 21.2837 5.22339 23.0167L5.31595 24.0791L6.91071 24.4923C7.78789 24.7196 8.50547 24.9629 8.50547 25.0332C8.50547 25.1034 6.7968 25.1608 4.70838 25.1608C2.62009 25.1608 0.954123 25.1053 1.00633 25.0374C1.05853 24.9695 1.72729 24.7275 2.49251 24.4994L3.88392 24.0849L3.9675 21.8685C4.07881 18.9136 4.09716 7.03834 3.99328 5.2156L3.91074 3.76907L3.0622 2.87949C2.59536 2.39013 2.06212 1.95142 1.87713 1.90455C1.69201 1.85753 1.13052 1.7291 0.629313 1.61893C-0.953988 1.27116 0.30802 1.20061 6.04498 1.31621ZM98.9836 1.36044C99.6798 1.39892 99.6583 1.41093 98.2025 1.79439C97.3791 2.01128 96.6375 2.27026 96.5547 2.3699C96.4719 2.46955 96.3662 3.18007 96.3198 3.9488C96.2195 5.60678 96.1365 19.5169 96.2144 21.5809L96.2687 23.0164L97.138 23.3313C98.3946 23.7866 98.737 23.8492 100.554 23.956C102.255 24.0559 104.208 23.734 104.531 23.3C104.611 23.193 104.963 22.1829 105.312 21.0555C106.042 18.7031 106.144 18.8108 105.838 21.6108C105.728 22.6137 105.6 23.8226 105.553 24.2975L105.468 25.1608H97.6435C93.1608 25.1608 89.8715 25.0993 89.9423 25.0167C90.0104 24.9376 90.7328 24.7183 91.5477 24.5292C92.3627 24.3402 93.0577 24.1498 93.0925 24.1059C93.5063 23.5832 93.5855 4.9594 93.1836 2.66736C93.1059 2.22405 93.188 2.26384 91.3678 1.78501C90.1723 1.47061 90.011 1.39399 90.3914 1.32197C90.8143 1.24189 97.3685 1.27115 98.9836 1.36044ZM55.2416 1.59624C54.4773 1.75837 52.9685 2.33636 52.4657 2.65947C50.9501 3.63325 49.2887 5.80542 48.524 7.81299C47.3189 10.977 47.2052 15.0547 48.2362 18.1424C49.013 20.4691 50.5468 22.526 52.3125 23.6088C53.672 24.4427 54.7122 24.7771 56.3482 24.9065L57.5199 24.9993L56.2972 24.662C53.7971 23.9722 51.929 22.7791 50.6378 21.0473C49.0718 18.9468 48.4192 16.6585 48.4347 13.3215C48.449 10.2226 48.9121 8.35135 50.2534 5.97265C51.6896 3.42557 53.239 2.27782 55.963 1.74308C57.099 1.52011 57.109 1.51435 56.3482 1.5206C55.9186 1.52422 55.4206 1.55809 55.2416 1.59624ZM29.8557 2.20284C27.3996 3.49907 26.1128 4.96254 24.9686 7.76055C24.2299 9.56718 23.8672 11.3145 23.8672 13.0667C23.8672 14.7866 24.1144 15.9908 24.8638 17.9194C25.3754 19.2365 25.6501 19.7035 26.653 20.9616C28.1995 22.9013 29.7683 24.0334 31.4179 24.3999C31.7626 24.4766 31.7076 24.4239 31.1916 24.1839C27.996 22.6972 25.5297 19.2804 24.9721 15.568C24.5753 12.9262 24.8096 9.7857 25.5532 7.77846C26.4644 5.31935 28.5739 2.95232 30.767 1.92823C30.9405 1.84733 30.9405 1.83648 30.767 1.83105C30.6596 1.82776 30.2495 1.99516 29.8557 2.20284ZM4.74769 3.41439C5.29095 4.11537 8.85866 8.79549 12.6759 13.8148C16.4931 18.8342 19.6647 22.9656 19.7238 22.9957C19.7831 23.0259 19.8315 22.801 19.8315 22.4958C19.8315 21.9847 19.2314 21.1624 12.2002 12.0406C5.34081 3.14127 4.52808 2.14003 4.16434 2.14003C3.76194 2.14003 3.76506 2.1466 4.74769 3.41439ZM32.5245 2.30593C28.8629 2.94032 26.4402 6.78282 26.2531 12.2527C26.1641 14.8527 26.3795 16.1578 27.2661 18.3892C28.1043 20.4994 29.4813 22.4507 30.6639 23.2048C32.7227 24.5175 35.8133 24.0544 37.8463 22.1288C39.2186 20.8288 39.9718 19.4279 40.5507 17.0994C40.8187 16.0217 40.856 15.5462 40.8541 13.2393C40.8515 10.2414 40.5865 8.47764 39.8537 6.57974C38.6999 3.59132 35.586 1.77564 32.5245 2.30593ZM37.7949 2.64698C38.9448 3.50104 39.9395 4.8818 40.5315 6.44573C41.3771 8.68038 41.6065 10.0447 41.6181 12.9104C41.63 15.8244 41.4456 16.9767 40.6316 19.0767C39.9856 20.7431 38.6914 22.4823 37.4715 23.3235C36.5418 23.9645 36.9912 23.8519 38.1875 23.1441C39.3905 22.4323 40.8513 20.5578 41.4852 18.9123C42.2673 16.8817 42.4202 15.8985 42.406 12.9927C42.3919 10.1378 42.1771 8.77624 41.4258 6.77772C40.7236 4.91008 38.7873 2.72015 37.4064 2.23195C37.2274 2.16864 37.4022 2.35543 37.7949 2.64698ZM93.9064 13.2393V24.3386H94.2969H94.6875V13.2393V2.14003H94.2969H93.9064V13.2393ZM77.8935 3.39153C77.8178 3.65282 77.7292 3.96211 77.6966 4.07903C77.6639 4.19577 78.1534 5.82367 78.7843 7.69657C79.4152 9.56931 80.9219 14.0431 82.1328 17.6379L84.3342 24.1742H84.8176H85.3009L85.1234 23.6398C84.2626 21.0501 78.1202 3.02978 78.0816 2.98045C78.0538 2.94543 77.9692 3.13041 77.8935 3.39153ZM76.4876 8.26289C74.9892 12.6932 73.9383 16.2295 74.09 16.331C74.382 16.5265 79.8926 16.5898 80.6276 16.4061C80.8592 16.3483 80.9406 16.2356 80.9096 16.0153C80.8212 15.3857 77.8613 7.04098 77.4307 6.20747C77.3035 5.96115 77.1609 6.27193 76.4876 8.26289ZM62.4018 20.0003V23.0614L62.6947 22.9623C62.8557 22.9079 63.0315 22.8621 63.0853 22.861C63.139 22.8597 63.1829 21.5268 63.1829 19.8989V16.9391H62.7923H62.4018V20.0003Z" fill="white"/>
</svg>
